0
SECTION
2
HEADER
9
$INSUNITS
70
1
9
$ACADVER
1
AC1014
9
$HANDSEED
5
FFFF
0
ENDSEC
0
SECTION
2
TABLES
0
TABLE
2
VPORT
5
8
100
AcDbSymbolTable
0
ENDTAB
0
TABLE
2
LTYPE
5
5
100
AcDbSymbolTable
0
LTYPE
5
14
100
AcDbSymbolTableRecord
100
AcDbLinetypeTableRecord
2
BYBLOCK
70
0
0
LTYPE
5
15
100
AcDbSymbolTableRecord
100
AcDbLinetypeTableRecord
2
BYLAYER
70
0
0
ENDTAB
0
TABLE
2
LAYER
5
2
100
AcDbSymbolTable
70
2
0
LAYER
5
50
100
AcDbSymbolTableRecord
100
AcDbLayerTableRecord
2
0
70
0
6
CONTINUOUS
0
ENDTAB
0
TABLE
2
STYLE
5
3
100
AcDbSymbolTable
70
1
0
STYLE
5
11
100
AcDbSymbolTableRecord
100
AcDbTextStyleTableRecord
2
STANDARD
70
0
0
ENDTAB
0
TABLE
2
VIEW
5
6
100
AcDbSymbolTable
70
0
0
ENDTAB
0
TABLE
2
UCS
5
7
100
AcDbSymbolTable
70
0
0
ENDTAB
0
TABLE
2
APPID
5
9
100
AcDbSymbolTable
70
2
0
APPID
5
12
100
AcDbSymbolTableRecord
100
AcDbRegAppTableRecord
2
ACAD
70
0
0
ENDTAB
0
TABLE
2
DIMSTYLE
5
A
100
AcDbSymbolTable
70
1
0
ENDTAB
0
TABLE
2
BLOCK_RECORD
5
1
100
AcDbSymbolTable
70
1
0
BLOCK_RECORD
5
1F
100
AcDbSymbolTableRecord
100
AcDbBlockTableRecord
2
*MODEL_SPACE
0
BLOCK_RECORD
5
1B
100
AcDbSymbolTableRecord
100
AcDbBlockTableRecord
2
*PAPER_SPACE
0
ENDTAB
0
ENDSEC
0
SECTION
2
BLOCKS
0
BLOCK
5
20
100
AcDbEntity
100
AcDbBlockBegin
2
*MODEL_SPACE
0
ENDBLK
5
21
100
AcDbEntity
100
AcDbBlockEnd
0
BLOCK
5
1C
100
AcDbEntity
100
AcDbBlockBegin
2
*PAPER_SPACE
0
ENDBLK
5
1D
100
AcDbEntity
100
AcDbBlockEnd
0
ENDSEC
0
SECTION
2
ENTITIES
0
LWPOLYLINE
5
100
100
AcDbEntity
8
0
100
AcDbPolyline
90
276
70
1
43
0.0
10
1.6047968834182778
20
-0.26550677816077722
10
1.7495147585914537
20
-0.014848065597426642
10
1.7511683841109815
20
-0.015802786736264954
10
1.7511683841109815
20
-0.011983902180911703
10
1.8253611330719262
20
0.11652170857264661
10
1.8286683841109821
20
0.11843115085032324
10
1.8270147585914542
20
0.11938587198916155
10
1.8403611330719265
20
0.14250247068617961
10
1.8442502376525352
20
0.14474784626270076
10
1.8429538694589991
20
0.14699322183922195
10
1.8770147585914538
20
0.2059884123676039
10
2.6711683841109815
20
-0.2525163971040123
10
2.6711683841109815
20
0.041932240182696381
10
2.66918925599601
20
0.043074890332635771
10
2.6711683841109815
20
0.046502840782453952
10
2.6711683841109815
20
0.64949322183922042
10
2.6093863518082268
20
0.64949322183922065
10
2.6092502376525344
20
0.64925746520593242
10
2.6088418951854586
20
0.64949322183922076
10
2.3322582225972059
20
0.64949322183922076
10
2.3311683841109816
20
0.64760556620903564
10
2.3311683841109816
20
0.64949322183922065
10
2.1503928878024747
20
0.64949322183922065
10
1.97500513964822
20
0.3457127310109584
10
2.1836683841109812
20
0.2252409506504025
10
2.1863642160209111
20
0.2267973899292906
10
2.1850163000659459
20
0.22446273101095848
10
2.2456380783308569
20
0.18946273101095856
10
2.2461683841109816
20
0.19038124756568159
10
2.2461683841109812
20
0.18915655882605126
10
2.5011683841109811
20
0.041932240182696381
10
2.5011683841109811
20
0.47949322183922066
10
2.4240462357497954
20
0.479493221839221
10
2.4236683841109814
20
0.47927506909383788
10
2.4232905324721674
20
0.479493221839221
10
2.3311683841109816
20
0.479493221839221
10
2.3311683841109816
20
0.49449322183922101
10
2.5161683841109812
20
0.49449322183922068
10
2.5161683841109812
20
0.31906036939371685
10
2.5170564098374415
20
0.31957307128593587
10
2.5161683841109816
20
0.31803496560927891
10
2.5161683841109812
20
0.015951478069163045
10
2.2386683841109813
20
0.17616617776928459
10
2.2376077725507333
20
0.17555383339946959
10
2.2381380783308571
20
0.17647234995419189
10
1.9545147585914537
20
0.34022234995419143
10
2.1417326337646316
20
0.66449322183922077
10
2.4311683841109826
20
0.66449322183922077
10
2.431168384110983
20
0.66258377956154491
10
2.4344756351500387
20
0.66449322183922077
10
2.5828611330719271
20
0.66449322183922077
10
2.5861683841109833
20
0.66258377956154424
10
2.5861683841109833
20
0.66449322183922077
10
2.6128611330719269
20
0.66449322183922155
10
2.616750237652536
20
0.66224784626269995
10
2.6180466058460721
20
0.66449322183922077
10
2.686168384110982
20
0.66449322183922077
10
2.6861683841109825
20
-0.2525163971040123
10
2.9411683841109815
20
-0.10529207846065813
10
2.9411683841109819
20
-0.10300677816077899
10
2.9451266403409244
20
-0.10300677816077899
10
3.467331628573743
20
0.19848841236760426
10
3.4364406124223659
20
0.25199322183922096
10
3.4361683841109816
20
0.25199322183922096
10
3.4361683841109816
20
0.25246473510579698
10
3.2978765478168555
20
0.4919932218392214
10
3.2956968708444063
20
0.49199322183922073
10
3.2973316285737435
20
0.49293704965431329
10
3.2069438804194896
20
0.64949322183922076
10
2.8561683841109815
20
0.64949322183922076
10
2.8561683841109815
20
0.4085496611181097
10
2.858864216020911
20
0.40699322183922126
10
2.8561683841109815
20
0.40699322183922126
10
2.8561683841109815
20
0.33699322183922109
10
2.8572289956712309
20
0.33699322183922109
10
2.8561683841109815
20
0.33638087746940576
10
2.8561683841109815
20
0.041932240182696381
10
3.2351073099303891
20
0.26071273101095893
10
3.1965462357497954
20
0.32750247068617855
10
3.1961683841109823
20
0.32772062343156166
10
3.1961683841109823
20
0.32815692892232795
10
3.1501073099303887
20
0.40793704965431349
10
3.1630976909871551
20
0.41543704965431349
10
3.2555976909871558
20
0.25522234995419196
10
3.1036683841109824
20
0.16750592373144013
10
3.1045564098374423
20
0.16699322183922113
10
3.1027803583845222
20
0.1669932218392208
10
2.8411683841109818
20
0.015951478069163395
10
2.8411683841109818
20
0.33638087746940576
10
2.8401077725507333
20
0.33699322183922109
10
2.8411683841109818
20
0.33699322183922109
10
2.8411683841109814
20
0.66449322183922077
10
3.2156041344573341
20
0.66449322183922011
10
3.3603220096305089
20
0.41383450927586951
10
3.3586683841109819
20
0.41287978813703125
10
3.3619756351500381
20
0.41097034585935494
10
3.4361683841109825
20
0.28246473510579662
10
3.4361683841109825
20
0.27864585055044339
10
3.4378220096305094
20
0.27960057168928099
10
3.4511683841109821
20
0.25648397299226328
10
3.4511683841109817
20
0.25199322183922096
10
3.4537611204980543
20
0.25199322183922096
10
3.4878220096305093
20
0.1929980313108369
10
2.6936683841109819
20
-0.26550677816077933
10
2.9486683841109818
20
-0.41273109680413383
10
2.9506475122259532
20
-0.41158844665419442
10
2.9526266403409243
20
-0.41501639710401261
10
3.4748316285737433
20
-0.71651158763239586
10
3.5057226447251209
20
-0.66300677816077946
10
3.5055865305694285
20
-0.66277102152749134
10
3.5059948730365051
20
-0.66253526489420356
10
3.6442867093306313
20
-0.42300677816077903
10
3.6431968708444065
20
-0.4211191225305943
10
3.6448316285737432
20
-0.42206295034568719
10
3.7352193767279966
20
-0.26550677816077967
10
3.5598316285737428
20
0.03827371266748307
10
3.3511683841109821
20
-0.082198067693072488
10
3.3511683841109821
20
-0.08531094625084866
10
3.3498204681560169
20
-0.082976287332516871
10
3.2891986898911059
20
-0.11797628733251712
10
3.2897289956712301
20
-0.1188948038872398
10
3.2886683841109821
20
-0.1182824595174248
10
3.0336683841109817
20
-0.26550677816077933
10
3.4126073099303889
20
-0.48428726898904118
10
3.4511683841109817
20
-0.41749752931382161
10
3.4511683841109817
20
-0.41706122382305572
10
3.4515462357497961
20
-0.41684307107767254
10
3.4976073099303884
20
-0.33706295034568667
10
3.5105976909871557
20
-0.34456295034568668
10
3.4180976909871554
20
-0.50477765004580788
10
3.2661683841109821
20
-0.41706122382305605
10
3.2661683841109821
20
-0.41808662760749404
10
3.2652803583845218
20
-0.41654852193083708
10
3.0036683841109815
20
-0.26550677816077894
10
3.2811683841109822
20
-0.10529207846065813
10
3.2811683841109822
20
-0.10406738972102778
10
3.2816986898911056
20
-0.10498590627575045
10
3.5653220096305089
20
0.058764093724249393
10
3.7525398848036846
20
-0.26550677816078178
10
3.6078220096305089
20
-0.51616549072413231
10
3.6061683841109811
20
-0.51521076958529433
10
3.6061683841109811
20
-0.51902965414064728
10
3.5319756351500371
20
-0.64753526489420565
10
3.5286683841109809
20
-0.64944470717188219
10
3.5303220096305088
20
-0.65039942831072051
10
3.516975635150037
20
-0.6735160270077386
10
3.5130865305694283
20
-0.6757614025842601
10
3.5143828987629639
20
-0.67800677816078092
10
3.480322009630509
20
-0.73700196868916323
10
2.6861683841109816
20
-0.27849715921754736
10
2.6861683841109816
20
-0.5729457965042557
10
2.6881475122259531
20
-0.57408844665419545
10
2.6861683841109816
20
-0.57751639710401359
10
2.6861683841109816
20
-1.1805067781607803
10
2.7479504164137367
20
-1.1805067781607805
10
2.7480865305694286
20
-1.1802710215274923
10
2.7484948730365049
20
-1.1805067781607808
10
3.0250785456247575
20
-1.1805067781607805
10
3.0261683841109819
20
-1.1786191225305953
10
3.0261683841109819
20
-1.1805067781607803
10
3.2069438804194887
20
-1.1805067781607801
10
3.3823316285737435
20
-0.87672628733251778
10
3.1736683841109823
20
-0.75625450697196184
10
3.1709725522010523
20
-0.75781094625084955
10
3.1723204681560171
20
-0.75547628733251782
10
3.1116986898911061
20
-0.7204762873325179
10
3.1111683841109818
20
-0.72139480388724098
10
3.1111683841109818
20
-0.7201701151476102
10
2.8561683841109815
20
-0.5729457965042557
10
2.856168384110982
20
-1.0105067781607806
10
2.9332905324721676
20
-1.0105067781607802
10
2.9336683841109821
20
-1.0102886254153978
10
2.9340462357497961
20
-1.0105067781607808
10
3.0261683841109819
20
-1.0105067781607802
10
3.0261683841109819
20
-1.0255067781607807
10
2.8411683841109814
20
-1.0255067781607805
10
2.8411683841109814
20
-0.85007392571527651
10
2.8402803583845215
20
-0.85058662760749559
10
2.8411683841109814
20
-0.84904852193083824
10
2.8411683841109814
20
-0.54696503439072275
10
3.1186683841109817
20
-0.70717973409084389
10
3.1197289956712302
20
-0.70656738972102895
10
3.1191986898911059
20
-0.70748590627575159
10
3.4028220096305093
20
-0.87123590627575109
10
3.2156041344573327
20
-1.1955067781607802
10
2.9261683841109822
20
-1.1955067781607798
10
2.9261683841109822
20
-1.1935973358831038
10
2.9228611330719261
20
-1.1955067781607804
10
2.7744756351500377
20
-1.1955067781607804
10
2.771168384110982
20
-1.1935973358831038
10
2.7711683841109815
20
-1.1955067781607798
10
2.7444756351500375
20
-1.1955067781607804
10
2.7405865305694288
20
-1.1932614025842594
10
2.7392901623758927
20
-1.1955067781607802
10
2.6711683841109815
20
-1.1955067781607795
10
2.671168384110981
20
-0.27849715921754686
10
2.4161683841109816
20
-0.4257214778609012
10
2.4161683841109816
20
-0.42800677816078031
10
2.4122101278810391
20
-0.42800677816078009
10
1.8900051396482203
20
-0.72950196868916362
10
1.9208961557995976
20
-0.78300677816078046
10
1.9211683841109819
20
-0.78300677816078024
10
1.9211683841109817
20
-0.78347829142735637
10
2.059460220405108
20
-1.0230067781607803
10
2.0616398973775572
20
-1.0230067781607803
10
2.06000513964822
20
-1.0239506059758727
10
2.1503928878024738
20
-1.1805067781607799
10
2.501168384110982
20
-1.1805067781607799
10
2.501168384110982
20
-0.93956321743966831
10
2.498472552201052
20
-0.93800677816078026
10
2.501168384110982
20
-0.93800677816078026
10
2.5011683841109815
20
-0.86800677816078009
10
2.500107772550733
20
-0.86800677816078009
10
2.5011683841109815
20
-0.86739443379096504
10
2.5011683841109815
20
-0.5729457965042557
10
2.1222294582915748
20
-0.79172628733251826
10
2.1607905324721677
20
-0.85851602700773788
10
2.1611683841109817
20
-0.85873417975312094
10
2.1611683841109817
20
-0.85917048524388728
10
2.2072294582915748
20
-0.93895060597587277
10
2.1942390772348079
20
-0.94645060597587294
10
2.1017390772348081
20
-0.78623590627575168
10
2.2536683841109815
20
-0.69851948005299969
10
2.2527803583845216
20
-0.69800677816078049
10
2.2545564098374418
20
-0.69800677816078038
10
2.5161683841109816
20
-0.54696503439072264
10
2.5161683841109816
20
-0.86739443379096504
10
2.5172289956712302
20
-0.86800677816078009
10
2.5161683841109816
20
-0.86800677816078009
10
2.5161683841109821
20
-1.1955067781607795
10
2.1417326337646294
20
-1.1955067781607795
10
1.9970147585914542
20
-0.94484806559742884
10
1.9986683841109818
20
-0.94389334445859074
10
1.9953611330719256
20
-0.94198390218091432
10
1.9211683841109817
20
-0.81347829142735595
10
1.9211683841109817
20
-0.80965940687200266
10
1.9195147585914538
20
-0.81061412801084065
10
1.9061683841109816
20
-0.78749752931382266
10
1.9061683841109816
20
-0.78300677816078035
10
1.9035756477239094
20
-0.78300677816078035
10
1.8695147585914531
20
-0.72401158763239515
10
2.6636683841109807
20
-0.26550677816077933
10
2.4086683841109813
20
-0.1182824595174248
10
2.4066892559960098
20
-0.11942510966736419
10
2.4047101278810388
20
-0.11599715921754601
10
1.8825051396482197
20
0.18549803131083795
10
1.851614123496842
20
0.13199322183922124
10
1.8517502376525345
20
0.1317574652059334
10
1.8513418951854581
20
0.13152170857264558
10
1.7130500588913316
20
-0.10800677816077889
10
1.7141398973775566
20
-0.10989443379096366
10
1.7125051396482194
20
-0.1089506059758711
10
1.6221173914939664
20
-0.26550677816077861
10
1.7975051396482196
20
-0.56928726898904136
10
2.006168384110981
20
-0.4488154886284858
10
2.006168384110981
20
-0.44570261007070999
10
2.0075163000659462
20
-0.44803726898904178
10
2.0681380783308563
20
-0.41303726898904153
10
2.067607772550732
20
-0.4121187524343185
10
2.068668384110981
20
-0.41273109680413383
10
2.3236683841109813
20
-0.26550677816077933
10
1.9447294582915742
20
-0.046726287332516742
10
1.9061683841109811
20
-0.11351602700773666
10
1.9061683841109804
20
-0.11395233249850258
10
1.9057905324721667
20
-0.11417048524388501
10
1.859729458291574
20
-0.1939506059758716
10
1.8467390772348069
20
-0.18645060597587124
10
1.9392390772348076
20
-0.026235906275750068
10
2.0911683841109809
20
-0.11395233249850223
10
2.0911683841109809
20
-0.11292692871406425
10
2.0920564098374412
20
-0.11446503439072123
10
2.3536683841109811
20
-0.26550677816077933
10
2.0761683841109808
20
-0.42572147786090014
10
2.0761683841109808
20
-0.42694616660053047
10
2.0756380783308566
20
-0.42602765004580784
10
1.7920147585914534
20
-0.58977765004580729
0
LWPOLYLINE
5
101
100
AcDbEntity
8
0
100
AcDbPolyline
90
3
70
1
43
0.0
10
2.4161683841109811
20
-0.13127284057419147
10
2.4161683841109816
20
-0.13584344117394939
10
2.4141892559960096
20
-0.13241549072413086
0
LWPOLYLINE
5
102
100
AcDbEntity
8
0
100
AcDbPolyline
90
3
70
1
43
0.0
10
2.0053834539073776
20
-0.47434307107767321
10
2.006168384110981
20
-0.47479625074201842
10
2.0061683841109805
20
-0.47570261007070896
0
LWPOLYLINE
5
103
100
AcDbEntity
8
0
100
AcDbPolyline
90
3
70
1
43
0.0
10
2.6636683841109812
20
0.028941859125929715
10
2.6597101278810387
20
0.026656558826050929
10
2.6616892559960101
20
0.030084509275869104
0
LWPOLYLINE
5
104
100
AcDbEntity
8
0
100
AcDbPolyline
90
3
70
1
43
0.0
10
2.1611683841109812
20
0.21315692892232704
10
2.1611683841109812
20
0.21225056959363583
10
2.1603834539073787
20
0.21179738992929059
0
LWPOLYLINE
5
105
100
AcDbEntity
8
0
100
AcDbPolyline
90
3
70
1
43
0.0
10
2.9261683841109818
20
-0.10529207846065779
10
2.9222101278810393
20
-0.10300677816077936
10
2.9261683841109818
20
-0.10300677816077899
0
LWPOLYLINE
5
106
100
AcDbEntity
8
0
100
AcDbPolyline
90
3
70
1
43
0.0
10
2.8344533143145854
20
0.42199322183922094
10
2.833668384110982
20
0.42154004217487567
10
2.8328834539073791
20
0.42199322183922094
0
LWPOLYLINE
5
107
100
AcDbEntity
8
0
100
AcDbPolyline
90
3
70
1
43
0.0
10
2.9411683841109819
20
-0.39974071574736714
10
2.9411683841109819
20
-0.39517011514760958
10
2.9431475122259534
20
-0.39859806559742778
0
LWPOLYLINE
5
108
100
AcDbEntity
8
0
100
AcDbPolyline
90
3
70
1
43
0.0
10
3.351953314314585
20
-0.056670485243885099
10
3.3511683841109821
20
-0.056217305579539849
10
3.3511683841109821
20
-0.055310946250849341
0
LWPOLYLINE
5
109
100
AcDbEntity
8
0
100
AcDbPolyline
90
3
70
1
43
0.0
10
2.6936683841109814
20
-0.55995541544748939
10
2.6976266403409244
20
-0.55767011514761022
10
2.6956475122259529
20
-0.56109806559742881
0
LWPOLYLINE
5
110
100
AcDbEntity
8
0
100
AcDbPolyline
90
3
70
1
43
0.0
10
3.1961683841109814
20
-0.7441704852438864
10
3.1961683841109814
20
-0.74326412591519553
10
3.1969533143145847
20
-0.74281094625085031
0
LWPOLYLINE
5
111
100
AcDbEntity
8
0
100
AcDbPolyline
90
3
70
1
43
0.0
10
2.4311683841109817
20
-0.42572147786090137
10
2.4351266403409242
20
-0.42800677816078014
10
2.4311683841109817
20
-0.42800677816078014
0
LWPOLYLINE
5
112
100
AcDbEntity
8
0
100
AcDbPolyline
90
3
70
1
43
0.0
10
2.5228834539073781
20
-0.95300677816078028
10
2.5236683841109815
20
-0.95255359849643462
10
2.5244533143145844
20
-0.95300677816077994
0
LWPOLYLINE
5
113
100
AcDbEntity
8
0
100
AcDbPolyline
90
504
70
1
43
0.0
10
1.5239678457317301
20
-0.26550677816077722
10
1.7663929803265421
20
-0.68539942831071909
10
1.8270147585914529
20
-0.6503994283107184
10
1.825361133071925
20
-0.64753526489420388
10
1.8286683841109814
20
-0.64944470717187974
10
1.9136172989698974
20
-0.60039942831071857
10
1.9135662138288134
20
-0.60031094625084991
10
1.9136683841109816
20
-0.6003699342907618
10
2.3311683841109812
20
-0.35932619690409334
10
2.3311683841109812
20
-0.35861912253059447
10
2.3314745562958885
20
-0.35914942831071889
10
2.4161683841109811
20
-0.3102514240229754
10
2.4161683841109807
20
-0.30584344117394868
10
2.4180770966743328
20
-0.30914942831071862
10
2.4936683841109812
20
-0.26550677816077933
10
2.1692807284807958
20
-0.078221477860900557
10
2.1689745562958884
20
-0.077691172080775805
10
2.1686683841109806
20
-0.077867940674150954
10
2.0480371719509747
20
-0.0082214778609000505
10
2.0479132150213144
20
-0.0080067781607787176
10
2.0478512365564847
20
-0.0081141280108399088
10
1.913617298969897
20
0.069385871989160242
10
1.836168384110981
20
-0.06475958353755823
10
1.8361683841109808
20
-0.06487755961738359
10
1.8361172989698968
20
-0.064848065597427604
10
1.8286172989698968
20
-0.07783844665419426
10
1.8286683841109814
20
-0.077867940674150954
10
1.8285662138288126
20
-0.077926928714063995
10
1.7511683841109813
20
-0.21198390218091204
10
1.7511683841109809
20
-0.21210187826073812
10
1.7511172989698962
20
-0.21207238424078176
10
1.743617298969897
20
-0.22506276529754843
10
1.7436683841109808
20
-0.22509225931750512
10
1.7435662138288124
20
-0.22515124735741884
10
1.7202669372562029
20
-0.26550677816077789
10
1.7435662138288137
20
-0.30586230896414013
10
1.7436683841109812
20
-0.30592129700405279
10
1.7436172989698973
20
-0.30595079102400913
10
1.7511172989698978
20
-0.31894117208077583
10
1.7511683841109815
20
-0.31891167806081949
10
1.7511683841109813
20
-0.31902965414064482
10
1.8285662138288121
20
-0.45308662760749463
10
1.8286683841109814
20
-0.4531456156474073
10
2.1536683841109814
20
-0.26550677816077933
10
2.0836683841109815
20
-0.22509225931750548
10
2.0986683841109817
20
-0.21643200527966103
10
2.1761683841109809
20
-0.26117665114185673
10
2.1761683841109809
20
-0.26015124735741874
10
2.1761683841109805
20
-0.25251639710401302
10
2.1728623969742116
20
-0.25442510966736426
10
2.1761683841109809
20
-0.26015124735741874
10
2.1770564098374416
20
-0.26168935303407642
10
2.1836683841109812
20
-0.26550677816077933
10
1.8361683841109808
20
-0.46613599670417399
10
1.8361683841109808
20
-0.46625397278399899
10
1.8361172989698968
20
-0.46616549072413105
10
1.8252919814225916
20
-0.47241549072413047
10
1.7369155787342023
20
-0.31934307107767324
10
1.736168384110981
20
-0.3189116780608191
10
1.736168384110981
20
-0.31804889202711234
10
1.7043898048534878
20
-0.26300677816077883
10
1.8025393506157243
20
-0.093006778160779222
10
1.8025163000659465
20
-0.092966853437421268
10
1.80258545171528
20
-0.092926928714063994
10
1.8156269179131308
20
-0.070338446654194267
10
1.8136683841109813
20
-0.069207686636306165
10
1.8175854517152796
20
-0.066946166600530668
10
1.8211683841109811
20
-0.06074034565109189
10
1.8211683841109811
20
-0.056217305579539849
10
1.8231269179131302
20
-0.057348065597427597
10
1.9006269179131308
20
0.076885871989160595
10
1.9008128533076203
20
0.076778522139100108
10
1.9006888963779602
20
0.076993221839220388
10
1.9081269179131304
20
0.089876253045926918
10
2.523668384110981
20
-0.26550677816077933
10
2.3389745562958888
20
-0.37213980936748486
10
2.3392807284807962
20
-0.37267011514760995
10
2.338668384110981
20
-0.37231657796085965
10
1.9211683841109812
20
-0.61336031534752811
10
1.9211683841109808
20
-0.61347829142735455
10
1.9211172989698966
20
-0.61338980936748522
10
1.7609025992697762
20
-0.70588980936748535
10
1.8384025992697759
20
-0.84012374695407355
10
1.8513929803265425
20
-0.8326237469540736
10
2.1013181149213556
20
-1.2655067781607798
10
2.5861683841109819
20
-1.2655067781607801
10
2.5861683841109819
20
-1.1955067781607798
10
2.5828611330719262
20
-1.19550677816078
10
2.5861683841109819
20
-1.1935973358831027
10
2.5861683841109819
20
-1.0955067781607799
10
2.5860662138288144
20
-1.0955067781607797
10
2.5861683841109819
20
-1.0954477901208668
10
2.5861683841109815
20
-0.61336031534752944
10
2.5855560397411663
20
-0.61300677816078009
10
2.5861683841109815
20
-0.6130067781607802
10
2.5861683841109815
20
-0.5152107695852931
10
2.5823509589842786
20
-0.51300677816078011
10
2.5861683841109815
20
-0.51300677816078
10
2.5861683841109815
20
-0.42572147786090109
10
2.2617807284807965
20
-0.61300677816078031
10
2.2611683841109813
20
-0.6130067781607802
10
2.2611683841109813
20
-0.61336031534752977
10
2.1405371719509749
20
-0.68300677816078026
10
2.1402892580916553
20
-0.68300677816078026
10
2.1403512365564854
20
-0.68311412801084082
10
2.0061172989698974
20
-0.76061412801084094
10
2.0835662138288136
20
-0.89475958353755958
10
2.0836683841109811
20
-0.89481857157747224
10
2.0836172989698971
20
-0.89484806559742891
10
2.0911172989698974
20
-0.90783844665419566
10
2.0911683841109818
20
-0.90780895263423889
10
2.0911683841109818
20
-0.90792692871406566
10
2.1685662138288131
20
-1.0419839021809134
10
2.1686683841109815
20
-1.0420428902208267
10
2.1686172989698971
20
-1.0420723842407835
10
2.1761172989698974
20
-1.0550627652975499
10
2.1761683841109818
20
-1.0550332712775932
10
2.1761683841109822
20
-1.0551512473574205
10
2.1994676606835917
20
-1.0955067781607795
10
2.2460662138288146
20
-1.0955067781607799
10
2.2461683841109821
20
-1.0954477901208668
10
2.2461683841109821
20
-1.0955067781607799
10
2.2611683841109818
20
-1.0955067781607795
10
2.2611683841109822
20
-1.095447790120867
10
2.2612705543931493
20
-1.0955067781607799
10
2.4160662138288131
20
-1.0955067781607801
10
2.416168384110982
20
-1.0954477901208668
10
2.4161683841109816
20
-0.72017011514761009
10
2.3461683841109817
20
-0.76058463399088394
10
2.3461683841109817
20
-0.74326412591519508
10
2.4236683841109814
20
-0.69851948005299935
10
2.4227803583845211
20
-0.69800677816078016
10
2.4161683841109816
20
-0.69418935303407747
10
2.4161683841109816
20
-0.69800677816078005
10
2.4227803583845211
20
-0.69800677816078016
10
2.4245564098374421
20
-0.69800677816078005
10
2.4311683841109817
20
-0.69418935303407714
10
2.4311683841109817
20
-1.0954477901208675
10
2.4312705543931488
20
-1.0955067781607799
10
2.4311683841109817
20
-1.0955067781607799
10
2.4311683841109817
20
-1.1080067781607801
10
2.2544155787342031
20
-1.1080067781607801
10
2.2536683841109815
20
-1.1084381711776339
10
2.2529211894877617
20
-1.1080067781607807
10
2.189364030972774
20
-1.1080067781607803
10
2.0912144852105374
20
-0.93800677816078026
10
2.0911683841109818
20
-0.93800677816078026
10
2.0911683841109818
20
-0.93792692871406502
10
2.078126917913131
20
-0.91533844665419528
10
2.0761683841109817
20
-0.91646920667208298
10
2.0761683841109817
20
-0.91194616660053207
10
2.0725854517152809
20
-0.90574034565109296
10
2.0686683841109814
20
-0.90347882561531689
10
2.0706269179131311
20
-0.90234806559742897
10
1.9931269179131308
20
-0.76811412801084067
10
1.9933128533076205
20
-0.76800677816078022
10
1.9930649394483015
20
-0.76800677816078022
10
1.9856269179131307
20
-0.75512374695407425
10
2.6011683841109812
20
-0.39974071574736803
10
2.6011683841109812
20
-0.61300677816078009
10
2.6017807284807968
20
-0.61300677816077997
10
2.6011683841109812
20
-0.61336031534752977
10
2.6011683841109816
20
-1.0954477901208668
10
2.6012705543931496
20
-1.0955067781607799
10
2.6011683841109816
20
-1.0955067781607801
10
2.6011683841109807
20
-1.28050677816078
10
2.7561683841109805
20
-1.28050677816078
10
2.756168384110981
20
-1.2655067781607801
10
3.256018653300607
20
-1.2655067781607801
10
3.4984437878954204
20
-0.84561412801084024
10
3.4378220096305094
20
-0.81061412801084032
10
3.4361683841109816
20
-0.81347829142735528
10
3.4361683841109811
20
-0.80965940687200166
10
3.3512194692520656
20
-0.76061412801084038
10
3.3511683841109821
20
-0.76070261007070905
10
3.3511683841109812
20
-0.76058463399088372
10
2.9336683841109812
20
-0.51954089660421554
10
2.9330560397411669
20
-0.51989443379096512
10
2.9333622119260743
20
-0.51936412801084075
10
2.8486683841109817
20
-0.47046612372309726
10
2.8448509589842788
20
-0.47267011514761081
10
2.84675967154763
20
-0.46936412801084049
10
2.7711683841109815
20
-0.4257214778609012
10
2.771168384110982
20
-0.80029207846065908
10
2.7708622119260742
20
-0.80082238424078345
10
2.771168384110982
20
-0.80099915283415823
10
2.7711683841109815
20
-0.94029207846065921
10
2.7710444271813217
20
-0.94050677816078054
10
2.771168384110982
20
-0.94050677816078021
10
2.771168384110982
20
-1.0955067781607803
10
2.9260662138288134
20
-1.0955067781607803
10
2.9261683841109813
20
-1.0954477901208677
10
2.9261683841109818
20
-1.0955067781607806
10
2.9411683841109819
20
-1.0955067781607806
10
2.9411683841109819
20
-1.095447790120867
10
2.9412705543931508
20
-1.0955067781607803
10
3.0960662138288129
20
-1.0955067781607803
10
3.0961683841109813
20
-1.0954477901208677
10
3.0961683841109817
20
-1.0955067781607806
10
3.1111683841109818
20
-1.0955067781607803
10
3.1111683841109818
20
-1.095447790120867
10
3.1112705543931507
20
-1.0955067781607803
10
3.15786910753837
20
-1.0955067781607803
10
3.1811683841109817
20
-1.0551512473574183
10
3.1811683841109817
20
-1.0550332712775932
10
3.1812194692520652
20
-1.0550627652975497
10
3.1887194692520655
20
-1.0420723842407829
10
3.1886683841109815
20
-1.0420428902208263
10
3.1887705543931495
20
-1.0419839021809139
10
3.2661683841109821
20
-0.907926928714065
10
3.2661683841109812
20
-0.90780895263423855
10
2.9411683841109815
20
-0.7201701151476102
10
2.9411683841109815
20
-0.8009991528341579
10
2.9261683841109813
20
-0.79233889879631347
10
2.9261683841109813
20
-0.70284960707192201
10
2.9252803583845215
20
-0.70336230896414098
10
2.918668384110982
20
-0.70717973409084389
10
2.9219743712477513
20
-0.70908844665419513
10
2.9252803583845215
20
-0.70336230896414098
10
2.9261683841109818
20
-0.70182420328748296
10
2.9261683841109818
20
-0.69418935303407725
10
3.2736683841109819
20
-0.89481857157747224
10
3.273770554393149
20
-0.8947595835375598
10
3.2737194692520659
20
-0.89484806559742847
10
3.2845447867993713
20
-0.90109806559742855
10
3.1961683841109814
20
-1.0541704852438858
10
3.1961683841109814
20
-1.0550332712775936
10
3.1954211894877611
20
-1.0554646642944467
10
3.1636426102302675
20
-1.11050677816078
10
2.9673435187057944
20
-1.11050677816078
10
2.9673204681560166
20
-1.1105467028841376
10
2.9672513165066832
20
-1.11050677816078
10
2.9411683841109815
20
-1.11050677816078
10
2.9411683841109815
20
-1.1127682981965559
10
2.9372513165066834
20
-1.1105067781607803
10
2.9300854517152808
20
-1.11050677816078
10
2.9261683841109818
20
-1.1127682981965561
10
2.9261683841109818
20
-1.1105067781607803
10
2.7711683841109815
20
-1.1105067781607803
10
2.7711683841109815
20
-1.1102920784606594
10
2.7710444271813222
20
-1.11050677816078
10
2.7561683841109819
20
-1.1105067781607803
10
2.7561683841109814
20
-0.39974071574736819
10
2.9408622119260737
20
-0.50637374695407444
10
2.9411683841109819
20
-0.50584344117394975
10
2.9411683841109815
20
-0.50655051554744923
10
3.358668384110981
20
-0.74759425293411774
10
3.3587705543931494
20
-0.74753526489420474
10
3.3587194692520659
20
-0.74762374695407441
10
3.5189341689521867
20
-0.84012374695407466
10
3.5964341689521864
20
-0.70588980936748646
10
3.5834437878954195
20
-0.6983898093674864
10
3.8333689224902332
20
-0.26550677816078178
10
3.5909437878954198
20
0.1543858719891604
10
3.5303220096305092
20
0.11938587198916051
10
3.5319756351500371
20
0.11652170857264557
10
3.5286683841109809
20
0.11843115085032184
10
3.4437194692520654
20
0.069385871989160242
10
3.4437705543931494
20
0.069297389929291228
10
3.4436683841109819
20
0.069356377969203561
10
3.0261683841109814
20
-0.17168735941746532
10
3.0261683841109819
20
-0.17239443379096414
10
3.0258622119260741
20
-0.17186412801084011
10
2.9411683841109819
20
-0.2207621322985836
10
2.9411683841109819
20
-0.22517011514760962
10
2.9392596715476302
20
-0.22186412801084002
10
2.8636683841109818
20
-0.26550677816077933
10
3.1880560397411668
20
-0.45279207846065805
10
3.1883622119260746
20
-0.45332238424078247
10
3.1886683841109815
20
-0.45314561564740768
10
3.3092995962709884
20
-0.52279207846065823
10
3.3094235532006482
20
-0.52300677816077923
10
3.3094855316654779
20
-0.52289942831071867
10
3.4437194692520663
20
-0.60039942831071891
10
3.521168384110982
20
-0.46625397278400038
10
3.521168384110982
20
-0.46613599670417433
10
3.521219469252066
20
-0.46616549072413066
10
3.5287194692520663
20
-0.45317510966736402
10
3.5286683841109814
20
-0.45314561564740768
10
3.5287705543931507
20
-0.4530866276074943
10
3.6061683841109811
20
-0.31902965414064588
10
3.606168384110982
20
-0.31891167806081983
10
3.6062194692520664
20
-0.31894117208077649
10
3.6137194692520658
20
-0.30595079102400952
10
3.6136683841109813
20
-0.30592129700405279
10
3.6137705543931506
20
-0.30586230896413941
10
3.6370698309657601
20
-0.26550677816078039
10
3.6137705543931489
20
-0.22515124735741782
10
3.6136683841109813
20
-0.22509225931750548
10
3.6137194692520653
20
-0.22506276529754879
10
3.606219469252065
20
-0.21207238424078245
10
3.6061683841109811
20
-0.21210187826073845
10
3.606168384110982
20
-0.21198390218091379
10
3.5287705543931498
20
-0.077926928714063995
10
3.5286683841109814
20
-0.077867940674150954
10
3.2036683841109816
20
-0.26550677816077967
10
3.2736683841109815
20
-0.30592129700405318
10
3.2586683841109814
20
-0.31458155104189761
10
3.1811683841109817
20
-0.26983690517970155
10
3.1811683841109817
20
-0.27086230896413988
10
3.1811683841109821
20
-0.27849715921754598
10
3.184474371247751
20
-0.27658844665419474
10
3.1811683841109817
20
-0.27086230896413988
10
3.1802803583845209
20
-0.26932420328748219
10
3.1736683841109814
20
-0.26550677816077894
10
3.521168384110982
20
-0.064877559617383937
10
3.521168384110982
20
-0.064759583537559617
10
3.5212194692520655
20
-0.064848065597427951
10
3.5320447867993714
20
-0.05859806559742748
10
3.6204211894877609
20
-0.21167048524388471
10
3.6211683841109821
20
-0.21210187826073915
10
3.6211683841109821
20
-0.21296466429444524
10
3.6529469633684752
20
-0.26800677816077906
10
3.5547974176062391
20
-0.43800677816077904
10
3.5548204681560169
20
-0.438046702884137
10
3.5547513165066831
20
-0.43808662760749428
10
3.5417098503088322
20
-0.46067510966736402
10
3.5436683841109815
20
-0.46180586968525178
10
3.5397513165066834
20
-0.46406738972102729
10
3.5361683841109821
20
-0.4702732106704664
10
3.5361683841109821
20
-0.47479625074201842
10
3.5342098503088328
20
-0.47366549072413067
10
3.4567098503088323
20
-0.60789942831071886
10
3.4565239149143427
20
-0.60779207846065841
10
3.4566478718440026
20
-0.60800677816077864
10
3.4492098503088329
20
-0.6208898093674855
10
2.833668384110982
20
-0.26550677816077967
10
3.0183622119260742
20
-0.1588737469540738
10
3.0180560397411664
20
-0.15834344117394905
10
3.018668384110982
20
-0.15869697836069899
10
3.4361683841109816
20
0.082346759025969871
10
3.4361683841109816
20
0.082464735105795939
10
3.4362194692520656
20
0.082376253045926565
10
3.5964341689521873
20
0.17487625304592569
10
3.5189341689521871
20
0.30911019063251388
10
3.5059437878954207
20
0.30161019063251421
10
3.2560186533006079
20
0.73449322183922061
10
2.7711683841109815
20
0.73449322183922128
10
2.771168384110982
20
0.66449322183922077
10
2.7744756351500373
20
0.66449322183922077
10
2.771168384110982
20
0.66258377956154346
10
2.771168384110982
20
0.56449322183922102
10
2.7712705543931491
20
0.56449322183922035
10
2.771168384110982
20
0.56443423379930757
10
2.771168384110982
20
0.082346759025970578
10
2.7717807284807972
20
0.081993221839221322
10
2.771168384110982
20
0.081993221839220976
10
2.771168384110982
20
-0.015802786736266002
10
2.7749858092376849
20
-0.018006778160778839
10
2.771168384110982
20
-0.01800677816077919
10
2.771168384110982
20
-0.10529207846065813
10
3.0955560397411666
20
0.081993221839220976
10
3.0961683841109822
20
0.081993221839220976
10
3.0961683841109822
20
0.082346759025970578
10
3.2167995962709885
20
0.15199322183922079
10
3.2170475101303078
20
0.15199322183922112
10
3.2169855316654781
20
0.15210057168928162
10
3.3512194692520665
20
0.22960057168928144
10
3.2737705543931499
20
0.36374602721599991
10
3.2736683841109828
20
0.36380501525591291
10
3.2737194692520668
20
0.36383450927586963
10
3.2662194692520665
20
0.37682489033263628
10
3.2661683841109821
20
0.37679539631267928
10
3.2661683841109821
20
0.376913372392506
10
3.1887705543931508
20
0.51097034585935441
10
3.1886683841109829
20
0.51102933389926775
10
3.1887194692520668
20
0.51105882791922419
10
3.1812194692520661
20
0.52404920897599083
10
3.1811683841109817
20
0.52401971495603372
10
3.1811683841109817
20
0.52413769103586128
10
3.1578691075383718
20
0.56449322183922035
10
3.1112705543931494
20
0.56449322183922035
10
3.1111683841109818
20
0.56443423379930757
10
3.1111683841109818
20
0.56449322183922035
10
3.0961683841109817
20
0.56449322183922035
10
3.0961683841109817
20
0.56443423379930757
10
3.0960662138288138
20
0.56449322183922035
10
2.9412705543931503
20
0.56449322183922168
10
2.9411683841109819
20
0.56443423379930757
10
2.9411683841109819
20
0.1891565588260509
10
3.0111683841109818
20
0.22957107766932475
10
3.0111683841109818
20
0.21225056959363583
10
2.9336683841109825
20
0.16750592373144049
10
2.9345564098374424
20
0.1669932218392208
10
2.9411683841109819
20
0.16317579671251825
10
2.9411683841109819
20
0.1669932218392208
10
2.9345564098374424
20
0.1669932218392208
10
2.9327803583845213
20
0.1669932218392208
10
2.9261683841109818
20
0.16317579671251792
10
2.9261683841109818
20
0.56443423379930835
10
2.9260662138288147
20
0.56449322183922035
10
2.9261683841109813
20
0.56449322183922102
10
2.9261683841109818
20
0.57699322183922053
10
3.1029211894877604
20
0.57699322183922053
10
3.1036683841109824
20
0.57742461485607499
10
3.1044155787342023
20
0.57699322183922119
10
3.1679727372491895
20
0.57699322183922053
10
3.266122283011426
20
0.40699322183922093
10
3.2661683841109821
20
0.40699322183922054
10
3.2661683841109821
20
0.40691337239250569
10
3.2792098503088325
20
0.38432489033263562
10
3.2811683841109822
20
0.38545565035052337
10
3.2811683841109822
20
0.38093261027897235
10
3.2847513165066831
20
0.37472678932953357
10
3.2886683841109821
20
0.3724652692937574
10
3.2867098503088328
20
0.37133450927586931
10
3.3642098503088325
20
0.23710057168928109
10
3.3640239149143434
20
0.23699322183922059
10
3.3642718287736622
20
0.23699322183922095
10
3.3717098503088323
20
0.22411019063251478
10
2.7561683841109823
20
-0.13127284057419147
10
2.7561683841109823
20
0.081993221839220629
10
2.7555560397411663
20
0.081993221839220976
10
2.7561683841109823
20
0.082346759025970218
10
2.7561683841109823
20
0.56443423379930757
10
2.7560662138288139
20
0.56449322183922102
10
2.7561683841109823
20
0.56449322183922102
10
2.7561683841109823
20
0.74949322183922129
10
2.6011683841109821
20
0.74949322183922062
10
2.6011683841109825
20
0.73449322183922061
10
2.1013181149213573
20
0.73449322183922128
10
1.8588929803265426
20
0.31460057168928124
10
1.9195147585914534
20
0.27960057168928099
10
1.9211683841109812
20
0.28246473510579595
10
1.9211683841109819
20
0.27864585055044233
10
2.0061172989698974
20
0.22960057168928108
10
2.0061683841109814
20
0.22968905374915011
10
2.0061683841109819
20
0.22957107766932475
10
2.4236683841109814
20
-0.01147265971734413
10
2.4242807284807966
20
-0.011119122530594536
10
2.4239745562958888
20
-0.011649428310718577
10
2.5086683841109814
20
-0.06054743259846207
10
2.5124858092376843
20
-0.058343441173948879
10
2.510577096674333
20
-0.061649428310718839
10
2.5861683841109815
20
-0.10529207846065813
10
2.5861683841109815
20
0.26927852213909975
10
2.5864745562958888
20
0.26980882791922378
10
2.5861683841109815
20
0.26998559651259857
10
2.5861683841109819
20
0.40927852213909971
10
2.5862923410406413
20
0.40949322183922066
10
2.5861683841109819
20
0.40949322183922066
10
2.5861683841109815
20
0.56449322183922046
10
2.4312705543931497
20
0.56449322183922079
10
2.4311683841109817
20
0.56443423379930813
10
2.4311683841109817
20
0.56449322183922079
10
2.4161683841109816
20
0.56449322183922079
10
2.4161683841109816
20
0.56443423379930746
10
2.4160662138288127
20
0.56449322183922079
10
2.2612705543931502
20
0.56449322183922068
10
2.2611683841109818
20
0.56443423379930791
10
2.2611683841109818
20
0.56449322183922113
10
2.2461683841109821
20
0.56449322183922079
10
2.2461683841109821
20
0.56443423379930746
10
2.2460662138288123
20
0.56449322183922079
10
2.1994676606835935
20
0.56449322183922113
10
2.1761683841109813
20
0.52413769103585861
10
2.1761683841109822
20
0.52401971495603361
10
2.1761172989698974
20
0.52404920897598994
10
2.168617298969898
20
0.5110588279192233
10
2.1686683841109815
20
0.51102933389926652
10
2.168566213828814
20
0.51097034585935464
10
2.0911683841109814
20
0.3769133723925055
10
2.0911683841109818
20
0.37679539631267905
10
2.416168384110982
20
0.1891565588260509
10
2.4161683841109816
20
0.26998559651259824
10
2.4311683841109817
20
0.26132534247475381
10
2.4311683841109817
20
0.17183605075036235
10
2.432056409837442
20
0.17234875264258134
10
2.4386683841109815
20
0.17616617776928459
10
2.4353623969742118
20
0.17807489033263585
10
2.432056409837442
20
0.17234875264258134
10
2.4311683841109817
20
0.17081064696592332
10
2.4311683841109817
20
0.16317579671251756
10
2.0836683841109811
20
0.36380501525591274
10
2.083566213828814
20
0.36374602721600041
10
2.0836172989698976
20
0.36383450927586874
10
2.0727919814225917
20
0.37008450927586889
10
2.1611683841109812
20
0.52315692892232613
10
2.1611683841109812
20
0.52401971495603394
10
2.1619155787342019
20
0.52445110797288697
10
2.193694157991696
20
0.5794932218392207
10
2.3899932495161686
20
0.57949322183922081
10
2.390016300065946
20
0.57953314656257804
10
2.3900854517152799
20
0.57949322183922047
10
2.4161683841109816
20
0.57949322183922047
10
2.4161683841109816
20
0.58175474187499598
10
2.4200854517152797
20
0.57949322183922047
10
2.4272513165066822
20
0.57949322183922047
10
2.4311683841109817
20
0.58175474187499665
10
2.4311683841109817
20
0.57949322183922047
10
2.5861683841109819
20
0.57949322183922047
10
2.5861683841109819
20
0.57927852213909947
10
2.5862923410406413
20
0.57949322183922014
10
2.6011683841109816
20
0.57949322183922047
10
2.6011683841109816
20
-0.13127284057419111
10
2.4164745562958894
20
-0.024639809367484895
10
2.4161683841109816
20
-0.025170115147609636
10
2.4161683841109816
20
-0.024463040774110097
10
1.9986683841109818
20
0.21658069661255841
10
1.9985662138288132
20
0.21652170857264574
10
1.9986172989698971
20
0.2166101906325151
10
1.838402599269777
20
0.3091101906325156
10
1.7609025992697764
20
0.17487625304592744
10
1.7738929803265431
20
0.16737625304592743
0
LWPOLYLINE
5
114
100
AcDbEntity
8
0
100
AcDbPolyline
90
276
70
1
43
0.0
10
1.6047968834182778
20
-0.26550677816077722
10
1.7495147585914537
20
-0.014848065597426642
10
1.7511683841109815
20
-0.015802786736264954
10
1.7511683841109815
20
-0.011983902180911703
10
1.8253611330719262
20
0.11652170857264661
10
1.8286683841109821
20
0.11843115085032324
10
1.8270147585914542
20
0.11938587198916155
10
1.8403611330719265
20
0.14250247068617961
10
1.8442502376525352
20
0.14474784626270076
10
1.8429538694589991
20
0.14699322183922195
10
1.8770147585914538
20
0.2059884123676039
10
2.6711683841109815
20
-0.2525163971040123
10
2.6711683841109815
20
0.041932240182696381
10
2.66918925599601
20
0.043074890332635771
10
2.6711683841109815
20
0.046502840782453952
10
2.6711683841109815
20
0.64949322183922042
10
2.6093863518082268
20
0.64949322183922065
10
2.6092502376525344
20
0.64925746520593242
10
2.6088418951854586
20
0.64949322183922076
10
2.3322582225972059
20
0.64949322183922076
10
2.3311683841109816
20
0.64760556620903564
10
2.3311683841109816
20
0.64949322183922065
10
2.1503928878024747
20
0.64949322183922065
10
1.97500513964822
20
0.3457127310109584
10
2.1836683841109812
20
0.2252409506504025
10
2.1863642160209111
20
0.2267973899292906
10
2.1850163000659459
20
0.22446273101095848
10
2.2456380783308569
20
0.18946273101095856
10
2.2461683841109816
20
0.19038124756568159
10
2.2461683841109812
20
0.18915655882605126
10
2.5011683841109811
20
0.041932240182696381
10
2.5011683841109811
20
0.47949322183922066
10
2.4240462357497954
20
0.479493221839221
10
2.4236683841109814
20
0.47927506909383788
10
2.4232905324721674
20
0.479493221839221
10
2.3311683841109816
20
0.479493221839221
10
2.3311683841109816
20
0.49449322183922101
10
2.5161683841109812
20
0.49449322183922068
10
2.5161683841109812
20
0.31906036939371685
10
2.5170564098374415
20
0.31957307128593587
10
2.5161683841109816
20
0.31803496560927891
10
2.5161683841109812
20
0.015951478069163045
10
2.2386683841109813
20
0.17616617776928459
10
2.2376077725507333
20
0.17555383339946959
10
2.2381380783308571
20
0.17647234995419189
10
1.9545147585914537
20
0.34022234995419143
10
2.1417326337646316
20
0.66449322183922077
10
2.4311683841109826
20
0.66449322183922077
10
2.431168384110983
20
0.66258377956154491
10
2.4344756351500387
20
0.66449322183922077
10
2.5828611330719271
20
0.66449322183922077
10
2.5861683841109833
20
0.66258377956154424
10
2.5861683841109833
20
0.66449322183922077
10
2.6128611330719269
20
0.66449322183922155
10
2.616750237652536
20
0.66224784626269995
10
2.6180466058460721
20
0.66449322183922077
10
2.686168384110982
20
0.66449322183922077
10
2.6861683841109825
20
-0.2525163971040123
10
2.9411683841109815
20
-0.10529207846065813
10
2.9411683841109819
20
-0.10300677816077899
10
2.9451266403409244
20
-0.10300677816077899
10
3.467331628573743
20
0.19848841236760426
10
3.4364406124223659
20
0.25199322183922096
10
3.4361683841109816
20
0.25199322183922096
10
3.4361683841109816
20
0.25246473510579698
10
3.2978765478168555
20
0.4919932218392214
10
3.2956968708444063
20
0.49199322183922073
10
3.2973316285737435
20
0.49293704965431329
10
3.2069438804194896
20
0.64949322183922076
10
2.8561683841109815
20
0.64949322183922076
10
2.8561683841109815
20
0.4085496611181097
10
2.858864216020911
20
0.40699322183922126
10
2.8561683841109815
20
0.40699322183922126
10
2.8561683841109815
20
0.33699322183922109
10
2.8572289956712309
20
0.33699322183922109
10
2.8561683841109815
20
0.33638087746940576
10
2.8561683841109815
20
0.041932240182696381
10
3.2351073099303891
20
0.26071273101095893
10
3.1965462357497954
20
0.32750247068617855
10
3.1961683841109823
20
0.32772062343156166
10
3.1961683841109823
20
0.32815692892232795
10
3.1501073099303887
20
0.40793704965431349
10
3.1630976909871551
20
0.41543704965431349
10
3.2555976909871558
20
0.25522234995419196
10
3.1036683841109824
20
0.16750592373144013
10
3.1045564098374423
20
0.16699322183922113
10
3.1027803583845222
20
0.1669932218392208
10
2.8411683841109818
20
0.015951478069163395
10
2.8411683841109818
20
0.33638087746940576
10
2.8401077725507333
20
0.33699322183922109
10
2.8411683841109818
20
0.33699322183922109
10
2.8411683841109814
20
0.66449322183922077
10
3.2156041344573341
20
0.66449322183922011
10
3.3603220096305089
20
0.41383450927586951
10
3.3586683841109819
20
0.41287978813703125
10
3.3619756351500381
20
0.41097034585935494
10
3.4361683841109825
20
0.28246473510579662
10
3.4361683841109825
20
0.27864585055044339
10
3.4378220096305094
20
0.27960057168928099
10
3.4511683841109821
20
0.25648397299226328
10
3.4511683841109817
20
0.25199322183922096
10
3.4537611204980543
20
0.25199322183922096
10
3.4878220096305093
20
0.1929980313108369
10
2.6936683841109819
20
-0.26550677816077933
10
2.9486683841109818
20
-0.41273109680413383
10
2.9506475122259532
20
-0.41158844665419442
10
2.9526266403409243
20
-0.41501639710401261
10
3.4748316285737433
20
-0.71651158763239586
10
3.5057226447251209
20
-0.66300677816077946
10
3.5055865305694285
20
-0.66277102152749134
10
3.5059948730365051
20
-0.66253526489420356
10
3.6442867093306313
20
-0.42300677816077903
10
3.6431968708444065
20
-0.4211191225305943
10
3.6448316285737432
20
-0.42206295034568719
10
3.7352193767279966
20
-0.26550677816077967
10
3.5598316285737428
20
0.03827371266748307
10
3.3511683841109821
20
-0.082198067693072488
10
3.3511683841109821
20
-0.08531094625084866
10
3.3498204681560169
20
-0.082976287332516871
10
3.2891986898911059
20
-0.11797628733251712
10
3.2897289956712301
20
-0.1188948038872398
10
3.2886683841109821
20
-0.1182824595174248
10
3.0336683841109817
20
-0.26550677816077933
10
3.4126073099303889
20
-0.48428726898904118
10
3.4511683841109817
20
-0.41749752931382161
10
3.4511683841109817
20
-0.41706122382305572
10
3.4515462357497961
20
-0.41684307107767254
10
3.4976073099303884
20
-0.33706295034568667
10
3.5105976909871557
20
-0.34456295034568668
10
3.4180976909871554
20
-0.50477765004580788
10
3.2661683841109821
20
-0.41706122382305605
10
3.2661683841109821
20
-0.41808662760749404
10
3.2652803583845218
20
-0.41654852193083708
10
3.0036683841109815
20
-0.26550677816077894
10
3.2811683841109822
20
-0.10529207846065813
10
3.2811683841109822
20
-0.10406738972102778
10
3.2816986898911056
20
-0.10498590627575045
10
3.5653220096305089
20
0.058764093724249393
10
3.7525398848036846
20
-0.26550677816078178
10
3.6078220096305089
20
-0.51616549072413231
10
3.6061683841109811
20
-0.51521076958529433
10
3.6061683841109811
20
-0.51902965414064728
10
3.5319756351500371
20
-0.64753526489420565
10
3.5286683841109809
20
-0.64944470717188219
10
3.5303220096305088
20
-0.65039942831072051
10
3.516975635150037
20
-0.6735160270077386
10
3.5130865305694283
20
-0.6757614025842601
10
3.5143828987629639
20
-0.67800677816078092
10
3.480322009630509
20
-0.73700196868916323
10
2.6861683841109816
20
-0.27849715921754736
10
2.6861683841109816
20
-0.5729457965042557
10
2.6881475122259531
20
-0.57408844665419545
10
2.6861683841109816
20
-0.57751639710401359
10
2.6861683841109816
20
-1.1805067781607803
10
2.7479504164137367
20
-1.1805067781607805
10
2.7480865305694286
20
-1.1802710215274923
10
2.7484948730365049
20
-1.1805067781607808
10
3.0250785456247575
20
-1.1805067781607805
10
3.0261683841109819
20
-1.1786191225305953
10
3.0261683841109819
20
-1.1805067781607803
10
3.2069438804194887
20
-1.1805067781607801
10
3.3823316285737435
20
-0.87672628733251778
10
3.1736683841109823
20
-0.75625450697196184
10
3.1709725522010523
20
-0.75781094625084955
10
3.1723204681560171
20
-0.75547628733251782
10
3.1116986898911061
20
-0.7204762873325179
10
3.1111683841109818
20
-0.72139480388724098
10
3.1111683841109818
20
-0.7201701151476102
10
2.8561683841109815
20
-0.5729457965042557
10
2.856168384110982
20
-1.0105067781607806
10
2.9332905324721676
20
-1.0105067781607802
10
2.9336683841109821
20
-1.0102886254153978
10
2.9340462357497961
20
-1.0105067781607808
10
3.0261683841109819
20
-1.0105067781607802
10
3.0261683841109819
20
-1.0255067781607807
10
2.8411683841109814
20
-1.0255067781607805
10
2.8411683841109814
20
-0.85007392571527651
10
2.8402803583845215
20
-0.85058662760749559
10
2.8411683841109814
20
-0.84904852193083824
10
2.8411683841109814
20
-0.54696503439072275
10
3.1186683841109817
20
-0.70717973409084389
10
3.1197289956712302
20
-0.70656738972102895
10
3.1191986898911059
20
-0.70748590627575159
10
3.4028220096305093
20
-0.87123590627575109
10
3.2156041344573327
20
-1.1955067781607802
10
2.9261683841109822
20
-1.1955067781607798
10
2.9261683841109822
20
-1.1935973358831038
10
2.9228611330719261
20
-1.1955067781607804
10
2.7744756351500377
20
-1.1955067781607804
10
2.771168384110982
20
-1.1935973358831038
10
2.7711683841109815
20
-1.1955067781607798
10
2.7444756351500375
20
-1.1955067781607804
10
2.7405865305694288
20
-1.1932614025842594
10
2.7392901623758927
20
-1.1955067781607802
10
2.6711683841109815
20
-1.1955067781607795
10
2.671168384110981
20
-0.27849715921754686
10
2.4161683841109816
20
-0.4257214778609012
10
2.4161683841109816
20
-0.42800677816078031
10
2.4122101278810391
20
-0.42800677816078009
10
1.8900051396482203
20
-0.72950196868916362
10
1.9208961557995976
20
-0.78300677816078046
10
1.9211683841109819
20
-0.78300677816078024
10
1.9211683841109817
20
-0.78347829142735637
10
2.059460220405108
20
-1.0230067781607803
10
2.0616398973775572
20
-1.0230067781607803
10
2.06000513964822
20
-1.0239506059758727
10
2.1503928878024738
20
-1.1805067781607799
10
2.501168384110982
20
-1.1805067781607799
10
2.501168384110982
20
-0.93956321743966831
10
2.498472552201052
20
-0.93800677816078026
10
2.501168384110982
20
-0.93800677816078026
10
2.5011683841109815
20
-0.86800677816078009
10
2.500107772550733
20
-0.86800677816078009
10
2.5011683841109815
20
-0.86739443379096504
10
2.5011683841109815
20
-0.5729457965042557
10
2.1222294582915748
20
-0.79172628733251826
10
2.1607905324721677
20
-0.85851602700773788
10
2.1611683841109817
20
-0.85873417975312094
10
2.1611683841109817
20
-0.85917048524388728
10
2.2072294582915748
20
-0.93895060597587277
10
2.1942390772348079
20
-0.94645060597587294
10
2.1017390772348081
20
-0.78623590627575168
10
2.2536683841109815
20
-0.69851948005299969
10
2.2527803583845216
20
-0.69800677816078049
10
2.2545564098374418
20
-0.69800677816078038
10
2.5161683841109816
20
-0.54696503439072264
10
2.5161683841109816
20
-0.86739443379096504
10
2.5172289956712302
20
-0.86800677816078009
10
2.5161683841109816
20
-0.86800677816078009
10
2.5161683841109821
20
-1.1955067781607795
10
2.1417326337646294
20
-1.1955067781607795
10
1.9970147585914542
20
-0.94484806559742884
10
1.9986683841109818
20
-0.94389334445859074
10
1.9953611330719256
20
-0.94198390218091432
10
1.9211683841109817
20
-0.81347829142735595
10
1.9211683841109817
20
-0.80965940687200266
10
1.9195147585914538
20
-0.81061412801084065
10
1.9061683841109816
20
-0.78749752931382266
10
1.9061683841109816
20
-0.78300677816078035
10
1.9035756477239094
20
-0.78300677816078035
10
1.8695147585914531
20
-0.72401158763239515
10
2.6636683841109807
20
-0.26550677816077933
10
2.4086683841109813
20
-0.1182824595174248
10
2.4066892559960098
20
-0.11942510966736419
10
2.4047101278810388
20
-0.11599715921754601
10
1.8825051396482197
20
0.18549803131083795
10
1.851614123496842
20
0.13199322183922124
10
1.8517502376525345
20
0.1317574652059334
10
1.8513418951854581
20
0.13152170857264558
10
1.7130500588913316
20
-0.10800677816077889
10
1.7141398973775566
20
-0.10989443379096366
10
1.7125051396482194
20
-0.1089506059758711
10
1.6221173914939664
20
-0.26550677816077861
10
1.7975051396482196
20
-0.56928726898904136
10
2.006168384110981
20
-0.4488154886284858
10
2.006168384110981
20
-0.44570261007070999
10
2.0075163000659462
20
-0.44803726898904178
10
2.0681380783308563
20
-0.41303726898904153
10
2.067607772550732
20
-0.4121187524343185
10
2.068668384110981
20
-0.41273109680413383
10
2.3236683841109813
20
-0.26550677816077933
10
1.9447294582915742
20
-0.046726287332516742
10
1.9061683841109811
20
-0.11351602700773666
10
1.9061683841109804
20
-0.11395233249850258
10
1.9057905324721667
20
-0.11417048524388501
10
1.859729458291574
20
-0.1939506059758716
10
1.8467390772348069
20
-0.18645060597587124
10
1.9392390772348076
20
-0.026235906275750068
10
2.0911683841109809
20
-0.11395233249850223
10
2.0911683841109809
20
-0.11292692871406425
10
2.0920564098374412
20
-0.11446503439072123
10
2.3536683841109811
20
-0.26550677816077933
10
2.0761683841109808
20
-0.42572147786090014
10
2.0761683841109808
20
-0.42694616660053047
10
2.0756380783308566
20
-0.42602765004580784
10
1.7920147585914534
20
-0.58977765004580729
0
LWPOLYLINE
5
115
100
AcDbEntity
8
0
100
AcDbPolyline
90
3
70
1
43
0.0
10
2.4161683841109811
20
-0.13127284057419147
10
2.4161683841109816
20
-0.13584344117394939
10
2.4141892559960096
20
-0.13241549072413086
0
LWPOLYLINE
5
116
100
AcDbEntity
8
0
100
AcDbPolyline
90
3
70
1
43
0.0
10
2.0053834539073776
20
-0.47434307107767321
10
2.006168384110981
20
-0.47479625074201842
10
2.0061683841109805
20
-0.47570261007070896
0
LWPOLYLINE
5
117
100
AcDbEntity
8
0
100
AcDbPolyline
90
3
70
1
43
0.0
10
2.6636683841109812
20
0.028941859125929715
10
2.6597101278810387
20
0.026656558826050929
10
2.6616892559960101
20
0.030084509275869104
0
LWPOLYLINE
5
118
100
AcDbEntity
8
0
100
AcDbPolyline
90
3
70
1
43
0.0
10
2.1611683841109812
20
0.21315692892232704
10
2.1611683841109812
20
0.21225056959363583
10
2.1603834539073787
20
0.21179738992929059
0
LWPOLYLINE
5
119
100
AcDbEntity
8
0
100
AcDbPolyline
90
3
70
1
43
0.0
10
2.9261683841109818
20
-0.10529207846065779
10
2.9222101278810393
20
-0.10300677816077936
10
2.9261683841109818
20
-0.10300677816077899
0
LWPOLYLINE
5
120
100
AcDbEntity
8
0
100
AcDbPolyline
90
3
70
1
43
0.0
10
2.8344533143145854
20
0.42199322183922094
10
2.833668384110982
20
0.42154004217487567
10
2.8328834539073791
20
0.42199322183922094
0
LWPOLYLINE
5
121
100
AcDbEntity
8
0
100
AcDbPolyline
90
3
70
1
43
0.0
10
2.9411683841109819
20
-0.39974071574736714
10
2.9411683841109819
20
-0.39517011514760958
10
2.9431475122259534
20
-0.39859806559742778
0
LWPOLYLINE
5
122
100
AcDbEntity
8
0
100
AcDbPolyline
90
3
70
1
43
0.0
10
3.351953314314585
20
-0.056670485243885099
10
3.3511683841109821
20
-0.056217305579539849
10
3.3511683841109821
20
-0.055310946250849341
0
LWPOLYLINE
5
123
100
AcDbEntity
8
0
100
AcDbPolyline
90
3
70
1
43
0.0
10
2.6936683841109814
20
-0.55995541544748939
10
2.6976266403409244
20
-0.55767011514761022
10
2.6956475122259529
20
-0.56109806559742881
0
LWPOLYLINE
5
124
100
AcDbEntity
8
0
100
AcDbPolyline
90
3
70
1
43
0.0
10
3.1961683841109814
20
-0.7441704852438864
10
3.1961683841109814
20
-0.74326412591519553
10
3.1969533143145847
20
-0.74281094625085031
0
LWPOLYLINE
5
125
100
AcDbEntity
8
0
100
AcDbPolyline
90
3
70
1
43
0.0
10
2.4311683841109817
20
-0.42572147786090137
10
2.4351266403409242
20
-0.42800677816078014
10
2.4311683841109817
20
-0.42800677816078014
0
LWPOLYLINE
5
126
100
AcDbEntity
8
0
100
AcDbPolyline
90
3
70
1
43
0.0
10
2.5228834539073781
20
-0.95300677816078028
10
2.5236683841109815
20
-0.95255359849643462
10
2.5244533143145844
20
-0.95300677816077994
0
LWPOLYLINE
5
127
100
AcDbEntity
8
0
100
AcDbPolyline
90
504
70
1
43
0.0
10
1.5239678457317301
20
-0.26550677816077722
10
1.7663929803265421
20
-0.68539942831071909
10
1.8270147585914529
20
-0.6503994283107184
10
1.825361133071925
20
-0.64753526489420388
10
1.8286683841109814
20
-0.64944470717187974
10
1.9136172989698974
20
-0.60039942831071857
10
1.9135662138288134
20
-0.60031094625084991
10
1.9136683841109816
20
-0.6003699342907618
10
2.3311683841109812
20
-0.35932619690409334
10
2.3311683841109812
20
-0.35861912253059447
10
2.3314745562958885
20
-0.35914942831071889
10
2.4161683841109811
20
-0.3102514240229754
10
2.4161683841109807
20
-0.30584344117394868
10
2.4180770966743328
20
-0.30914942831071862
10
2.4936683841109812
20
-0.26550677816077933
10
2.1692807284807958
20
-0.078221477860900557
10
2.1689745562958884
20
-0.077691172080775805
10
2.1686683841109806
20
-0.077867940674150954
10
2.0480371719509747
20
-0.0082214778609000505
10
2.0479132150213144
20
-0.0080067781607787176
10
2.0478512365564847
20
-0.0081141280108399088
10
1.913617298969897
20
0.069385871989160242
10
1.836168384110981
20
-0.06475958353755823
10
1.8361683841109808
20
-0.06487755961738359
10
1.8361172989698968
20
-0.064848065597427604
10
1.8286172989698968
20
-0.07783844665419426
10
1.8286683841109814
20
-0.077867940674150954
10
1.8285662138288126
20
-0.077926928714063995
10
1.7511683841109813
20
-0.21198390218091204
10
1.7511683841109809
20
-0.21210187826073812
10
1.7511172989698962
20
-0.21207238424078176
10
1.743617298969897
20
-0.22506276529754843
10
1.7436683841109808
20
-0.22509225931750512
10
1.7435662138288124
20
-0.22515124735741884
10
1.7202669372562029
20
-0.26550677816077789
10
1.7435662138288137
20
-0.30586230896414013
10
1.7436683841109812
20
-0.30592129700405279
10
1.7436172989698973
20
-0.30595079102400913
10
1.7511172989698978
20
-0.31894117208077583
10
1.7511683841109815
20
-0.31891167806081949
10
1.7511683841109813
20
-0.31902965414064482
10
1.8285662138288121
20
-0.45308662760749463
10
1.8286683841109814
20
-0.4531456156474073
10
2.1536683841109814
20
-0.26550677816077933
10
2.0836683841109815
20
-0.22509225931750548
10
2.0986683841109817
20
-0.21643200527966103
10
2.1761683841109809
20
-0.26117665114185673
10
2.1761683841109809
20
-0.26015124735741874
10
2.1761683841109805
20
-0.25251639710401302
10
2.1728623969742116
20
-0.25442510966736426
10
2.1761683841109809
20
-0.26015124735741874
10
2.1770564098374416
20
-0.26168935303407642
10
2.1836683841109812
20
-0.26550677816077933
10
1.8361683841109808
20
-0.46613599670417399
10
1.8361683841109808
20
-0.46625397278399899
10
1.8361172989698968
20
-0.46616549072413105
10
1.8252919814225916
20
-0.47241549072413047
10
1.7369155787342023
20
-0.31934307107767324
10
1.736168384110981
20
-0.3189116780608191
10
1.736168384110981
20
-0.31804889202711234
10
1.7043898048534878
20
-0.26300677816077883
10
1.8025393506157243
20
-0.093006778160779222
10
1.8025163000659465
20
-0.092966853437421268
10
1.80258545171528
20
-0.092926928714063994
10
1.8156269179131308
20
-0.070338446654194267
10
1.8136683841109813
20
-0.069207686636306165
10
1.8175854517152796
20
-0.066946166600530668
10
1.8211683841109811
20
-0.06074034565109189
10
1.8211683841109811
20
-0.056217305579539849
10
1.8231269179131302
20
-0.057348065597427597
10
1.9006269179131308
20
0.076885871989160595
10
1.9008128533076203
20
0.076778522139100108
10
1.9006888963779602
20
0.076993221839220388
10
1.9081269179131304
20
0.089876253045926918
10
2.523668384110981
20
-0.26550677816077933
10
2.3389745562958888
20
-0.37213980936748486
10
2.3392807284807962
20
-0.37267011514760995
10
2.338668384110981
20
-0.37231657796085965
10
1.9211683841109812
20
-0.61336031534752811
10
1.9211683841109808
20
-0.61347829142735455
10
1.9211172989698966
20
-0.61338980936748522
10
1.7609025992697762
20
-0.70588980936748535
10
1.8384025992697759
20
-0.84012374695407355
10
1.8513929803265425
20
-0.8326237469540736
10
2.1013181149213556
20
-1.2655067781607798
10
2.5861683841109819
20
-1.2655067781607801
10
2.5861683841109819
20
-1.1955067781607798
10
2.5828611330719262
20
-1.19550677816078
10
2.5861683841109819
20
-1.1935973358831027
10
2.5861683841109819
20
-1.0955067781607799
10
2.5860662138288144
20
-1.0955067781607797
10
2.5861683841109819
20
-1.0954477901208668
10
2.5861683841109815
20
-0.61336031534752944
10
2.5855560397411663
20
-0.61300677816078009
10
2.5861683841109815
20
-0.6130067781607802
10
2.5861683841109815
20
-0.5152107695852931
10
2.5823509589842786
20
-0.51300677816078011
10
2.5861683841109815
20
-0.51300677816078
10
2.5861683841109815
20
-0.42572147786090109
10
2.2617807284807965
20
-0.61300677816078031
10
2.2611683841109813
20
-0.6130067781607802
10
2.2611683841109813
20
-0.61336031534752977
10
2.1405371719509749
20
-0.68300677816078026
10
2.1402892580916553
20
-0.68300677816078026
10
2.1403512365564854
20
-0.68311412801084082
10
2.0061172989698974
20
-0.76061412801084094
10
2.0835662138288136
20
-0.89475958353755958
10
2.0836683841109811
20
-0.89481857157747224
10
2.0836172989698971
20
-0.89484806559742891
10
2.0911172989698974
20
-0.90783844665419566
10
2.0911683841109818
20
-0.90780895263423889
10
2.0911683841109818
20
-0.90792692871406566
10
2.1685662138288131
20
-1.0419839021809134
10
2.1686683841109815
20
-1.0420428902208267
10
2.1686172989698971
20
-1.0420723842407835
10
2.1761172989698974
20
-1.0550627652975499
10
2.1761683841109818
20
-1.0550332712775932
10
2.1761683841109822
20
-1.0551512473574205
10
2.1994676606835917
20
-1.0955067781607795
10
2.2460662138288146
20
-1.0955067781607799
10
2.2461683841109821
20
-1.0954477901208668
10
2.2461683841109821
20
-1.0955067781607799
10
2.2611683841109818
20
-1.0955067781607795
10
2.2611683841109822
20
-1.095447790120867
10
2.2612705543931493
20
-1.0955067781607799
10
2.4160662138288131
20
-1.0955067781607801
10
2.416168384110982
20
-1.0954477901208668
10
2.4161683841109816
20
-0.72017011514761009
10
2.3461683841109817
20
-0.76058463399088394
10
2.3461683841109817
20
-0.74326412591519508
10
2.4236683841109814
20
-0.69851948005299935
10
2.4227803583845211
20
-0.69800677816078016
10
2.4161683841109816
20
-0.69418935303407747
10
2.4161683841109816
20
-0.69800677816078005
10
2.4227803583845211
20
-0.69800677816078016
10
2.4245564098374421
20
-0.69800677816078005
10
2.4311683841109817
20
-0.69418935303407714
10
2.4311683841109817
20
-1.0954477901208675
10
2.4312705543931488
20
-1.0955067781607799
10
2.4311683841109817
20
-1.0955067781607799
10
2.4311683841109817
20
-1.1080067781607801
10
2.2544155787342031
20
-1.1080067781607801
10
2.2536683841109815
20
-1.1084381711776339
10
2.2529211894877617
20
-1.1080067781607807
10
2.189364030972774
20
-1.1080067781607803
10
2.0912144852105374
20
-0.93800677816078026
10
2.0911683841109818
20
-0.93800677816078026
10
2.0911683841109818
20
-0.93792692871406502
10
2.078126917913131
20
-0.91533844665419528
10
2.0761683841109817
20
-0.91646920667208298
10
2.0761683841109817
20
-0.91194616660053207
10
2.0725854517152809
20
-0.90574034565109296
10
2.0686683841109814
20
-0.90347882561531689
10
2.0706269179131311
20
-0.90234806559742897
10
1.9931269179131308
20
-0.76811412801084067
10
1.9933128533076205
20
-0.76800677816078022
10
1.9930649394483015
20
-0.76800677816078022
10
1.9856269179131307
20
-0.75512374695407425
10
2.6011683841109812
20
-0.39974071574736803
10
2.6011683841109812
20
-0.61300677816078009
10
2.6017807284807968
20
-0.61300677816077997
10
2.6011683841109812
20
-0.61336031534752977
10
2.6011683841109816
20
-1.0954477901208668
10
2.6012705543931496
20
-1.0955067781607799
10
2.6011683841109816
20
-1.0955067781607801
10
2.6011683841109807
20
-1.28050677816078
10
2.7561683841109805
20
-1.28050677816078
10
2.756168384110981
20
-1.2655067781607801
10
3.256018653300607
20
-1.2655067781607801
10
3.4984437878954204
20
-0.84561412801084024
10
3.4378220096305094
20
-0.81061412801084032
10
3.4361683841109816
20
-0.81347829142735528
10
3.4361683841109811
20
-0.80965940687200166
10
3.3512194692520656
20
-0.76061412801084038
10
3.3511683841109821
20
-0.76070261007070905
10
3.3511683841109812
20
-0.76058463399088372
10
2.9336683841109812
20
-0.51954089660421554
10
2.9330560397411669
20
-0.51989443379096512
10
2.9333622119260743
20
-0.51936412801084075
10
2.8486683841109817
20
-0.47046612372309726
10
2.8448509589842788
20
-0.47267011514761081
10
2.84675967154763
20
-0.46936412801084049
10
2.7711683841109815
20
-0.4257214778609012
10
2.771168384110982
20
-0.80029207846065908
10
2.7708622119260742
20
-0.80082238424078345
10
2.771168384110982
20
-0.80099915283415823
10
2.7711683841109815
20
-0.94029207846065921
10
2.7710444271813217
20
-0.94050677816078054
10
2.771168384110982
20
-0.94050677816078021
10
2.771168384110982
20
-1.0955067781607803
10
2.9260662138288134
20
-1.0955067781607803
10
2.9261683841109813
20
-1.0954477901208677
10
2.9261683841109818
20
-1.0955067781607806
10
2.9411683841109819
20
-1.0955067781607806
10
2.9411683841109819
20
-1.095447790120867
10
2.9412705543931508
20
-1.0955067781607803
10
3.0960662138288129
20
-1.0955067781607803
10
3.0961683841109813
20
-1.0954477901208677
10
3.0961683841109817
20
-1.0955067781607806
10
3.1111683841109818
20
-1.0955067781607803
10
3.1111683841109818
20
-1.095447790120867
10
3.1112705543931507
20
-1.0955067781607803
10
3.15786910753837
20
-1.0955067781607803
10
3.1811683841109817
20
-1.0551512473574183
10
3.1811683841109817
20
-1.0550332712775932
10
3.1812194692520652
20
-1.0550627652975497
10
3.1887194692520655
20
-1.0420723842407829
10
3.1886683841109815
20
-1.0420428902208263
10
3.1887705543931495
20
-1.0419839021809139
10
3.2661683841109821
20
-0.907926928714065
10
3.2661683841109812
20
-0.90780895263423855
10
2.9411683841109815
20
-0.7201701151476102
10
2.9411683841109815
20
-0.8009991528341579
10
2.9261683841109813
20
-0.79233889879631347
10
2.9261683841109813
20
-0.70284960707192201
10
2.9252803583845215
20
-0.70336230896414098
10
2.918668384110982
20
-0.70717973409084389
10
2.9219743712477513
20
-0.70908844665419513
10
2.9252803583845215
20
-0.70336230896414098
10
2.9261683841109818
20
-0.70182420328748296
10
2.9261683841109818
20
-0.69418935303407725
10
3.2736683841109819
20
-0.89481857157747224
10
3.273770554393149
20
-0.8947595835375598
10
3.2737194692520659
20
-0.89484806559742847
10
3.2845447867993713
20
-0.90109806559742855
10
3.1961683841109814
20
-1.0541704852438858
10
3.1961683841109814
20
-1.0550332712775936
10
3.1954211894877611
20
-1.0554646642944467
10
3.1636426102302675
20
-1.11050677816078
10
2.9673435187057944
20
-1.11050677816078
10
2.9673204681560166
20
-1.1105467028841376
10
2.9672513165066832
20
-1.11050677816078
10
2.9411683841109815
20
-1.11050677816078
10
2.9411683841109815
20
-1.1127682981965559
10
2.9372513165066834
20
-1.1105067781607803
10
2.9300854517152808
20
-1.11050677816078
10
2.9261683841109818
20
-1.1127682981965561
10
2.9261683841109818
20
-1.1105067781607803
10
2.7711683841109815
20
-1.1105067781607803
10
2.7711683841109815
20
-1.1102920784606594
10
2.7710444271813222
20
-1.11050677816078
10
2.7561683841109819
20
-1.1105067781607803
10
2.7561683841109814
20
-0.39974071574736819
10
2.9408622119260737
20
-0.50637374695407444
10
2.9411683841109819
20
-0.50584344117394975
10
2.9411683841109815
20
-0.50655051554744923
10
3.358668384110981
20
-0.74759425293411774
10
3.3587705543931494
20
-0.74753526489420474
10
3.3587194692520659
20
-0.74762374695407441
10
3.5189341689521867
20
-0.84012374695407466
10
3.5964341689521864
20
-0.70588980936748646
10
3.5834437878954195
20
-0.6983898093674864
10
3.8333689224902332
20
-0.26550677816078178
10
3.5909437878954198
20
0.1543858719891604
10
3.5303220096305092
20
0.11938587198916051
10
3.5319756351500371
20
0.11652170857264557
10
3.5286683841109809
20
0.11843115085032184
10
3.4437194692520654
20
0.069385871989160242
10
3.4437705543931494
20
0.069297389929291228
10
3.4436683841109819
20
0.069356377969203561
10
3.0261683841109814
20
-0.17168735941746532
10
3.0261683841109819
20
-0.17239443379096414
10
3.0258622119260741
20
-0.17186412801084011
10
2.9411683841109819
20
-0.2207621322985836
10
2.9411683841109819
20
-0.22517011514760962
10
2.9392596715476302
20
-0.22186412801084002
10
2.8636683841109818
20
-0.26550677816077933
10
3.1880560397411668
20
-0.45279207846065805
10
3.1883622119260746
20
-0.45332238424078247
10
3.1886683841109815
20
-0.45314561564740768
10
3.3092995962709884
20
-0.52279207846065823
10
3.3094235532006482
20
-0.52300677816077923
10
3.3094855316654779
20
-0.52289942831071867
10
3.4437194692520663
20
-0.60039942831071891
10
3.521168384110982
20
-0.46625397278400038
10
3.521168384110982
20
-0.46613599670417433
10
3.521219469252066
20
-0.46616549072413066
10
3.5287194692520663
20
-0.45317510966736402
10
3.5286683841109814
20
-0.45314561564740768
10
3.5287705543931507
20
-0.4530866276074943
10
3.6061683841109811
20
-0.31902965414064588
10
3.606168384110982
20
-0.31891167806081983
10
3.6062194692520664
20
-0.31894117208077649
10
3.6137194692520658
20
-0.30595079102400952
10
3.6136683841109813
20
-0.30592129700405279
10
3.6137705543931506
20
-0.30586230896413941
10
3.6370698309657601
20
-0.26550677816078039
10
3.6137705543931489
20
-0.22515124735741782
10
3.6136683841109813
20
-0.22509225931750548
10
3.6137194692520653
20
-0.22506276529754879
10
3.606219469252065
20
-0.21207238424078245
10
3.6061683841109811
20
-0.21210187826073845
10
3.606168384110982
20
-0.21198390218091379
10
3.5287705543931498
20
-0.077926928714063995
10
3.5286683841109814
20
-0.077867940674150954
10
3.2036683841109816
20
-0.26550677816077967
10
3.2736683841109815
20
-0.30592129700405318
10
3.2586683841109814
20
-0.31458155104189761
10
3.1811683841109817
20
-0.26983690517970155
10
3.1811683841109817
20
-0.27086230896413988
10
3.1811683841109821
20
-0.27849715921754598
10
3.184474371247751
20
-0.27658844665419474
10
3.1811683841109817
20
-0.27086230896413988
10
3.1802803583845209
20
-0.26932420328748219
10
3.1736683841109814
20
-0.26550677816077894
10
3.521168384110982
20
-0.064877559617383937
10
3.521168384110982
20
-0.064759583537559617
10
3.5212194692520655
20
-0.064848065597427951
10
3.5320447867993714
20
-0.05859806559742748
10
3.6204211894877609
20
-0.21167048524388471
10
3.6211683841109821
20
-0.21210187826073915
10
3.6211683841109821
20
-0.21296466429444524
10
3.6529469633684752
20
-0.26800677816077906
10
3.5547974176062391
20
-0.43800677816077904
10
3.5548204681560169
20
-0.438046702884137
10
3.5547513165066831
20
-0.43808662760749428
10
3.5417098503088322
20
-0.46067510966736402
10
3.5436683841109815
20
-0.46180586968525178
10
3.5397513165066834
20
-0.46406738972102729
10
3.5361683841109821
20
-0.4702732106704664
10
3.5361683841109821
20
-0.47479625074201842
10
3.5342098503088328
20
-0.47366549072413067
10
3.4567098503088323
20
-0.60789942831071886
10
3.4565239149143427
20
-0.60779207846065841
10
3.4566478718440026
20
-0.60800677816077864
10
3.4492098503088329
20
-0.6208898093674855
10
2.833668384110982
20
-0.26550677816077967
10
3.0183622119260742
20
-0.1588737469540738
10
3.0180560397411664
20
-0.15834344117394905
10
3.018668384110982
20
-0.15869697836069899
10
3.4361683841109816
20
0.082346759025969871
10
3.4361683841109816
20
0.082464735105795939
10
3.4362194692520656
20
0.082376253045926565
10
3.5964341689521873
20
0.17487625304592569
10
3.5189341689521871
20
0.30911019063251388
10
3.5059437878954207
20
0.30161019063251421
10
3.2560186533006079
20
0.73449322183922061
10
2.7711683841109815
20
0.73449322183922128
10
2.771168384110982
20
0.66449322183922077
10
2.7744756351500373
20
0.66449322183922077
10
2.771168384110982
20
0.66258377956154346
10
2.771168384110982
20
0.56449322183922102
10
2.7712705543931491
20
0.56449322183922035
10
2.771168384110982
20
0.56443423379930757
10
2.771168384110982
20
0.082346759025970578
10
2.7717807284807972
20
0.081993221839221322
10
2.771168384110982
20
0.081993221839220976
10
2.771168384110982
20
-0.015802786736266002
10
2.7749858092376849
20
-0.018006778160778839
10
2.771168384110982
20
-0.01800677816077919
10
2.771168384110982
20
-0.10529207846065813
10
3.0955560397411666
20
0.081993221839220976
10
3.0961683841109822
20
0.081993221839220976
10
3.0961683841109822
20
0.082346759025970578
10
3.2167995962709885
20
0.15199322183922079
10
3.2170475101303078
20
0.15199322183922112
10
3.2169855316654781
20
0.15210057168928162
10
3.3512194692520665
20
0.22960057168928144
10
3.2737705543931499
20
0.36374602721599991
10
3.2736683841109828
20
0.36380501525591291
10
3.2737194692520668
20
0.36383450927586963
10
3.2662194692520665
20
0.37682489033263628
10
3.2661683841109821
20
0.37679539631267928
10
3.2661683841109821
20
0.376913372392506
10
3.1887705543931508
20
0.51097034585935441
10
3.1886683841109829
20
0.51102933389926775
10
3.1887194692520668
20
0.51105882791922419
10
3.1812194692520661
20
0.52404920897599083
10
3.1811683841109817
20
0.52401971495603372
10
3.1811683841109817
20
0.52413769103586128
10
3.1578691075383718
20
0.56449322183922035
10
3.1112705543931494
20
0.56449322183922035
10
3.1111683841109818
20
0.56443423379930757
10
3.1111683841109818
20
0.56449322183922035
10
3.0961683841109817
20
0.56449322183922035
10
3.0961683841109817
20
0.56443423379930757
10
3.0960662138288138
20
0.56449322183922035
10
2.9412705543931503
20
0.56449322183922168
10
2.9411683841109819
20
0.56443423379930757
10
2.9411683841109819
20
0.1891565588260509
10
3.0111683841109818
20
0.22957107766932475
10
3.0111683841109818
20
0.21225056959363583
10
2.9336683841109825
20
0.16750592373144049
10
2.9345564098374424
20
0.1669932218392208
10
2.9411683841109819
20
0.16317579671251825
10
2.9411683841109819
20
0.1669932218392208
10
2.9345564098374424
20
0.1669932218392208
10
2.9327803583845213
20
0.1669932218392208
10
2.9261683841109818
20
0.16317579671251792
10
2.9261683841109818
20
0.56443423379930835
10
2.9260662138288147
20
0.56449322183922035
10
2.9261683841109813
20
0.56449322183922102
10
2.9261683841109818
20
0.57699322183922053
10
3.1029211894877604
20
0.57699322183922053
10
3.1036683841109824
20
0.57742461485607499
10
3.1044155787342023
20
0.57699322183922119
10
3.1679727372491895
20
0.57699322183922053
10
3.266122283011426
20
0.40699322183922093
10
3.2661683841109821
20
0.40699322183922054
10
3.2661683841109821
20
0.40691337239250569
10
3.2792098503088325
20
0.38432489033263562
10
3.2811683841109822
20
0.38545565035052337
10
3.2811683841109822
20
0.38093261027897235
10
3.2847513165066831
20
0.37472678932953357
10
3.2886683841109821
20
0.3724652692937574
10
3.2867098503088328
20
0.37133450927586931
10
3.3642098503088325
20
0.23710057168928109
10
3.3640239149143434
20
0.23699322183922059
10
3.3642718287736622
20
0.23699322183922095
10
3.3717098503088323
20
0.22411019063251478
10
2.7561683841109823
20
-0.13127284057419147
10
2.7561683841109823
20
0.081993221839220629
10
2.7555560397411663
20
0.081993221839220976
10
2.7561683841109823
20
0.082346759025970218
10
2.7561683841109823
20
0.56443423379930757
10
2.7560662138288139
20
0.56449322183922102
10
2.7561683841109823
20
0.56449322183922102
10
2.7561683841109823
20
0.74949322183922129
10
2.6011683841109821
20
0.74949322183922062
10
2.6011683841109825
20
0.73449322183922061
10
2.1013181149213573
20
0.73449322183922128
10
1.8588929803265426
20
0.31460057168928124
10
1.9195147585914534
20
0.27960057168928099
10
1.9211683841109812
20
0.28246473510579595
10
1.9211683841109819
20
0.27864585055044233
10
2.0061172989698974
20
0.22960057168928108
10
2.0061683841109814
20
0.22968905374915011
10
2.0061683841109819
20
0.22957107766932475
10
2.4236683841109814
20
-0.01147265971734413
10
2.4242807284807966
20
-0.011119122530594536
10
2.4239745562958888
20
-0.011649428310718577
10
2.5086683841109814
20
-0.06054743259846207
10
2.5124858092376843
20
-0.058343441173948879
10
2.510577096674333
20
-0.061649428310718839
10
2.5861683841109815
20
-0.10529207846065813
10
2.5861683841109815
20
0.26927852213909975
10
2.5864745562958888
20
0.26980882791922378
10
2.5861683841109815
20
0.26998559651259857
10
2.5861683841109819
20
0.40927852213909971
10
2.5862923410406413
20
0.40949322183922066
10
2.5861683841109819
20
0.40949322183922066
10
2.5861683841109815
20
0.56449322183922046
10
2.4312705543931497
20
0.56449322183922079
10
2.4311683841109817
20
0.56443423379930813
10
2.4311683841109817
20
0.56449322183922079
10
2.4161683841109816
20
0.56449322183922079
10
2.4161683841109816
20
0.56443423379930746
10
2.4160662138288127
20
0.56449322183922079
10
2.2612705543931502
20
0.56449322183922068
10
2.2611683841109818
20
0.56443423379930791
10
2.2611683841109818
20
0.56449322183922113
10
2.2461683841109821
20
0.56449322183922079
10
2.2461683841109821
20
0.56443423379930746
10
2.2460662138288123
20
0.56449322183922079
10
2.1994676606835935
20
0.56449322183922113
10
2.1761683841109813
20
0.52413769103585861
10
2.1761683841109822
20
0.52401971495603361
10
2.1761172989698974
20
0.52404920897598994
10
2.168617298969898
20
0.5110588279192233
10
2.1686683841109815
20
0.51102933389926652
10
2.168566213828814
20
0.51097034585935464
10
2.0911683841109814
20
0.3769133723925055
10
2.0911683841109818
20
0.37679539631267905
10
2.416168384110982
20
0.1891565588260509
10
2.4161683841109816
20
0.26998559651259824
10
2.4311683841109817
20
0.26132534247475381
10
2.4311683841109817
20
0.17183605075036235
10
2.432056409837442
20
0.17234875264258134
10
2.4386683841109815
20
0.17616617776928459
10
2.4353623969742118
20
0.17807489033263585
10
2.432056409837442
20
0.17234875264258134
10
2.4311683841109817
20
0.17081064696592332
10
2.4311683841109817
20
0.16317579671251756
10
2.0836683841109811
20
0.36380501525591274
10
2.083566213828814
20
0.36374602721600041
10
2.0836172989698976
20
0.36383450927586874
10
2.0727919814225917
20
0.37008450927586889
10
2.1611683841109812
20
0.52315692892232613
10
2.1611683841109812
20
0.52401971495603394
10
2.1619155787342019
20
0.52445110797288697
10
2.193694157991696
20
0.5794932218392207
10
2.3899932495161686
20
0.57949322183922081
10
2.390016300065946
20
0.57953314656257804
10
2.3900854517152799
20
0.57949322183922047
10
2.4161683841109816
20
0.57949322183922047
10
2.4161683841109816
20
0.58175474187499598
10
2.4200854517152797
20
0.57949322183922047
10
2.4272513165066822
20
0.57949322183922047
10
2.4311683841109817
20
0.58175474187499665
10
2.4311683841109817
20
0.57949322183922047
10
2.5861683841109819
20
0.57949322183922047
10
2.5861683841109819
20
0.57927852213909947
10
2.5862923410406413
20
0.57949322183922014
10
2.6011683841109816
20
0.57949322183922047
10
2.6011683841109816
20
-0.13127284057419111
10
2.4164745562958894
20
-0.024639809367484895
10
2.4161683841109816
20
-0.025170115147609636
10
2.4161683841109816
20
-0.024463040774110097
10
1.9986683841109818
20
0.21658069661255841
10
1.9985662138288132
20
0.21652170857264574
10
1.9986172989698971
20
0.2166101906325151
10
1.838402599269777
20
0.3091101906325156
10
1.7609025992697764
20
0.17487625304592744
10
1.7738929803265431
20
0.16737625304592743
0
LWPOLYLINE
5
128
100
AcDbEntity
8
0
100
AcDbPolyline
90
276
70
1
43
0.0
10
1.6047968834182778
20
-0.26550677816077722
10
1.7495147585914537
20
-0.014848065597426642
10
1.7511683841109815
20
-0.015802786736264954
10
1.7511683841109815
20
-0.011983902180911703
10
1.8253611330719262
20
0.11652170857264661
10
1.8286683841109821
20
0.11843115085032324
10
1.8270147585914542
20
0.11938587198916155
10
1.8403611330719265
20
0.14250247068617961
10
1.8442502376525352
20
0.14474784626270076
10
1.8429538694589991
20
0.14699322183922195
10
1.8770147585914538
20
0.2059884123676039
10
2.6711683841109815
20
-0.2525163971040123
10
2.6711683841109815
20
0.041932240182696381
10
2.66918925599601
20
0.043074890332635771
10
2.6711683841109815
20
0.046502840782453952
10
2.6711683841109815
20
0.64949322183922042
10
2.6093863518082268
20
0.64949322183922065
10
2.6092502376525344
20
0.64925746520593242
10
2.6088418951854586
20
0.64949322183922076
10
2.3322582225972059
20
0.64949322183922076
10
2.3311683841109816
20
0.64760556620903564
10
2.3311683841109816
20
0.64949322183922065
10
2.1503928878024747
20
0.64949322183922065
10
1.97500513964822
20
0.3457127310109584
10
2.1836683841109812
20
0.2252409506504025
10
2.1863642160209111
20
0.2267973899292906
10
2.1850163000659459
20
0.22446273101095848
10
2.2456380783308569
20
0.18946273101095856
10
2.2461683841109816
20
0.19038124756568159
10
2.2461683841109812
20
0.18915655882605126
10
2.5011683841109811
20
0.041932240182696381
10
2.5011683841109811
20
0.47949322183922066
10
2.4240462357497954
20
0.479493221839221
10
2.4236683841109814
20
0.47927506909383788
10
2.4232905324721674
20
0.479493221839221
10
2.3311683841109816
20
0.479493221839221
10
2.3311683841109816
20
0.49449322183922101
10
2.5161683841109812
20
0.49449322183922068
10
2.5161683841109812
20
0.31906036939371685
10
2.5170564098374415
20
0.31957307128593587
10
2.5161683841109816
20
0.31803496560927891
10
2.5161683841109812
20
0.015951478069163045
10
2.2386683841109813
20
0.17616617776928459
10
2.2376077725507333
20
0.17555383339946959
10
2.2381380783308571
20
0.17647234995419189
10
1.9545147585914537
20
0.34022234995419143
10
2.1417326337646316
20
0.66449322183922077
10
2.4311683841109826
20
0.66449322183922077
10
2.431168384110983
20
0.66258377956154491
10
2.4344756351500387
20
0.66449322183922077
10
2.5828611330719271
20
0.66449322183922077
10
2.5861683841109833
20
0.66258377956154424
10
2.5861683841109833
20
0.66449322183922077
10
2.6128611330719269
20
0.66449322183922155
10
2.616750237652536
20
0.66224784626269995
10
2.6180466058460721
20
0.66449322183922077
10
2.686168384110982
20
0.66449322183922077
10
2.6861683841109825
20
-0.2525163971040123
10
2.9411683841109815
20
-0.10529207846065813
10
2.9411683841109819
20
-0.10300677816077899
10
2.9451266403409244
20
-0.10300677816077899
10
3.467331628573743
20
0.19848841236760426
10
3.4364406124223659
20
0.25199322183922096
10
3.4361683841109816
20
0.25199322183922096
10
3.4361683841109816
20
0.25246473510579698
10
3.2978765478168555
20
0.4919932218392214
10
3.2956968708444063
20
0.49199322183922073
10
3.2973316285737435
20
0.49293704965431329
10
3.2069438804194896
20
0.64949322183922076
10
2.8561683841109815
20
0.64949322183922076
10
2.8561683841109815
20
0.4085496611181097
10
2.858864216020911
20
0.40699322183922126
10
2.8561683841109815
20
0.40699322183922126
10
2.8561683841109815
20
0.33699322183922109
10
2.8572289956712309
20
0.33699322183922109
10
2.8561683841109815
20
0.33638087746940576
10
2.8561683841109815
20
0.041932240182696381
10
3.2351073099303891
20
0.26071273101095893
10
3.1965462357497954
20
0.32750247068617855
10
3.1961683841109823
20
0.32772062343156166
10
3.1961683841109823
20
0.32815692892232795
10
3.1501073099303887
20
0.40793704965431349
10
3.1630976909871551
20
0.41543704965431349
10
3.2555976909871558
20
0.25522234995419196
10
3.1036683841109824
20
0.16750592373144013
10
3.1045564098374423
20
0.16699322183922113
10
3.1027803583845222
20
0.1669932218392208
10
2.8411683841109818
20
0.015951478069163395
10
2.8411683841109818
20
0.33638087746940576
10
2.8401077725507333
20
0.33699322183922109
10
2.8411683841109818
20
0.33699322183922109
10
2.8411683841109814
20
0.66449322183922077
10
3.2156041344573341
20
0.66449322183922011
10
3.3603220096305089
20
0.41383450927586951
10
3.3586683841109819
20
0.41287978813703125
10
3.3619756351500381
20
0.41097034585935494
10
3.4361683841109825
20
0.28246473510579662
10
3.4361683841109825
20
0.27864585055044339
10
3.4378220096305094
20
0.27960057168928099
10
3.4511683841109821
20
0.25648397299226328
10
3.4511683841109817
20
0.25199322183922096
10
3.4537611204980543
20
0.25199322183922096
10
3.4878220096305093
20
0.1929980313108369
10
2.6936683841109819
20
-0.26550677816077933
10
2.9486683841109818
20
-0.41273109680413383
10
2.9506475122259532
20
-0.41158844665419442
10
2.9526266403409243
20
-0.41501639710401261
10
3.4748316285737433
20
-0.71651158763239586
10
3.5057226447251209
20
-0.66300677816077946
10
3.5055865305694285
20
-0.66277102152749134
10
3.5059948730365051
20
-0.66253526489420356
10
3.6442867093306313
20
-0.42300677816077903
10
3.6431968708444065
20
-0.4211191225305943
10
3.6448316285737432
20
-0.42206295034568719
10
3.7352193767279966
20
-0.26550677816077967
10
3.5598316285737428
20
0.03827371266748307
10
3.3511683841109821
20
-0.082198067693072488
10
3.3511683841109821
20
-0.08531094625084866
10
3.3498204681560169
20
-0.082976287332516871
10
3.2891986898911059
20
-0.11797628733251712
10
3.2897289956712301
20
-0.1188948038872398
10
3.2886683841109821
20
-0.1182824595174248
10
3.0336683841109817
20
-0.26550677816077933
10
3.4126073099303889
20
-0.48428726898904118
10
3.4511683841109817
20
-0.41749752931382161
10
3.4511683841109817
20
-0.41706122382305572
10
3.4515462357497961
20
-0.41684307107767254
10
3.4976073099303884
20
-0.33706295034568667
10
3.5105976909871557
20
-0.34456295034568668
10
3.4180976909871554
20
-0.50477765004580788
10
3.2661683841109821
20
-0.41706122382305605
10
3.2661683841109821
20
-0.41808662760749404
10
3.2652803583845218
20
-0.41654852193083708
10
3.0036683841109815
20
-0.26550677816077894
10
3.2811683841109822
20
-0.10529207846065813
10
3.2811683841109822
20
-0.10406738972102778
10
3.2816986898911056
20
-0.10498590627575045
10
3.5653220096305089
20
0.058764093724249393
10
3.7525398848036846
20
-0.26550677816078178
10
3.6078220096305089
20
-0.51616549072413231
10
3.6061683841109811
20
-0.51521076958529433
10
3.6061683841109811
20
-0.51902965414064728
10
3.5319756351500371
20
-0.64753526489420565
10
3.5286683841109809
20
-0.64944470717188219
10
3.5303220096305088
20
-0.65039942831072051
10
3.516975635150037
20
-0.6735160270077386
10
3.5130865305694283
20
-0.6757614025842601
10
3.5143828987629639
20
-0.67800677816078092
10
3.480322009630509
20
-0.73700196868916323
10
2.6861683841109816
20
-0.27849715921754736
10
2.6861683841109816
20
-0.5729457965042557
10
2.6881475122259531
20
-0.57408844665419545
10
2.6861683841109816
20
-0.57751639710401359
10
2.6861683841109816
20
-1.1805067781607803
10
2.7479504164137367
20
-1.1805067781607805
10
2.7480865305694286
20
-1.1802710215274923
10
2.7484948730365049
20
-1.1805067781607808
10
3.0250785456247575
20
-1.1805067781607805
10
3.0261683841109819
20
-1.1786191225305953
10
3.0261683841109819
20
-1.1805067781607803
10
3.2069438804194887
20
-1.1805067781607801
10
3.3823316285737435
20
-0.87672628733251778
10
3.1736683841109823
20
-0.75625450697196184
10
3.1709725522010523
20
-0.75781094625084955
10
3.1723204681560171
20
-0.75547628733251782
10
3.1116986898911061
20
-0.7204762873325179
10
3.1111683841109818
20
-0.72139480388724098
10
3.1111683841109818
20
-0.7201701151476102
10
2.8561683841109815
20
-0.5729457965042557
10
2.856168384110982
20
-1.0105067781607806
10
2.9332905324721676
20
-1.0105067781607802
10
2.9336683841109821
20
-1.0102886254153978
10
2.9340462357497961
20
-1.0105067781607808
10
3.0261683841109819
20
-1.0105067781607802
10
3.0261683841109819
20
-1.0255067781607807
10
2.8411683841109814
20
-1.0255067781607805
10
2.8411683841109814
20
-0.85007392571527651
10
2.8402803583845215
20
-0.85058662760749559
10
2.8411683841109814
20
-0.84904852193083824
10
2.8411683841109814
20
-0.54696503439072275
10
3.1186683841109817
20
-0.70717973409084389
10
3.1197289956712302
20
-0.70656738972102895
10
3.1191986898911059
20
-0.70748590627575159
10
3.4028220096305093
20
-0.87123590627575109
10
3.2156041344573327
20
-1.1955067781607802
10
2.9261683841109822
20
-1.1955067781607798
10
2.9261683841109822
20
-1.1935973358831038
10
2.9228611330719261
20
-1.1955067781607804
10
2.7744756351500377
20
-1.1955067781607804
10
2.771168384110982
20
-1.1935973358831038
10
2.7711683841109815
20
-1.1955067781607798
10
2.7444756351500375
20
-1.1955067781607804
10
2.7405865305694288
20
-1.1932614025842594
10
2.7392901623758927
20
-1.1955067781607802
10
2.6711683841109815
20
-1.1955067781607795
10
2.671168384110981
20
-0.27849715921754686
10
2.4161683841109816
20
-0.4257214778609012
10
2.4161683841109816
20
-0.42800677816078031
10
2.4122101278810391
20
-0.42800677816078009
10
1.8900051396482203
20
-0.72950196868916362
10
1.9208961557995976
20
-0.78300677816078046
10
1.9211683841109819
20
-0.78300677816078024
10
1.9211683841109817
20
-0.78347829142735637
10
2.059460220405108
20
-1.0230067781607803
10
2.0616398973775572
20
-1.0230067781607803
10
2.06000513964822
20
-1.0239506059758727
10
2.1503928878024738
20
-1.1805067781607799
10
2.501168384110982
20
-1.1805067781607799
10
2.501168384110982
20
-0.93956321743966831
10
2.498472552201052
20
-0.93800677816078026
10
2.501168384110982
20
-0.93800677816078026
10
2.5011683841109815
20
-0.86800677816078009
10
2.500107772550733
20
-0.86800677816078009
10
2.5011683841109815
20
-0.86739443379096504
10
2.5011683841109815
20
-0.5729457965042557
10
2.1222294582915748
20
-0.79172628733251826
10
2.1607905324721677
20
-0.85851602700773788
10
2.1611683841109817
20
-0.85873417975312094
10
2.1611683841109817
20
-0.85917048524388728
10
2.2072294582915748
20
-0.93895060597587277
10
2.1942390772348079
20
-0.94645060597587294
10
2.1017390772348081
20
-0.78623590627575168
10
2.2536683841109815
20
-0.69851948005299969
10
2.2527803583845216
20
-0.69800677816078049
10
2.2545564098374418
20
-0.69800677816078038
10
2.5161683841109816
20
-0.54696503439072264
10
2.5161683841109816
20
-0.86739443379096504
10
2.5172289956712302
20
-0.86800677816078009
10
2.5161683841109816
20
-0.86800677816078009
10
2.5161683841109821
20
-1.1955067781607795
10
2.1417326337646294
20
-1.1955067781607795
10
1.9970147585914542
20
-0.94484806559742884
10
1.9986683841109818
20
-0.94389334445859074
10
1.9953611330719256
20
-0.94198390218091432
10
1.9211683841109817
20
-0.81347829142735595
10
1.9211683841109817
20
-0.80965940687200266
10
1.9195147585914538
20
-0.81061412801084065
10
1.9061683841109816
20
-0.78749752931382266
10
1.9061683841109816
20
-0.78300677816078035
10
1.9035756477239094
20
-0.78300677816078035
10
1.8695147585914531
20
-0.72401158763239515
10
2.6636683841109807
20
-0.26550677816077933
10
2.4086683841109813
20
-0.1182824595174248
10
2.4066892559960098
20
-0.11942510966736419
10
2.4047101278810388
20
-0.11599715921754601
10
1.8825051396482197
20
0.18549803131083795
10
1.851614123496842
20
0.13199322183922124
10
1.8517502376525345
20
0.1317574652059334
10
1.8513418951854581
20
0.13152170857264558
10
1.7130500588913316
20
-0.10800677816077889
10
1.7141398973775566
20
-0.10989443379096366
10
1.7125051396482194
20
-0.1089506059758711
10
1.6221173914939664
20
-0.26550677816077861
10
1.7975051396482196
20
-0.56928726898904136
10
2.006168384110981
20
-0.4488154886284858
10
2.006168384110981
20
-0.44570261007070999
10
2.0075163000659462
20
-0.44803726898904178
10
2.0681380783308563
20
-0.41303726898904153
10
2.067607772550732
20
-0.4121187524343185
10
2.068668384110981
20
-0.41273109680413383
10
2.3236683841109813
20
-0.26550677816077933
10
1.9447294582915742
20
-0.046726287332516742
10
1.9061683841109811
20
-0.11351602700773666
10
1.9061683841109804
20
-0.11395233249850258
10
1.9057905324721667
20
-0.11417048524388501
10
1.859729458291574
20
-0.1939506059758716
10
1.8467390772348069
20
-0.18645060597587124
10
1.9392390772348076
20
-0.026235906275750068
10
2.0911683841109809
20
-0.11395233249850223
10
2.0911683841109809
20
-0.11292692871406425
10
2.0920564098374412
20
-0.11446503439072123
10
2.3536683841109811
20
-0.26550677816077933
10
2.0761683841109808
20
-0.42572147786090014
10
2.0761683841109808
20
-0.42694616660053047
10
2.0756380783308566
20
-0.42602765004580784
10
1.7920147585914534
20
-0.58977765004580729
0
LWPOLYLINE
5
129
100
AcDbEntity
8
0
100
AcDbPolyline
90
3
70
1
43
0.0
10
2.4161683841109811
20
-0.13127284057419147
10
2.4161683841109816
20
-0.13584344117394939
10
2.4141892559960096
20
-0.13241549072413086
0
LWPOLYLINE
5
130
100
AcDbEntity
8
0
100
AcDbPolyline
90
3
70
1
43
0.0
10
2.0053834539073776
20
-0.47434307107767321
10
2.006168384110981
20
-0.47479625074201842
10
2.0061683841109805
20
-0.47570261007070896
0
LWPOLYLINE
5
131
100
AcDbEntity
8
0
100
AcDbPolyline
90
3
70
1
43
0.0
10
2.6636683841109812
20
0.028941859125929715
10
2.6597101278810387
20
0.026656558826050929
10
2.6616892559960101
20
0.030084509275869104
0
LWPOLYLINE
5
132
100
AcDbEntity
8
0
100
AcDbPolyline
90
3
70
1
43
0.0
10
2.1611683841109812
20
0.21315692892232704
10
2.1611683841109812
20
0.21225056959363583
10
2.1603834539073787
20
0.21179738992929059
0
LWPOLYLINE
5
133
100
AcDbEntity
8
0
100
AcDbPolyline
90
3
70
1
43
0.0
10
2.9261683841109818
20
-0.10529207846065779
10
2.9222101278810393
20
-0.10300677816077936
10
2.9261683841109818
20
-0.10300677816077899
0
LWPOLYLINE
5
134
100
AcDbEntity
8
0
100
AcDbPolyline
90
3
70
1
43
0.0
10
2.8344533143145854
20
0.42199322183922094
10
2.833668384110982
20
0.42154004217487567
10
2.8328834539073791
20
0.42199322183922094
0
LWPOLYLINE
5
135
100
AcDbEntity
8
0
100
AcDbPolyline
90
3
70
1
43
0.0
10
2.9411683841109819
20
-0.39974071574736714
10
2.9411683841109819
20
-0.39517011514760958
10
2.9431475122259534
20
-0.39859806559742778
0
LWPOLYLINE
5
136
100
AcDbEntity
8
0
100
AcDbPolyline
90
3
70
1
43
0.0
10
3.351953314314585
20
-0.056670485243885099
10
3.3511683841109821
20
-0.056217305579539849
10
3.3511683841109821
20
-0.055310946250849341
0
LWPOLYLINE
5
137
100
AcDbEntity
8
0
100
AcDbPolyline
90
3
70
1
43
0.0
10
2.6936683841109814
20
-0.55995541544748939
10
2.6976266403409244
20
-0.55767011514761022
10
2.6956475122259529
20
-0.56109806559742881
0
LWPOLYLINE
5
138
100
AcDbEntity
8
0
100
AcDbPolyline
90
3
70
1
43
0.0
10
3.1961683841109814
20
-0.7441704852438864
10
3.1961683841109814
20
-0.74326412591519553
10
3.1969533143145847
20
-0.74281094625085031
0
LWPOLYLINE
5
139
100
AcDbEntity
8
0
100
AcDbPolyline
90
3
70
1
43
0.0
10
2.4311683841109817
20
-0.42572147786090137
10
2.4351266403409242
20
-0.42800677816078014
10
2.4311683841109817
20
-0.42800677816078014
0
LWPOLYLINE
5
140
100
AcDbEntity
8
0
100
AcDbPolyline
90
3
70
1
43
0.0
10
2.5228834539073781
20
-0.95300677816078028
10
2.5236683841109815
20
-0.95255359849643462
10
2.5244533143145844
20
-0.95300677816077994
0
LWPOLYLINE
5
141
100
AcDbEntity
8
0
100
AcDbPolyline
90
504
70
1
43
0.0
10
1.5239678457317301
20
-0.26550677816077722
10
1.7663929803265421
20
-0.68539942831071909
10
1.8270147585914529
20
-0.6503994283107184
10
1.825361133071925
20
-0.64753526489420388
10
1.8286683841109814
20
-0.64944470717187974
10
1.9136172989698974
20
-0.60039942831071857
10
1.9135662138288134
20
-0.60031094625084991
10
1.9136683841109816
20
-0.6003699342907618
10
2.3311683841109812
20
-0.35932619690409334
10
2.3311683841109812
20
-0.35861912253059447
10
2.3314745562958885
20
-0.35914942831071889
10
2.4161683841109811
20
-0.3102514240229754
10
2.4161683841109807
20
-0.30584344117394868
10
2.4180770966743328
20
-0.30914942831071862
10
2.4936683841109812
20
-0.26550677816077933
10
2.1692807284807958
20
-0.078221477860900557
10
2.1689745562958884
20
-0.077691172080775805
10
2.1686683841109806
20
-0.077867940674150954
10
2.0480371719509747
20
-0.0082214778609000505
10
2.0479132150213144
20
-0.0080067781607787176
10
2.0478512365564847
20
-0.0081141280108399088
10
1.913617298969897
20
0.069385871989160242
10
1.836168384110981
20
-0.06475958353755823
10
1.8361683841109808
20
-0.06487755961738359
10
1.8361172989698968
20
-0.064848065597427604
10
1.8286172989698968
20
-0.07783844665419426
10
1.8286683841109814
20
-0.077867940674150954
10
1.8285662138288126
20
-0.077926928714063995
10
1.7511683841109813
20
-0.21198390218091204
10
1.7511683841109809
20
-0.21210187826073812
10
1.7511172989698962
20
-0.21207238424078176
10
1.743617298969897
20
-0.22506276529754843
10
1.7436683841109808
20
-0.22509225931750512
10
1.7435662138288124
20
-0.22515124735741884
10
1.7202669372562029
20
-0.26550677816077789
10
1.7435662138288137
20
-0.30586230896414013
10
1.7436683841109812
20
-0.30592129700405279
10
1.7436172989698973
20
-0.30595079102400913
10
1.7511172989698978
20
-0.31894117208077583
10
1.7511683841109815
20
-0.31891167806081949
10
1.7511683841109813
20
-0.31902965414064482
10
1.8285662138288121
20
-0.45308662760749463
10
1.8286683841109814
20
-0.4531456156474073
10
2.1536683841109814
20
-0.26550677816077933
10
2.0836683841109815
20
-0.22509225931750548
10
2.0986683841109817
20
-0.21643200527966103
10
2.1761683841109809
20
-0.26117665114185673
10
2.1761683841109809
20
-0.26015124735741874
10
2.1761683841109805
20
-0.25251639710401302
10
2.1728623969742116
20
-0.25442510966736426
10
2.1761683841109809
20
-0.26015124735741874
10
2.1770564098374416
20
-0.26168935303407642
10
2.1836683841109812
20
-0.26550677816077933
10
1.8361683841109808
20
-0.46613599670417399
10
1.8361683841109808
20
-0.46625397278399899
10
1.8361172989698968
20
-0.46616549072413105
10
1.8252919814225916
20
-0.47241549072413047
10
1.7369155787342023
20
-0.31934307107767324
10
1.736168384110981
20
-0.3189116780608191
10
1.736168384110981
20
-0.31804889202711234
10
1.7043898048534878
20
-0.26300677816077883
10
1.8025393506157243
20
-0.093006778160779222
10
1.8025163000659465
20
-0.092966853437421268
10
1.80258545171528
20
-0.092926928714063994
10
1.8156269179131308
20
-0.070338446654194267
10
1.8136683841109813
20
-0.069207686636306165
10
1.8175854517152796
20
-0.066946166600530668
10
1.8211683841109811
20
-0.06074034565109189
10
1.8211683841109811
20
-0.056217305579539849
10
1.8231269179131302
20
-0.057348065597427597
10
1.9006269179131308
20
0.076885871989160595
10
1.9008128533076203
20
0.076778522139100108
10
1.9006888963779602
20
0.076993221839220388
10
1.9081269179131304
20
0.089876253045926918
10
2.523668384110981
20
-0.26550677816077933
10
2.3389745562958888
20
-0.37213980936748486
10
2.3392807284807962
20
-0.37267011514760995
10
2.338668384110981
20
-0.37231657796085965
10
1.9211683841109812
20
-0.61336031534752811
10
1.9211683841109808
20
-0.61347829142735455
10
1.9211172989698966
20
-0.61338980936748522
10
1.7609025992697762
20
-0.70588980936748535
10
1.8384025992697759
20
-0.84012374695407355
10
1.8513929803265425
20
-0.8326237469540736
10
2.1013181149213556
20
-1.2655067781607798
10
2.5861683841109819
20
-1.2655067781607801
10
2.5861683841109819
20
-1.1955067781607798
10
2.5828611330719262
20
-1.19550677816078
10
2.5861683841109819
20
-1.1935973358831027
10
2.5861683841109819
20
-1.0955067781607799
10
2.5860662138288144
20
-1.0955067781607797
10
2.5861683841109819
20
-1.0954477901208668
10
2.5861683841109815
20
-0.61336031534752944
10
2.5855560397411663
20
-0.61300677816078009
10
2.5861683841109815
20
-0.6130067781607802
10
2.5861683841109815
20
-0.5152107695852931
10
2.5823509589842786
20
-0.51300677816078011
10
2.5861683841109815
20
-0.51300677816078
10
2.5861683841109815
20
-0.42572147786090109
10
2.2617807284807965
20
-0.61300677816078031
10
2.2611683841109813
20
-0.6130067781607802
10
2.2611683841109813
20
-0.61336031534752977
10
2.1405371719509749
20
-0.68300677816078026
10
2.1402892580916553
20
-0.68300677816078026
10
2.1403512365564854
20
-0.68311412801084082
10
2.0061172989698974
20
-0.76061412801084094
10
2.0835662138288136
20
-0.89475958353755958
10
2.0836683841109811
20
-0.89481857157747224
10
2.0836172989698971
20
-0.89484806559742891
10
2.0911172989698974
20
-0.90783844665419566
10
2.0911683841109818
20
-0.90780895263423889
10
2.0911683841109818
20
-0.90792692871406566
10
2.1685662138288131
20
-1.0419839021809134
10
2.1686683841109815
20
-1.0420428902208267
10
2.1686172989698971
20
-1.0420723842407835
10
2.1761172989698974
20
-1.0550627652975499
10
2.1761683841109818
20
-1.0550332712775932
10
2.1761683841109822
20
-1.0551512473574205
10
2.1994676606835917
20
-1.0955067781607795
10
2.2460662138288146
20
-1.0955067781607799
10
2.2461683841109821
20
-1.0954477901208668
10
2.2461683841109821
20
-1.0955067781607799
10
2.2611683841109818
20
-1.0955067781607795
10
2.2611683841109822
20
-1.095447790120867
10
2.2612705543931493
20
-1.0955067781607799
10
2.4160662138288131
20
-1.0955067781607801
10
2.416168384110982
20
-1.0954477901208668
10
2.4161683841109816
20
-0.72017011514761009
10
2.3461683841109817
20
-0.76058463399088394
10
2.3461683841109817
20
-0.74326412591519508
10
2.4236683841109814
20
-0.69851948005299935
10
2.4227803583845211
20
-0.69800677816078016
10
2.4161683841109816
20
-0.69418935303407747
10
2.4161683841109816
20
-0.69800677816078005
10
2.4227803583845211
20
-0.69800677816078016
10
2.4245564098374421
20
-0.69800677816078005
10
2.4311683841109817
20
-0.69418935303407714
10
2.4311683841109817
20
-1.0954477901208675
10
2.4312705543931488
20
-1.0955067781607799
10
2.4311683841109817
20
-1.0955067781607799
10
2.4311683841109817
20
-1.1080067781607801
10
2.2544155787342031
20
-1.1080067781607801
10
2.2536683841109815
20
-1.1084381711776339
10
2.2529211894877617
20
-1.1080067781607807
10
2.189364030972774
20
-1.1080067781607803
10
2.0912144852105374
20
-0.93800677816078026
10
2.0911683841109818
20
-0.93800677816078026
10
2.0911683841109818
20
-0.93792692871406502
10
2.078126917913131
20
-0.91533844665419528
10
2.0761683841109817
20
-0.91646920667208298
10
2.0761683841109817
20
-0.91194616660053207
10
2.0725854517152809
20
-0.90574034565109296
10
2.0686683841109814
20
-0.90347882561531689
10
2.0706269179131311
20
-0.90234806559742897
10
1.9931269179131308
20
-0.76811412801084067
10
1.9933128533076205
20
-0.76800677816078022
10
1.9930649394483015
20
-0.76800677816078022
10
1.9856269179131307
20
-0.75512374695407425
10
2.6011683841109812
20
-0.39974071574736803
10
2.6011683841109812
20
-0.61300677816078009
10
2.6017807284807968
20
-0.61300677816077997
10
2.6011683841109812
20
-0.61336031534752977
10
2.6011683841109816
20
-1.0954477901208668
10
2.6012705543931496
20
-1.0955067781607799
10
2.6011683841109816
20
-1.0955067781607801
10
2.6011683841109807
20
-1.28050677816078
10
2.7561683841109805
20
-1.28050677816078
10
2.756168384110981
20
-1.2655067781607801
10
3.256018653300607
20
-1.2655067781607801
10
3.4984437878954204
20
-0.84561412801084024
10
3.4378220096305094
20
-0.81061412801084032
10
3.4361683841109816
20
-0.81347829142735528
10
3.4361683841109811
20
-0.80965940687200166
10
3.3512194692520656
20
-0.76061412801084038
10
3.3511683841109821
20
-0.76070261007070905
10
3.3511683841109812
20
-0.76058463399088372
10
2.9336683841109812
20
-0.51954089660421554
10
2.9330560397411669
20
-0.51989443379096512
10
2.9333622119260743
20
-0.51936412801084075
10
2.8486683841109817
20
-0.47046612372309726
10
2.8448509589842788
20
-0.47267011514761081
10
2.84675967154763
20
-0.46936412801084049
10
2.7711683841109815
20
-0.4257214778609012
10
2.771168384110982
20
-0.80029207846065908
10
2.7708622119260742
20
-0.80082238424078345
10
2.771168384110982
20
-0.80099915283415823
10
2.7711683841109815
20
-0.94029207846065921
10
2.7710444271813217
20
-0.94050677816078054
10
2.771168384110982
20
-0.94050677816078021
10
2.771168384110982
20
-1.0955067781607803
10
2.9260662138288134
20
-1.0955067781607803
10
2.9261683841109813
20
-1.0954477901208677
10
2.9261683841109818
20
-1.0955067781607806
10
2.9411683841109819
20
-1.0955067781607806
10
2.9411683841109819
20
-1.095447790120867
10
2.9412705543931508
20
-1.0955067781607803
10
3.0960662138288129
20
-1.0955067781607803
10
3.0961683841109813
20
-1.0954477901208677
10
3.0961683841109817
20
-1.0955067781607806
10
3.1111683841109818
20
-1.0955067781607803
10
3.1111683841109818
20
-1.095447790120867
10
3.1112705543931507
20
-1.0955067781607803
10
3.15786910753837
20
-1.0955067781607803
10
3.1811683841109817
20
-1.0551512473574183
10
3.1811683841109817
20
-1.0550332712775932
10
3.1812194692520652
20
-1.0550627652975497
10
3.1887194692520655
20
-1.0420723842407829
10
3.1886683841109815
20
-1.0420428902208263
10
3.1887705543931495
20
-1.0419839021809139
10
3.2661683841109821
20
-0.907926928714065
10
3.2661683841109812
20
-0.90780895263423855
10
2.9411683841109815
20
-0.7201701151476102
10
2.9411683841109815
20
-0.8009991528341579
10
2.9261683841109813
20
-0.79233889879631347
10
2.9261683841109813
20
-0.70284960707192201
10
2.9252803583845215
20
-0.70336230896414098
10
2.918668384110982
20
-0.70717973409084389
10
2.9219743712477513
20
-0.70908844665419513
10
2.9252803583845215
20
-0.70336230896414098
10
2.9261683841109818
20
-0.70182420328748296
10
2.9261683841109818
20
-0.69418935303407725
10
3.2736683841109819
20
-0.89481857157747224
10
3.273770554393149
20
-0.8947595835375598
10
3.2737194692520659
20
-0.89484806559742847
10
3.2845447867993713
20
-0.90109806559742855
10
3.1961683841109814
20
-1.0541704852438858
10
3.1961683841109814
20
-1.0550332712775936
10
3.1954211894877611
20
-1.0554646642944467
10
3.1636426102302675
20
-1.11050677816078
10
2.9673435187057944
20
-1.11050677816078
10
2.9673204681560166
20
-1.1105467028841376
10
2.9672513165066832
20
-1.11050677816078
10
2.9411683841109815
20
-1.11050677816078
10
2.9411683841109815
20
-1.1127682981965559
10
2.9372513165066834
20
-1.1105067781607803
10
2.9300854517152808
20
-1.11050677816078
10
2.9261683841109818
20
-1.1127682981965561
10
2.9261683841109818
20
-1.1105067781607803
10
2.7711683841109815
20
-1.1105067781607803
10
2.7711683841109815
20
-1.1102920784606594
10
2.7710444271813222
20
-1.11050677816078
10
2.7561683841109819
20
-1.1105067781607803
10
2.7561683841109814
20
-0.39974071574736819
10
2.9408622119260737
20
-0.50637374695407444
10
2.9411683841109819
20
-0.50584344117394975
10
2.9411683841109815
20
-0.50655051554744923
10
3.358668384110981
20
-0.74759425293411774
10
3.3587705543931494
20
-0.74753526489420474
10
3.3587194692520659
20
-0.74762374695407441
10
3.5189341689521867
20
-0.84012374695407466
10
3.5964341689521864
20
-0.70588980936748646
10
3.5834437878954195
20
-0.6983898093674864
10
3.8333689224902332
20
-0.26550677816078178
10
3.5909437878954198
20
0.1543858719891604
10
3.5303220096305092
20
0.11938587198916051
10
3.5319756351500371
20
0.11652170857264557
10
3.5286683841109809
20
0.11843115085032184
10
3.4437194692520654
20
0.069385871989160242
10
3.4437705543931494
20
0.069297389929291228
10
3.4436683841109819
20
0.069356377969203561
10
3.0261683841109814
20
-0.17168735941746532
10
3.0261683841109819
20
-0.17239443379096414
10
3.0258622119260741
20
-0.17186412801084011
10
2.9411683841109819
20
-0.2207621322985836
10
2.9411683841109819
20
-0.22517011514760962
10
2.9392596715476302
20
-0.22186412801084002
10
2.8636683841109818
20
-0.26550677816077933
10
3.1880560397411668
20
-0.45279207846065805
10
3.1883622119260746
20
-0.45332238424078247
10
3.1886683841109815
20
-0.45314561564740768
10
3.3092995962709884
20
-0.52279207846065823
10
3.3094235532006482
20
-0.52300677816077923
10
3.3094855316654779
20
-0.52289942831071867
10
3.4437194692520663
20
-0.60039942831071891
10
3.521168384110982
20
-0.46625397278400038
10
3.521168384110982
20
-0.46613599670417433
10
3.521219469252066
20
-0.46616549072413066
10
3.5287194692520663
20
-0.45317510966736402
10
3.5286683841109814
20
-0.45314561564740768
10
3.5287705543931507
20
-0.4530866276074943
10
3.6061683841109811
20
-0.31902965414064588
10
3.606168384110982
20
-0.31891167806081983
10
3.6062194692520664
20
-0.31894117208077649
10
3.6137194692520658
20
-0.30595079102400952
10
3.6136683841109813
20
-0.30592129700405279
10
3.6137705543931506
20
-0.30586230896413941
10
3.6370698309657601
20
-0.26550677816078039
10
3.6137705543931489
20
-0.22515124735741782
10
3.6136683841109813
20
-0.22509225931750548
10
3.6137194692520653
20
-0.22506276529754879
10
3.606219469252065
20
-0.21207238424078245
10
3.6061683841109811
20
-0.21210187826073845
10
3.606168384110982
20
-0.21198390218091379
10
3.5287705543931498
20
-0.077926928714063995
10
3.5286683841109814
20
-0.077867940674150954
10
3.2036683841109816
20
-0.26550677816077967
10
3.2736683841109815
20
-0.30592129700405318
10
3.2586683841109814
20
-0.31458155104189761
10
3.1811683841109817
20
-0.26983690517970155
10
3.1811683841109817
20
-0.27086230896413988
10
3.1811683841109821
20
-0.27849715921754598
10
3.184474371247751
20
-0.27658844665419474
10
3.1811683841109817
20
-0.27086230896413988
10
3.1802803583845209
20
-0.26932420328748219
10
3.1736683841109814
20
-0.26550677816077894
10
3.521168384110982
20
-0.064877559617383937
10
3.521168384110982
20
-0.064759583537559617
10
3.5212194692520655
20
-0.064848065597427951
10
3.5320447867993714
20
-0.05859806559742748
10
3.6204211894877609
20
-0.21167048524388471
10
3.6211683841109821
20
-0.21210187826073915
10
3.6211683841109821
20
-0.21296466429444524
10
3.6529469633684752
20
-0.26800677816077906
10
3.5547974176062391
20
-0.43800677816077904
10
3.5548204681560169
20
-0.438046702884137
10
3.5547513165066831
20
-0.43808662760749428
10
3.5417098503088322
20
-0.46067510966736402
10
3.5436683841109815
20
-0.46180586968525178
10
3.5397513165066834
20
-0.46406738972102729
10
3.5361683841109821
20
-0.4702732106704664
10
3.5361683841109821
20
-0.47479625074201842
10
3.5342098503088328
20
-0.47366549072413067
10
3.4567098503088323
20
-0.60789942831071886
10
3.4565239149143427
20
-0.60779207846065841
10
3.4566478718440026
20
-0.60800677816077864
10
3.4492098503088329
20
-0.6208898093674855
10
2.833668384110982
20
-0.26550677816077967
10
3.0183622119260742
20
-0.1588737469540738
10
3.0180560397411664
20
-0.15834344117394905
10
3.018668384110982
20
-0.15869697836069899
10
3.4361683841109816
20
0.082346759025969871
10
3.4361683841109816
20
0.082464735105795939
10
3.4362194692520656
20
0.082376253045926565
10
3.5964341689521873
20
0.17487625304592569
10
3.5189341689521871
20
0.30911019063251388
10
3.5059437878954207
20
0.30161019063251421
10
3.2560186533006079
20
0.73449322183922061
10
2.7711683841109815
20
0.73449322183922128
10
2.771168384110982
20
0.66449322183922077
10
2.7744756351500373
20
0.66449322183922077
10
2.771168384110982
20
0.66258377956154346
10
2.771168384110982
20
0.56449322183922102
10
2.7712705543931491
20
0.56449322183922035
10
2.771168384110982
20
0.56443423379930757
10
2.771168384110982
20
0.082346759025970578
10
2.7717807284807972
20
0.081993221839221322
10
2.771168384110982
20
0.081993221839220976
10
2.771168384110982
20
-0.015802786736266002
10
2.7749858092376849
20
-0.018006778160778839
10
2.771168384110982
20
-0.01800677816077919
10
2.771168384110982
20
-0.10529207846065813
10
3.0955560397411666
20
0.081993221839220976
10
3.0961683841109822
20
0.081993221839220976
10
3.0961683841109822
20
0.082346759025970578
10
3.2167995962709885
20
0.15199322183922079
10
3.2170475101303078
20
0.15199322183922112
10
3.2169855316654781
20
0.15210057168928162
10
3.3512194692520665
20
0.22960057168928144
10
3.2737705543931499
20
0.36374602721599991
10
3.2736683841109828
20
0.36380501525591291
10
3.2737194692520668
20
0.36383450927586963
10
3.2662194692520665
20
0.37682489033263628
10
3.2661683841109821
20
0.37679539631267928
10
3.2661683841109821
20
0.376913372392506
10
3.1887705543931508
20
0.51097034585935441
10
3.1886683841109829
20
0.51102933389926775
10
3.1887194692520668
20
0.51105882791922419
10
3.1812194692520661
20
0.52404920897599083
10
3.1811683841109817
20
0.52401971495603372
10
3.1811683841109817
20
0.52413769103586128
10
3.1578691075383718
20
0.56449322183922035
10
3.1112705543931494
20
0.56449322183922035
10
3.1111683841109818
20
0.56443423379930757
10
3.1111683841109818
20
0.56449322183922035
10
3.0961683841109817
20
0.56449322183922035
10
3.0961683841109817
20
0.56443423379930757
10
3.0960662138288138
20
0.56449322183922035
10
2.9412705543931503
20
0.56449322183922168
10
2.9411683841109819
20
0.56443423379930757
10
2.9411683841109819
20
0.1891565588260509
10
3.0111683841109818
20
0.22957107766932475
10
3.0111683841109818
20
0.21225056959363583
10
2.9336683841109825
20
0.16750592373144049
10
2.9345564098374424
20
0.1669932218392208
10
2.9411683841109819
20
0.16317579671251825
10
2.9411683841109819
20
0.1669932218392208
10
2.9345564098374424
20
0.1669932218392208
10
2.9327803583845213
20
0.1669932218392208
10
2.9261683841109818
20
0.16317579671251792
10
2.9261683841109818
20
0.56443423379930835
10
2.9260662138288147
20
0.56449322183922035
10
2.9261683841109813
20
0.56449322183922102
10
2.9261683841109818
20
0.57699322183922053
10
3.1029211894877604
20
0.57699322183922053
10
3.1036683841109824
20
0.57742461485607499
10
3.1044155787342023
20
0.57699322183922119
10
3.1679727372491895
20
0.57699322183922053
10
3.266122283011426
20
0.40699322183922093
10
3.2661683841109821
20
0.40699322183922054
10
3.2661683841109821
20
0.40691337239250569
10
3.2792098503088325
20
0.38432489033263562
10
3.2811683841109822
20
0.38545565035052337
10
3.2811683841109822
20
0.38093261027897235
10
3.2847513165066831
20
0.37472678932953357
10
3.2886683841109821
20
0.3724652692937574
10
3.2867098503088328
20
0.37133450927586931
10
3.3642098503088325
20
0.23710057168928109
10
3.3640239149143434
20
0.23699322183922059
10
3.3642718287736622
20
0.23699322183922095
10
3.3717098503088323
20
0.22411019063251478
10
2.7561683841109823
20
-0.13127284057419147
10
2.7561683841109823
20
0.081993221839220629
10
2.7555560397411663
20
0.081993221839220976
10
2.7561683841109823
20
0.082346759025970218
10
2.7561683841109823
20
0.56443423379930757
10
2.7560662138288139
20
0.56449322183922102
10
2.7561683841109823
20
0.56449322183922102
10
2.7561683841109823
20
0.74949322183922129
10
2.6011683841109821
20
0.74949322183922062
10
2.6011683841109825
20
0.73449322183922061
10
2.1013181149213573
20
0.73449322183922128
10
1.8588929803265426
20
0.31460057168928124
10
1.9195147585914534
20
0.27960057168928099
10
1.9211683841109812
20
0.28246473510579595
10
1.9211683841109819
20
0.27864585055044233
10
2.0061172989698974
20
0.22960057168928108
10
2.0061683841109814
20
0.22968905374915011
10
2.0061683841109819
20
0.22957107766932475
10
2.4236683841109814
20
-0.01147265971734413
10
2.4242807284807966
20
-0.011119122530594536
10
2.4239745562958888
20
-0.011649428310718577
10
2.5086683841109814
20
-0.06054743259846207
10
2.5124858092376843
20
-0.058343441173948879
10
2.510577096674333
20
-0.061649428310718839
10
2.5861683841109815
20
-0.10529207846065813
10
2.5861683841109815
20
0.26927852213909975
10
2.5864745562958888
20
0.26980882791922378
10
2.5861683841109815
20
0.26998559651259857
10
2.5861683841109819
20
0.40927852213909971
10
2.5862923410406413
20
0.40949322183922066
10
2.5861683841109819
20
0.40949322183922066
10
2.5861683841109815
20
0.56449322183922046
10
2.4312705543931497
20
0.56449322183922079
10
2.4311683841109817
20
0.56443423379930813
10
2.4311683841109817
20
0.56449322183922079
10
2.4161683841109816
20
0.56449322183922079
10
2.4161683841109816
20
0.56443423379930746
10
2.4160662138288127
20
0.56449322183922079
10
2.2612705543931502
20
0.56449322183922068
10
2.2611683841109818
20
0.56443423379930791
10
2.2611683841109818
20
0.56449322183922113
10
2.2461683841109821
20
0.56449322183922079
10
2.2461683841109821
20
0.56443423379930746
10
2.2460662138288123
20
0.56449322183922079
10
2.1994676606835935
20
0.56449322183922113
10
2.1761683841109813
20
0.52413769103585861
10
2.1761683841109822
20
0.52401971495603361
10
2.1761172989698974
20
0.52404920897598994
10
2.168617298969898
20
0.5110588279192233
10
2.1686683841109815
20
0.51102933389926652
10
2.168566213828814
20
0.51097034585935464
10
2.0911683841109814
20
0.3769133723925055
10
2.0911683841109818
20
0.37679539631267905
10
2.416168384110982
20
0.1891565588260509
10
2.4161683841109816
20
0.26998559651259824
10
2.4311683841109817
20
0.26132534247475381
10
2.4311683841109817
20
0.17183605075036235
10
2.432056409837442
20
0.17234875264258134
10
2.4386683841109815
20
0.17616617776928459
10
2.4353623969742118
20
0.17807489033263585
10
2.432056409837442
20
0.17234875264258134
10
2.4311683841109817
20
0.17081064696592332
10
2.4311683841109817
20
0.16317579671251756
10
2.0836683841109811
20
0.36380501525591274
10
2.083566213828814
20
0.36374602721600041
10
2.0836172989698976
20
0.36383450927586874
10
2.0727919814225917
20
0.37008450927586889
10
2.1611683841109812
20
0.52315692892232613
10
2.1611683841109812
20
0.52401971495603394
10
2.1619155787342019
20
0.52445110797288697
10
2.193694157991696
20
0.5794932218392207
10
2.3899932495161686
20
0.57949322183922081
10
2.390016300065946
20
0.57953314656257804
10
2.3900854517152799
20
0.57949322183922047
10
2.4161683841109816
20
0.57949322183922047
10
2.4161683841109816
20
0.58175474187499598
10
2.4200854517152797
20
0.57949322183922047
10
2.4272513165066822
20
0.57949322183922047
10
2.4311683841109817
20
0.58175474187499665
10
2.4311683841109817
20
0.57949322183922047
10
2.5861683841109819
20
0.57949322183922047
10
2.5861683841109819
20
0.57927852213909947
10
2.5862923410406413
20
0.57949322183922014
10
2.6011683841109816
20
0.57949322183922047
10
2.6011683841109816
20
-0.13127284057419111
10
2.4164745562958894
20
-0.024639809367484895
10
2.4161683841109816
20
-0.025170115147609636
10
2.4161683841109816
20
-0.024463040774110097
10
1.9986683841109818
20
0.21658069661255841
10
1.9985662138288132
20
0.21652170857264574
10
1.9986172989698971
20
0.2166101906325151
10
1.838402599269777
20
0.3091101906325156
10
1.7609025992697764
20
0.17487625304592744
10
1.7738929803265431
20
0.16737625304592743
0
ENDSEC
0
SECTION
2
OBJECTS
0
DICTIONARY
5
C
100
AcDbDictionary
3
ACAD_GROUP
350
D
3
ACAD_MLINESTYLE
350
17
0
DICTIONARY
5
D
100
AcDbDictionary
0
DICTIONARY
5
1A
330
C
100
AcDbDictionary
0
DICTIONARY
5
17
100
AcDbDictionary
0
ENDSEC
0
EOF
