0
SECTION
2
HEADER
9
$INSUNITS
70
1
9
$ACADVER
1
AC1014
9
$HANDSEED
5
FFFF
0
ENDSEC
0
SECTION
2
TABLES
0
TABLE
2
VPORT
5
8
100
AcDbSymbolTable
0
ENDTAB
0
TABLE
2
LTYPE
5
5
100
AcDbSymbolTable
0
LTYPE
5
14
100
AcDbSymbolTableRecord
100
AcDbLinetypeTableRecord
2
BYBLOCK
70
0
0
LTYPE
5
15
100
AcDbSymbolTableRecord
100
AcDbLinetypeTableRecord
2
BYLAYER
70
0
0
ENDTAB
0
TABLE
2
LAYER
5
2
100
AcDbSymbolTable
70
2
0
LAYER
5
50
100
AcDbSymbolTableRecord
100
AcDbLayerTableRecord
2
0
70
0
6
CONTINUOUS
0
ENDTAB
0
TABLE
2
STYLE
5
3
100
AcDbSymbolTable
70
1
0
STYLE
5
11
100
AcDbSymbolTableRecord
100
AcDbTextStyleTableRecord
2
STANDARD
70
0
0
ENDTAB
0
TABLE
2
VIEW
5
6
100
AcDbSymbolTable
70
0
0
ENDTAB
0
TABLE
2
UCS
5
7
100
AcDbSymbolTable
70
0
0
ENDTAB
0
TABLE
2
APPID
5
9
100
AcDbSymbolTable
70
2
0
APPID
5
12
100
AcDbSymbolTableRecord
100
AcDbRegAppTableRecord
2
ACAD
70
0
0
ENDTAB
0
TABLE
2
DIMSTYLE
5
A
100
AcDbSymbolTable
70
1
0
ENDTAB
0
TABLE
2
BLOCK_RECORD
5
1
100
AcDbSymbolTable
70
1
0
BLOCK_RECORD
5
1F
100
AcDbSymbolTableRecord
100
AcDbBlockTableRecord
2
*MODEL_SPACE
0
BLOCK_RECORD
5
1B
100
AcDbSymbolTableRecord
100
AcDbBlockTableRecord
2
*PAPER_SPACE
0
ENDTAB
0
ENDSEC
0
SECTION
2
BLOCKS
0
BLOCK
5
20
100
AcDbEntity
100
AcDbBlockBegin
2
*MODEL_SPACE
0
ENDBLK
5
21
100
AcDbEntity
100
AcDbBlockEnd
0
BLOCK
5
1C
100
AcDbEntity
100
AcDbBlockBegin
2
*PAPER_SPACE
0
ENDBLK
5
1D
100
AcDbEntity
100
AcDbBlockEnd
0
ENDSEC
0
SECTION
2
ENTITIES
0
LWPOLYLINE
5
100
100
AcDbEntity
8
0
100
AcDbPolyline
90
84
70
1
43
0.0
10
-2.6958439783797736
20
-0.52944286589964618
10
-2.0135685745953347
20
-0.92335475393605182
10
-2.0135685745953347
20
-0.35053097786323961
10
-2.2259317307253177
20
-0.35053097786323922
10
-2.2172714766874733
20
-0.3355309778632396
10
-1.9985685745953341
20
-0.3355309778632396
10
-1.9985685745953345
20
-0.94933551604958555
10
-2.2421854508645591
20
-0.80868324695641247
10
-2.2435685745953338
20
-0.81107888753126867
10
-2.2435685745953347
20
-0.80788470009812674
10
-2.7163343594365399
20
-0.53493324695641231
10
-2.8238343594365398
20
-0.72112870877006607
10
-2.8108439783797734
20
-0.72862870877006614
10
-3.0457691129745861
20
-1.1355309778632394
10
-2.8183439783797732
20
-1.529442865899646
10
-2.1360685745953347
20
-1.1355309778632396
10
-2.6321485165661187
20
-0.84911908982683337
10
-2.7383300946311109
20
-1.0330309778632392
10
-2.7469903486689549
20
-1.0180309778632395
10
-2.6376388976228853
20
-0.82862870877006645
10
-2.1060685745953345
20
-1.1355309778632396
10
-2.3496854508645595
20
-1.2761832469564125
10
-2.3483023271337848
20
-1.2785788875312687
10
-2.3510685745953341
20
-1.2769817938146979
10
-2.8238343594365403
20
-1.5499332469564124
10
-2.7163343594365403
20
-1.7361287087700663
10
-2.7033439783797735
20
-1.7286287087700662
10
-2.4684188437849608
20
-2.1355309778632399
10
-2.0135685745953342
20
-2.1355309778632399
10
-2.0135685745953347
20
-1.3477072017904275
10
-2.5096485165661191
20
-1.6341190898268334
10
-2.4034669385011282
20
-1.8180309778632397
10
-2.4207874465768167
20
-1.8180309778632393
10
-2.5301388976228862
20
-1.6286287087700664
10
-1.9985685745953348
20
-1.321726439676894
10
-1.9985685745953354
20
-1.603030977863239
10
-1.9958023271337857
20
-1.6030309778632394
10
-1.9985685745953354
20
-1.6046280715798105
10
-1.9985685745953348
20
-2.15053097786324
10
-1.7835685745953351
20
-2.15053097786324
10
-1.7835685745953351
20
-2.1355309778632399
10
-1.3137183054057098
20
-2.1355309778632399
10
-1.0862931708108963
20
-1.741619089826834
10
-1.7685685745953348
20
-1.3477072017904272
10
-1.7685685745953352
20
-1.9205309778632396
10
-1.5562054184653522
20
-1.9205309778632405
10
-1.5648656725031966
20
-1.9355309778632399
10
-1.7835685745953356
20
-1.9355309778632399
10
-1.7835685745953351
20
-1.321726439676894
10
-1.5399516983261103
20
-1.462378708770067
10
-1.5385685745953352
20
-1.4599830681952108
10
-1.538568574595335
20
-1.4631772556283529
10
-1.0658027897541296
20
-1.7361287087700676
10
-0.95830278975412952
20
-1.5499332469564135
10
-0.97129317081089617
20
-1.5424332469564137
10
-0.73636803621608271
20
-1.1355309778632408
10
-0.96379317081089544
20
-0.741619089826834
10
-1.6460685745953345
20
-1.1355309778632401
10
-1.1499886326245503
20
-1.4219428658996465
10
-1.0438070545595588
20
-1.2380309778632406
10
-1.0351468005217148
20
-1.2530309778632402
10
-1.144498251567784
20
-1.4424332469564134
10
-1.676068574595335
20
-1.1355309778632401
10
-1.4324516983261097
20
-0.99487870877006712
10
-1.4338348220568844
20
-0.99248306819521093
10
-1.4310685745953344
20
-0.99408016191178161
10
-0.95830278975412897
20
-0.72112870877006741
10
-1.0658027897541287
20
-0.53493324695641331
10
-1.0787931708108951
20
-0.54243324695641337
10
-1.3137183054057087
20
-0.13553097786323962
10
-1.7685685745953343
20
-0.13553097786323942
10
-1.7685685745953343
20
-0.92335475393605226
10
-1.2724886326245504
20
-0.63694286589964588
10
-1.3786702106895414
20
-0.45303097786323954
10
-1.3613497026138528
20
-0.4530309778632397
10
-1.2519982515677834
20
-0.64243324695641268
10
-1.7835685745953345
20
-0.94933551604958555
10
-1.7835685745953345
20
-0.66803097786323984
10
-1.7863348220568842
20
-0.66803097786323984
10
-1.7835685745953347
20
-0.66643388414666904
10
-1.7835685745953345
20
-0.12053097786323942
10
-1.9985685745953341
20
-0.12053097786323942
10
-1.9985685745953341
20
-0.13553097786323942
10
-2.4684188437849603
20
-0.13553097786323925
0
LWPOLYLINE
5
101
100
AcDbEntity
8
0
100
AcDbPolyline
90
3
70
1
43
0.0
10
-1.4244982515677833
20
-0.34365448265078125
10
-1.4235685745953344
20
-0.34311773340047841
10
-1.4235685745953346
20
-0.34526473040168931
0
LWPOLYLINE
5
102
100
AcDbEntity
8
0
100
AcDbPolyline
90
3
70
1
43
0.0
10
-0.97199825156778397
20
-1.143654482650782
10
-0.97106857459533491
20
-1.144191231901085
10
-0.97292792854023269
20
-1.1452647304016901
0
LWPOLYLINE
5
103
100
AcDbEntity
8
0
100
AcDbPolyline
90
3
70
1
43
0.0
10
-1.4385685745953356
20
-1.9355309778632404
10
-1.4385685745953356
20
-1.9366044763638459
10
-1.4404279285402328
20
-1.9355309778632404
0
LWPOLYLINE
5
104
100
AcDbEntity
8
0
100
AcDbPolyline
90
3
70
1
43
0.0
10
-2.3576388976228859
20
-1.927407473075698
10
-2.3585685745953349
20
-1.9279442223260008
10
-2.3585685745953344
20
-1.9257972253247899
0
LWPOLYLINE
5
105
100
AcDbEntity
8
0
100
AcDbPolyline
90
3
70
1
43
0.0
10
-2.8101388976228856
20
-1.1274074730756978
10
-2.8110685745953345
20
-1.126870723825395
10
-2.8092092206504367
20
-1.1257972253247897
0
LWPOLYLINE
5
106
100
AcDbEntity
8
0
100
AcDbPolyline
90
3
70
1
43
0.0
10
-2.3435685745953343
20
-0.3355309778632396
10
-2.3435685745953343
20
-0.33445747936263398
10
-2.3417092206504369
20
-0.3355309778632396
0
LWPOLYLINE
5
107
100
AcDbEntity
8
0
100
AcDbPolyline
90
102
70
1
43
0.0
10
-2.5592414380013295
20
-0.49284032552120216
10
-2.4106838168659976
20
-0.23553097786323959
10
-1.8835685745953346
20
-0.23553097786323959
10
-1.8835685745953346
20
-1.1225405968064732
10
-1.3235685745953347
20
-0.79922444606028287
10
-1.3235685745953347
20
-0.79803097786323973
10
-1.3215014270408385
20
-0.79803097786323984
10
-1.1283860922461062
20
-0.6865357873348561
10
-1.3801135863625156
20
-0.2505309778632398
10
-1.6535685745953346
20
-0.2505309778632398
10
-1.6535685745953346
20
-0.72416891106563142
10
-1.5610685745953345
20
-0.67076401116559103
10
-1.5460685745953344
20
-0.67942426520343535
10
-1.6685685745953347
20
-0.7501496731791647
10
-1.6685685745953347
20
-0.3355309778632396
10
-1.6704279285402326
20
-0.3355309778632396
10
-1.6685685745953347
20
-0.33445747936263398
10
-1.6685685745953347
20
-0.23553097786323959
10
-1.3714533323246711
20
-0.23553097786323959
10
-1.1078957111893395
20
-0.69202616839162279
10
-1.8760685745953349
20
-1.1355309778632396
10
-1.3160685745953351
20
-1.4588471286094304
10
-1.3150350008180869
20
-1.4582503945109091
10
-1.3140014270408389
20
-1.4600405968064736
10
-1.1208860922461061
20
-1.5715357873348572
10
-0.86915859812969709
20
-1.1355309778632408
10
-1.0058860922461066
20
-0.89871201126204447
10
-1.4160685745953348
20
-1.1355309778632401
10
-1.3235685745953347
20
-1.1889358777632806
10
-1.3235685745953347
20
-1.2062563858389694
10
-1.446068574595335
20
-1.1355309778632401
10
-1.0869982515677838
20
-0.92822163020527793
10
-1.0879279285402328
20
-0.92661138245436947
10
-1.0860685745953347
20
-0.92768488095497492
10
-1.0003957111893398
20
-0.87822163020527788
10
-0.8518380900540079
20
-1.1355309778632408
10
-1.1153957111893398
20
-1.5920261683916239
10
-1.8835685745953346
20
-1.1485213589200061
10
-1.883568574595335
20
-1.7951536604123868
10
-1.8825350008180872
20
-1.7957503945109086
10
-1.883568574595335
20
-1.7975405968064726
10
-1.8835685745953352
20
-2.0205309778632401
10
-1.3801135863625169
20
-2.0205309778632401
10
-1.2433860922461071
20
-1.7837120112620442
10
-1.653568574595335
20
-1.546893044660848
10
-1.6535685745953352
20
-1.653702844460929
10
-1.6685685745953354
20
-1.6623630984987736
10
-1.6685685745953354
20
-1.5209122825473147
10
-1.309498251567784
20
-1.7282216302052775
10
-1.308568574595335
20
-1.7266113824543694
10
-1.308568574595335
20
-1.7287583794555803
10
-1.2228957111893404
20
-1.7782216302052778
10
-1.371453332324672
20
-2.0355309778632402
10
-1.8985685745953353
20
-2.0355309778632402
10
-1.8985685745953347
20
-1.1485213589200061
10
-2.4585685745953345
20
-1.4718375096661964
10
-2.458568574595335
20
-1.4730309778632396
10
-2.460635722149831
20
-1.4730309778632396
10
-2.6537510569445635
20
-1.5845261683916232
10
-2.4020235628281537
20
-2.0205309778632397
10
-2.1285685745953349
20
-2.0205309778632397
10
-2.1285685745953344
20
-1.546893044660848
10
-2.2210685745953351
20
-1.6002979445608883
10
-2.2360685745953353
20
-1.591637690523044
10
-2.1135685745953348
20
-1.5209122825473147
10
-2.1135685745953348
20
-1.9355309778632397
10
-2.1117092206504369
20
-1.9355309778632397
10
-2.1135685745953348
20
-1.9366044763638453
10
-2.1135685745953348
20
-2.0355309778632398
10
-2.4106838168659981
20
-2.0355309778632398
10
-2.6742414380013293
20
-1.5790357873348562
10
-1.9060685745953343
20
-1.1355309778632396
10
-2.4660685745953339
20
-0.81221482711704918
10
-2.4671021483725823
20
-0.81281156121557074
10
-2.4681357221498303
20
-0.81102135892000615
10
-2.6612510569445633
20
-0.69952616839162274
10
-2.9129785510609723
20
-1.135530977863239
10
-2.7762510569445626
20
-1.3723499444644354
10
-2.3660685745953343
20
-1.1355309778632396
10
-2.458568574595335
20
-1.0821260779631989
10
-2.458568574595335
20
-1.0648055698875103
10
-2.3360685745953345
20
-1.1355309778632396
10
-2.6951388976228854
20
-1.342840325521202
10
-2.6942092206504364
20
-1.3444505732721104
10
-2.6960685745953343
20
-1.3433770747715048
10
-2.7817414380013297
20
-1.3928403255212021
10
-2.9302990591366616
20
-1.1355309778632392
10
-2.6667414380013295
20
-0.67903578733485592
10
-1.8985685745953347
20
-1.1225405968064734
10
-1.8985685745953347
20
-0.4759082953140924
10
-1.8996021483725827
20
-0.47531156121557072
10
-1.8985685745953347
20
-0.47352135892000619
10
-1.8985685745953347
20
-0.25053097786323908
10
-2.4020235628281532
20
-0.25053097786323941
10
-2.5387510569445628
20
-0.48734994446443547
10
-2.1285685745953344
20
-0.7241689110656313
10
-2.1285685745953344
20
-0.61735911126555043
10
-2.1135685745953348
20
-0.60869885722770611
10
-2.1135685745953348
20
-0.75014967317916459
10
-2.4726388976228857
20
-0.54284032552120209
10
-2.4735685745953346
20
-0.54445057327211044
10
-2.4735685745953346
20
-0.5423035762708992
0
LWPOLYLINE
5
108
100
AcDbEntity
8
0
100
AcDbPolyline
90
84
70
1
43
0.0
10
-2.6958439783797736
20
-0.52944286589964618
10
-2.0135685745953347
20
-0.92335475393605182
10
-2.0135685745953347
20
-0.35053097786323961
10
-2.2259317307253177
20
-0.35053097786323922
10
-2.2172714766874733
20
-0.3355309778632396
10
-1.9985685745953341
20
-0.3355309778632396
10
-1.9985685745953345
20
-0.94933551604958555
10
-2.2421854508645591
20
-0.80868324695641247
10
-2.2435685745953338
20
-0.81107888753126867
10
-2.2435685745953347
20
-0.80788470009812674
10
-2.7163343594365399
20
-0.53493324695641231
10
-2.8238343594365398
20
-0.72112870877006607
10
-2.8108439783797734
20
-0.72862870877006614
10
-3.0457691129745861
20
-1.1355309778632394
10
-2.8183439783797732
20
-1.529442865899646
10
-2.1360685745953347
20
-1.1355309778632396
10
-2.6321485165661187
20
-0.84911908982683337
10
-2.7383300946311109
20
-1.0330309778632392
10
-2.7469903486689549
20
-1.0180309778632395
10
-2.6376388976228853
20
-0.82862870877006645
10
-2.1060685745953345
20
-1.1355309778632396
10
-2.3496854508645595
20
-1.2761832469564125
10
-2.3483023271337848
20
-1.2785788875312687
10
-2.3510685745953341
20
-1.2769817938146979
10
-2.8238343594365403
20
-1.5499332469564124
10
-2.7163343594365403
20
-1.7361287087700663
10
-2.7033439783797735
20
-1.7286287087700662
10
-2.4684188437849608
20
-2.1355309778632399
10
-2.0135685745953342
20
-2.1355309778632399
10
-2.0135685745953347
20
-1.3477072017904275
10
-2.5096485165661191
20
-1.6341190898268334
10
-2.4034669385011282
20
-1.8180309778632397
10
-2.4207874465768167
20
-1.8180309778632393
10
-2.5301388976228862
20
-1.6286287087700664
10
-1.9985685745953348
20
-1.321726439676894
10
-1.9985685745953354
20
-1.603030977863239
10
-1.9958023271337857
20
-1.6030309778632394
10
-1.9985685745953354
20
-1.6046280715798105
10
-1.9985685745953348
20
-2.15053097786324
10
-1.7835685745953351
20
-2.15053097786324
10
-1.7835685745953351
20
-2.1355309778632399
10
-1.3137183054057098
20
-2.1355309778632399
10
-1.0862931708108963
20
-1.741619089826834
10
-1.7685685745953348
20
-1.3477072017904272
10
-1.7685685745953352
20
-1.9205309778632396
10
-1.5562054184653522
20
-1.9205309778632405
10
-1.5648656725031966
20
-1.9355309778632399
10
-1.7835685745953356
20
-1.9355309778632399
10
-1.7835685745953351
20
-1.321726439676894
10
-1.5399516983261103
20
-1.462378708770067
10
-1.5385685745953352
20
-1.4599830681952108
10
-1.538568574595335
20
-1.4631772556283529
10
-1.0658027897541296
20
-1.7361287087700676
10
-0.95830278975412952
20
-1.5499332469564135
10
-0.97129317081089617
20
-1.5424332469564137
10
-0.73636803621608271
20
-1.1355309778632408
10
-0.96379317081089544
20
-0.741619089826834
10
-1.6460685745953345
20
-1.1355309778632401
10
-1.1499886326245503
20
-1.4219428658996465
10
-1.0438070545595588
20
-1.2380309778632406
10
-1.0351468005217148
20
-1.2530309778632402
10
-1.144498251567784
20
-1.4424332469564134
10
-1.676068574595335
20
-1.1355309778632401
10
-1.4324516983261097
20
-0.99487870877006712
10
-1.4338348220568844
20
-0.99248306819521093
10
-1.4310685745953344
20
-0.99408016191178161
10
-0.95830278975412897
20
-0.72112870877006741
10
-1.0658027897541287
20
-0.53493324695641331
10
-1.0787931708108951
20
-0.54243324695641337
10
-1.3137183054057087
20
-0.13553097786323962
10
-1.7685685745953343
20
-0.13553097786323942
10
-1.7685685745953343
20
-0.92335475393605226
10
-1.2724886326245504
20
-0.63694286589964588
10
-1.3786702106895414
20
-0.45303097786323954
10
-1.3613497026138528
20
-0.4530309778632397
10
-1.2519982515677834
20
-0.64243324695641268
10
-1.7835685745953345
20
-0.94933551604958555
10
-1.7835685745953345
20
-0.66803097786323984
10
-1.7863348220568842
20
-0.66803097786323984
10
-1.7835685745953347
20
-0.66643388414666904
10
-1.7835685745953345
20
-0.12053097786323942
10
-1.9985685745953341
20
-0.12053097786323942
10
-1.9985685745953341
20
-0.13553097786323942
10
-2.4684188437849603
20
-0.13553097786323925
0
LWPOLYLINE
5
109
100
AcDbEntity
8
0
100
AcDbPolyline
90
3
70
1
43
0.0
10
-1.4244982515677833
20
-0.34365448265078125
10
-1.4235685745953344
20
-0.34311773340047841
10
-1.4235685745953346
20
-0.34526473040168931
0
LWPOLYLINE
5
110
100
AcDbEntity
8
0
100
AcDbPolyline
90
3
70
1
43
0.0
10
-0.97199825156778397
20
-1.143654482650782
10
-0.97106857459533491
20
-1.144191231901085
10
-0.97292792854023269
20
-1.1452647304016901
0
LWPOLYLINE
5
111
100
AcDbEntity
8
0
100
AcDbPolyline
90
3
70
1
43
0.0
10
-1.4385685745953356
20
-1.9355309778632404
10
-1.4385685745953356
20
-1.9366044763638459
10
-1.4404279285402328
20
-1.9355309778632404
0
LWPOLYLINE
5
112
100
AcDbEntity
8
0
100
AcDbPolyline
90
3
70
1
43
0.0
10
-2.3576388976228859
20
-1.927407473075698
10
-2.3585685745953349
20
-1.9279442223260008
10
-2.3585685745953344
20
-1.9257972253247899
0
LWPOLYLINE
5
113
100
AcDbEntity
8
0
100
AcDbPolyline
90
3
70
1
43
0.0
10
-2.8101388976228856
20
-1.1274074730756978
10
-2.8110685745953345
20
-1.126870723825395
10
-2.8092092206504367
20
-1.1257972253247897
0
LWPOLYLINE
5
114
100
AcDbEntity
8
0
100
AcDbPolyline
90
3
70
1
43
0.0
10
-2.3435685745953343
20
-0.3355309778632396
10
-2.3435685745953343
20
-0.33445747936263398
10
-2.3417092206504369
20
-0.3355309778632396
0
LWPOLYLINE
5
115
100
AcDbEntity
8
0
100
AcDbPolyline
90
102
70
1
43
0.0
10
-2.5592414380013295
20
-0.49284032552120216
10
-2.4106838168659976
20
-0.23553097786323959
10
-1.8835685745953346
20
-0.23553097786323959
10
-1.8835685745953346
20
-1.1225405968064732
10
-1.3235685745953347
20
-0.79922444606028287
10
-1.3235685745953347
20
-0.79803097786323973
10
-1.3215014270408385
20
-0.79803097786323984
10
-1.1283860922461062
20
-0.6865357873348561
10
-1.3801135863625156
20
-0.2505309778632398
10
-1.6535685745953346
20
-0.2505309778632398
10
-1.6535685745953346
20
-0.72416891106563142
10
-1.5610685745953345
20
-0.67076401116559103
10
-1.5460685745953344
20
-0.67942426520343535
10
-1.6685685745953347
20
-0.7501496731791647
10
-1.6685685745953347
20
-0.3355309778632396
10
-1.6704279285402326
20
-0.3355309778632396
10
-1.6685685745953347
20
-0.33445747936263398
10
-1.6685685745953347
20
-0.23553097786323959
10
-1.3714533323246711
20
-0.23553097786323959
10
-1.1078957111893395
20
-0.69202616839162279
10
-1.8760685745953349
20
-1.1355309778632396
10
-1.3160685745953351
20
-1.4588471286094304
10
-1.3150350008180869
20
-1.4582503945109091
10
-1.3140014270408389
20
-1.4600405968064736
10
-1.1208860922461061
20
-1.5715357873348572
10
-0.86915859812969709
20
-1.1355309778632408
10
-1.0058860922461066
20
-0.89871201126204447
10
-1.4160685745953348
20
-1.1355309778632401
10
-1.3235685745953347
20
-1.1889358777632806
10
-1.3235685745953347
20
-1.2062563858389694
10
-1.446068574595335
20
-1.1355309778632401
10
-1.0869982515677838
20
-0.92822163020527793
10
-1.0879279285402328
20
-0.92661138245436947
10
-1.0860685745953347
20
-0.92768488095497492
10
-1.0003957111893398
20
-0.87822163020527788
10
-0.8518380900540079
20
-1.1355309778632408
10
-1.1153957111893398
20
-1.5920261683916239
10
-1.8835685745953346
20
-1.1485213589200061
10
-1.883568574595335
20
-1.7951536604123868
10
-1.8825350008180872
20
-1.7957503945109086
10
-1.883568574595335
20
-1.7975405968064726
10
-1.8835685745953352
20
-2.0205309778632401
10
-1.3801135863625169
20
-2.0205309778632401
10
-1.2433860922461071
20
-1.7837120112620442
10
-1.653568574595335
20
-1.546893044660848
10
-1.6535685745953352
20
-1.653702844460929
10
-1.6685685745953354
20
-1.6623630984987736
10
-1.6685685745953354
20
-1.5209122825473147
10
-1.309498251567784
20
-1.7282216302052775
10
-1.308568574595335
20
-1.7266113824543694
10
-1.308568574595335
20
-1.7287583794555803
10
-1.2228957111893404
20
-1.7782216302052778
10
-1.371453332324672
20
-2.0355309778632402
10
-1.8985685745953353
20
-2.0355309778632402
10
-1.8985685745953347
20
-1.1485213589200061
10
-2.4585685745953345
20
-1.4718375096661964
10
-2.458568574595335
20
-1.4730309778632396
10
-2.460635722149831
20
-1.4730309778632396
10
-2.6537510569445635
20
-1.5845261683916232
10
-2.4020235628281537
20
-2.0205309778632397
10
-2.1285685745953349
20
-2.0205309778632397
10
-2.1285685745953344
20
-1.546893044660848
10
-2.2210685745953351
20
-1.6002979445608883
10
-2.2360685745953353
20
-1.591637690523044
10
-2.1135685745953348
20
-1.5209122825473147
10
-2.1135685745953348
20
-1.9355309778632397
10
-2.1117092206504369
20
-1.9355309778632397
10
-2.1135685745953348
20
-1.9366044763638453
10
-2.1135685745953348
20
-2.0355309778632398
10
-2.4106838168659981
20
-2.0355309778632398
10
-2.6742414380013293
20
-1.5790357873348562
10
-1.9060685745953343
20
-1.1355309778632396
10
-2.4660685745953339
20
-0.81221482711704918
10
-2.4671021483725823
20
-0.81281156121557074
10
-2.4681357221498303
20
-0.81102135892000615
10
-2.6612510569445633
20
-0.69952616839162274
10
-2.9129785510609723
20
-1.135530977863239
10
-2.7762510569445626
20
-1.3723499444644354
10
-2.3660685745953343
20
-1.1355309778632396
10
-2.458568574595335
20
-1.0821260779631989
10
-2.458568574595335
20
-1.0648055698875103
10
-2.3360685745953345
20
-1.1355309778632396
10
-2.6951388976228854
20
-1.342840325521202
10
-2.6942092206504364
20
-1.3444505732721104
10
-2.6960685745953343
20
-1.3433770747715048
10
-2.7817414380013297
20
-1.3928403255212021
10
-2.9302990591366616
20
-1.1355309778632392
10
-2.6667414380013295
20
-0.67903578733485592
10
-1.8985685745953347
20
-1.1225405968064734
10
-1.8985685745953347
20
-0.4759082953140924
10
-1.8996021483725827
20
-0.47531156121557072
10
-1.8985685745953347
20
-0.47352135892000619
10
-1.8985685745953347
20
-0.25053097786323908
10
-2.4020235628281532
20
-0.25053097786323941
10
-2.5387510569445628
20
-0.48734994446443547
10
-2.1285685745953344
20
-0.7241689110656313
10
-2.1285685745953344
20
-0.61735911126555043
10
-2.1135685745953348
20
-0.60869885722770611
10
-2.1135685745953348
20
-0.75014967317916459
10
-2.4726388976228857
20
-0.54284032552120209
10
-2.4735685745953346
20
-0.54445057327211044
10
-2.4735685745953346
20
-0.5423035762708992
0
ENDSEC
0
SECTION
2
OBJECTS
0
DICTIONARY
5
C
100
AcDbDictionary
3
ACAD_GROUP
350
D
3
ACAD_MLINESTYLE
350
17
0
DICTIONARY
5
D
100
AcDbDictionary
0
DICTIONARY
5
1A
330
C
100
AcDbDictionary
0
DICTIONARY
5
17
100
AcDbDictionary
0
ENDSEC
0
EOF
