0
SECTION
2
HEADER
9
$INSUNITS
70
1
9
$ACADVER
1
AC1014
9
$HANDSEED
5
FFFF
0
ENDSEC
0
SECTION
2
TABLES
0
TABLE
2
VPORT
5
8
100
AcDbSymbolTable
0
ENDTAB
0
TABLE
2
LTYPE
5
5
100
AcDbSymbolTable
0
LTYPE
5
14
100
AcDbSymbolTableRecord
100
AcDbLinetypeTableRecord
2
BYBLOCK
70
0
0
LTYPE
5
15
100
AcDbSymbolTableRecord
100
AcDbLinetypeTableRecord
2
BYLAYER
70
0
0
ENDTAB
0
TABLE
2
LAYER
5
2
100
AcDbSymbolTable
70
2
0
LAYER
5
50
100
AcDbSymbolTableRecord
100
AcDbLayerTableRecord
2
0
70
0
6
CONTINUOUS
0
ENDTAB
0
TABLE
2
STYLE
5
3
100
AcDbSymbolTable
70
1
0
STYLE
5
11
100
AcDbSymbolTableRecord
100
AcDbTextStyleTableRecord
2
STANDARD
70
0
0
ENDTAB
0
TABLE
2
VIEW
5
6
100
AcDbSymbolTable
70
0
0
ENDTAB
0
TABLE
2
UCS
5
7
100
AcDbSymbolTable
70
0
0
ENDTAB
0
TABLE
2
APPID
5
9
100
AcDbSymbolTable
70
2
0
APPID
5
12
100
AcDbSymbolTableRecord
100
AcDbRegAppTableRecord
2
ACAD
70
0
0
ENDTAB
0
TABLE
2
DIMSTYLE
5
A
100
AcDbSymbolTable
70
1
0
ENDTAB
0
TABLE
2
BLOCK_RECORD
5
1
100
AcDbSymbolTable
70
1
0
BLOCK_RECORD
5
1F
100
AcDbSymbolTableRecord
100
AcDbBlockTableRecord
2
*MODEL_SPACE
0
BLOCK_RECORD
5
1B
100
AcDbSymbolTableRecord
100
AcDbBlockTableRecord
2
*PAPER_SPACE
0
ENDTAB
0
ENDSEC
0
SECTION
2
BLOCKS
0
BLOCK
5
20
100
AcDbEntity
100
AcDbBlockBegin
2
*MODEL_SPACE
0
ENDBLK
5
21
100
AcDbEntity
100
AcDbBlockEnd
0
BLOCK
5
1C
100
AcDbEntity
100
AcDbBlockBegin
2
*PAPER_SPACE
0
ENDBLK
5
1D
100
AcDbEntity
100
AcDbBlockEnd
0
ENDSEC
0
SECTION
2
ENTITIES
0
LWPOLYLINE
5
100
100
AcDbEntity
8
0
100
AcDbPolyline
90
384
70
1
43
0.0
10
-6.0683803046390441
20
-4.6592956238435637
10
-5.2756145197978395
20
-4.2015920845611694
10
-5.3331145197978396
20
-4.1019991631259582
10
-5.3461049008546064
20
-4.1094991631259585
10
-5.606030035449419
20
-3.6592956238435637
10
-6.1108803046390445
20
-3.6592956238435637
10
-6.1108803046390445
20
-3.7242956238435636
10
-6.1089127995621455
20
-3.7242956238435636
10
-6.1108803046390445
20
-3.7254315634293427
10
-6.1108803046390445
20
-4.5337219402948197
10
-5.4661882033465838
20
-4.1615087820691912
10
-5.4746828492087802
20
-4.1467956238435635
10
-5.4758803046390447
20
-4.1467956238435635
10
-5.4758803046390447
20
-4.1447215701985449
10
-5.5236882033465839
20
-4.0619158606339809
10
-5.5258803046390446
20
-4.063181470905274
10
-5.5258803046390446
20
-4.0581190298201015
10
-5.5872661517007565
20
-3.9517956238435641
10
-5.5929543582840653
20
-3.9517956238435641
10
-5.590880304639045
20
-3.9505981684132969
10
-5.590880304639045
20
-3.9455357273281235
10
-5.6536882033465838
20
-3.8367492556500276
10
-5.6558803046390453
20
-3.8380148659213198
10
-5.6558803046390453
20
-3.8329524248361464
10
-5.681085570444071
20
-3.7892956238435636
10
-5.7314961020541224
20
-3.7892956238435636
10
-5.7358803046390454
20
-3.7918268443861498
10
-5.7358803046390454
20
-3.7892956238435636
10
-5.8614961020541223
20
-3.7892956238435636
10
-5.8658803046390444
20
-3.7918268443861507
10
-5.8658803046390444
20
-3.7892956238435636
10
-5.9808803046390446
20
-3.7892956238435636
10
-5.9808803046390446
20
-4.3085553353108654
10
-5.6437715058385614
20
-4.1139254795772144
10
-5.7012715058385606
20
-4.0143325581420042
10
-5.6882811247817937
20
-4.0068325581420039
10
-5.6558803046390453
20
-4.0629524248361459
10
-5.6558803046390445
20
-4.063181470905274
10
-5.655781124781794
20
-4.0631242093879925
10
-5.6232811247817942
20
-4.119415860633981
10
-5.670704265759996
20
-4.1467956238435635
10
-5.670880304639045
20
-4.1467956238435635
10
-5.670880304639045
20
-4.14689725993777
10
-5.9958803046390452
20
-4.3345360974243983
10
-5.9958803046390452
20
-3.7742956238435639
10
-5.93551533994059
20
-3.7742956238435639
10
-5.9308803046390439
20
-3.7716195849645135
10
-5.9308803046390448
20
-3.7742956238435639
10
-5.8055153399405892
20
-3.7742956238435639
10
-5.8008803046390449
20
-3.7716195849645135
10
-5.8008803046390449
20
-3.7742956238435639
10
-5.6755153399405902
20
-3.7742956238435639
10
-5.670880304639045
20
-3.7716195849645135
10
-5.670880304639045
20
-3.7769716627226138
10
-5.6081978222898172
20
-3.8855409068960158
10
-5.6058803046390446
20
-3.8842028874564907
10
-5.6058803046390446
20
-3.8895549652145909
10
-5.5431978222898168
20
-3.9981242093879925
10
-5.5408803046390451
20
-3.9967861899484678
10
-5.5408803046390451
20
-4.0021382677065676
10
-5.4781978222898173
20
-4.1107075118799692
10
-5.4758803046390438
20
-4.1093694924404449
10
-5.4758803046390447
20
-4.1147215701985447
10
-5.4456978222898167
20
-4.1669991631259578
10
-6.1258803046390451
20
-4.5597027024083525
10
-6.1258803046390451
20
-3.6442956238435631
10
-6.2408803046390444
20
-3.6442956238435631
10
-6.2408803046390444
20
-3.6592956238435632
10
-6.7607305738286696
20
-3.6592956238435632
10
-7.0131557084234837
20
-4.0965087820691908
10
-6.9568640571774951
20
-4.1290087820691905
10
-6.9558803046390443
20
-4.1273048726905222
10
-6.9558803046390452
20
-4.1295767518620803
10
-6.2558803046390441
20
-4.5337219402948188
10
-6.2558803046390441
20
-3.7892956238435636
10
-6.2728695963634369
20
-3.7892956238435636
10
-6.2734683240785696
20
-3.7903326506660733
10
-6.2752645072239668
20
-3.7892956238435636
10
-6.3708803046390452
20
-3.7892956238435636
10
-6.3708803046390452
20
-3.7918268443861498
10
-6.3752645072239664
20
-3.7892956238435636
10
-6.4980362013473902
20
-3.7892956238435636
10
-6.500880304639046
20
-3.7942217552466833
10
-6.500880304639046
20
-3.7918268443861498
10
-6.5052645072239663
20
-3.7892956238435636
10
-6.630880304639045
20
-3.7892956238435636
10
-6.630880304639045
20
-3.7918268443861498
10
-6.6352645072239671
20
-3.7892956238435636
10
-6.6856750388340185
20
-3.7892956238435636
10
-6.7108803046390459
20
-3.8329524248361473
10
-6.7108803046390459
20
-3.8380148659213198
10
-6.7130724059315057
20
-3.8367492556500267
10
-6.7758803046390437
20
-3.9455357273281235
10
-6.7758803046390437
20
-3.9505981684132978
10
-6.7780724059315061
20
-3.9493325581420038
10
-6.8355724059315062
20
-4.048925479577214
10
-6.3858803046390449
20
-4.3085553353108654
10
-6.3858803046390449
20
-3.9192956238435643
10
-6.500880304639046
20
-3.9192956238435634
10
-6.500880304639046
20
-3.9042956238435629
10
-6.4360786643535466
20
-3.9042956238435629
10
-6.4358803046390447
20
-3.9044101468781265
10
-6.4358803046390447
20
-3.9042956238435629
10
-6.3708803046390452
20
-3.9042956238435642
10
-6.3708803046390452
20
-3.9590551502627287
10
-6.3709683240785688
20
-3.9592076044040385
10
-6.3708803046390452
20
-3.9592584224511422
10
-6.3708803046390452
20
-4.3345360974243983
10
-6.8560627869882733
20
-4.0544158606339806
10
-6.8258803046390453
20
-4.0021382677065684
10
-6.8258803046390453
20
-3.996786189948466
10
-6.8235627869882718
20
-3.9981242093879925
10
-6.760880304639044
20
-3.8895549652145904
10
-6.7608803046390449
20
-3.8842028874564898
10
-6.7585627869882732
20
-3.8855409068960149
10
-6.6958803046390454
20
-3.7769716627226138
10
-6.6958803046390454
20
-3.7716195849645135
10
-6.6912452693375002
20
-3.7742956238435639
10
-6.5658803046390455
20
-3.7742956238435639
10
-6.5658803046390455
20
-3.7716195849645135
10
-6.5612452693375003
20
-3.7742956238435639
10
-6.4358803046390447
20
-3.7742956238435639
10
-6.4358803046390447
20
-3.7716195849645135
10
-6.4312452693375004
20
-3.7742956238435639
10
-6.3058803046390457
20
-3.7742956238435639
10
-6.3058803046390457
20
-3.7716195849645127
10
-6.3012452693375005
20
-3.7742956238435639
10
-6.2408803046390444
20
-3.7742956238435639
10
-6.2408803046390444
20
-4.5597027024083525
10
-7.0336460894802491
20
-4.1019991631259574
10
-7.0911460894802492
20
-4.2015920845611685
10
-7.0781557084234832
20
-4.2090920845611679
10
-7.3380808430182967
20
-4.6592956238435619
10
-7.0856557084234826
20
-5.0965087820691908
10
-7.0293640571774949
20
-5.064008782069191
10
-7.0303478097159449
20
-5.0623048726905209
10
-7.028380304639045
20
-5.0634408122763004
10
-6.3283803046390457
20
-4.6592956238435628
10
-6.9730724059315063
20
-4.2870824656179352
10
-6.9815670517937019
20
-4.3017956238435628
10
-6.9809683240785683
20
-4.3028326506660726
10
-6.9827645072239681
20
-4.3038696774885823
10
-7.0305724059315065
20
-4.3866753870531454
10
-7.028380304639045
20
-4.3879409973244385
10
-7.0327645072239671
20
-4.3904722178670248
10
-7.0941503542856781
20
-4.4967956238435622
10
-7.0913062509940241
20
-4.5017217552466819
10
-7.0933803046390462
20
-4.5005242998164157
10
-7.0977645072239683
20
-4.5030555203590019
10
-7.1605724059315063
20
-4.6118419920370997
10
-7.1583803046390457
20
-4.6131076023083928
10
-7.1627645072239678
20
-4.615638822850979
10
-7.1879697730289935
20
-4.6592956238435628
10
-7.1627645072239661
20
-4.7029524248361465
10
-7.1583803046390457
20
-4.7054836453787328
10
-7.1605724059315063
20
-4.7067492556500268
10
-7.0977645072239683
20
-4.8155357273281227
10
-7.0933803046390462
20
-4.818066947870709
10
-7.095572405931506
20
-4.819332558142003
10
-7.0380724059315058
20
-4.9189254795772142
10
-6.5883803046390454
20
-4.6592956238435628
10
-6.9254891034395287
20
-4.4646657681099127
10
-6.9829891034395297
20
-4.5642586895451229
10
-6.9959794844962957
20
-4.5567586895451218
10
-6.9635786643535473
20
-4.5006388228509797
10
-6.9633803046390454
20
-4.5005242998164148
10
-6.9634794844962959
20
-4.5004670382991332
10
-6.9309794844962953
20
-4.4441753870531446
10
-6.8835563435180944
20
-4.471555150262728
10
-6.883468324078569
20
-4.4717076044040374
10
-6.8833803046390454
20
-4.4716567863569336
10
-6.5583803046390452
20
-4.6592956238435628
10
-7.0435627869882733
20
-4.9394158606339795
10
-7.0737452693375005
20
-4.8871382677065673
10
-7.0783803046390457
20
-4.8844622288275161
10
-7.0760627869882722
20
-4.8831242093879919
10
-7.1387452693375
20
-4.7745549652145893
10
-7.1433803046390452
20
-4.7718789263355399
10
-7.1410627869882735
20
-4.7705409068960147
10
-7.2037452693374995
20
-4.6619716627226131
10
-7.2083803046390447
20
-4.6592956238435628
10
-7.2037452693375013
20
-4.6566195849645124
10
-7.1410627869882735
20
-4.5480503407911117
10
-7.1433803046390452
20
-4.5467123213515857
10
-7.1387452693375
20
-4.5440362824725344
10
-7.0760627869882722
20
-4.4354670382991337
10
-7.0783803046390448
20
-4.4341290188596094
10
-7.0737452693375005
20
-4.4314529799805591
10
-7.0110627869882727
20
-4.3228837358071575
10
-7.0133803046390453
20
-4.3215457163676314
10
-7.008745269337501
20
-4.3188696774885811
10
-6.9785627869882729
20
-4.266592084561168
10
-6.2983803046390454
20
-4.6592956238435628
10
-7.09114608948025
20
-5.116999163125957
10
-7.0336460894802491
20
-5.2165920845611673
10
-7.0206557084234831
20
-5.2090920845611679
10
-6.7607305738286705
20
-5.6592956238435619
10
-6.255880304639045
20
-5.6592956238435619
10
-6.255880304639045
20
-5.5942956238435624
10
-6.257847809715944
20
-5.5942956238435624
10
-6.255880304639045
20
-5.5931596842577838
10
-6.255880304639045
20
-4.7848693073923068
10
-6.9005724059315057
20
-5.1570824656179353
10
-6.8920777600693102
20
-5.171795623843563
10
-6.8908803046390457
20
-5.171795623843563
10
-6.8908803046390457
20
-5.1738696774885806
10
-6.8430724059315065
20
-5.2566753870531455
10
-6.840880304639045
20
-5.2554097767818524
10
-6.840880304639045
20
-5.2604722178670249
10
-6.7794944575773339
20
-5.3667956238435623
10
-6.7738062509940251
20
-5.3667956238435623
10
-6.7758803046390454
20
-5.3679930792738295
10
-6.7758803046390454
20
-5.373055520359002
10
-6.7130724059315057
20
-5.4818419920370989
10
-6.7108803046390459
20
-5.4805763817658057
10
-6.7108803046390459
20
-5.4856388228509791
10
-6.6856750388340185
20
-5.5292956238435629
10
-6.6352645072239671
20
-5.5292956238435629
10
-6.630880304639045
20
-5.5267644033009757
10
-6.630880304639045
20
-5.5292956238435629
10
-6.5052645072239681
20
-5.5292956238435629
10
-6.500880304639046
20
-5.5267644033009757
10
-6.500880304639046
20
-5.5292956238435629
10
-6.3858803046390449
20
-5.5292956238435629
10
-6.3858803046390449
20
-5.010035912376261
10
-6.7229891034395282
20
-5.204665768109912
10
-6.6654891034395298
20
-5.3042586895451223
10
-6.6784794844962958
20
-5.3117586895451216
10
-6.7108803046390459
20
-5.2556388228509796
10
-6.7108803046390459
20
-5.2554097767818524
10
-6.7109794844962956
20
-5.255467038299134
10
-6.7434794844962953
20
-5.1991753870531454
10
-6.6960563435180944
20
-5.171795623843563
10
-6.6958803046390454
20
-5.171795623843563
10
-6.6958803046390454
20
-5.1716939877493564
10
-6.3708803046390452
20
-4.9840551502627273
10
-6.3708803046390452
20
-5.5442956238435626
10
-6.4312452693375004
20
-5.5442956238435626
10
-6.4358803046390456
20
-5.5469716627226138
10
-6.4358803046390447
20
-5.5442956238435626
10
-6.5612452693375003
20
-5.5442956238435626
10
-6.5658803046390455
20
-5.5469716627226129
10
-6.5658803046390455
20
-5.5442956238435626
10
-6.6912452693374993
20
-5.5442956238435617
10
-6.6958803046390454
20
-5.5469716627226129
10
-6.6958803046390454
20
-5.5416195849645131
10
-6.7585627869882732
20
-5.4330503407911106
10
-6.7608803046390449
20
-5.4343883602306358
10
-6.7608803046390449
20
-5.4290362824725351
10
-6.8235627869882727
20
-5.3204670382991344
10
-6.8258803046390453
20
-5.3218050577386586
10
-6.8258803046390453
20
-5.3164529799805589
10
-6.8885627869882722
20
-5.2078837358071564
10
-6.8908803046390457
20
-5.2092217552466815
10
-6.8908803046390457
20
-5.2038696774885809
10
-6.9210627869882728
20
-5.1515920845611678
10
-6.2408803046390453
20
-4.758888545278773
10
-6.2408803046390453
20
-5.6742956238435625
10
-6.1258803046390451
20
-5.6742956238435625
10
-6.1258803046390451
20
-5.6592956238435619
10
-5.6060300354494208
20
-5.6592956238435628
10
-5.3536049008546067
20
-5.2220824656179348
10
-5.4098965521005953
20
-5.189582465617935
10
-5.4108803046390452
20
-5.1912863749966043
10
-5.4108803046390443
20
-5.1890144958250453
10
-6.1108803046390454
20
-4.7848693073923068
10
-6.1108803046390454
20
-5.5292956238435629
10
-6.0938910129146526
20
-5.5292956238435629
10
-6.0932922851995208
20
-5.528258597021054
10
-6.0914961020541227
20
-5.5292956238435629
10
-5.9958803046390452
20
-5.5292956238435629
10
-5.9958803046390452
20
-5.5267644033009757
10
-5.991496102054124
20
-5.5292956238435629
10
-5.8687244079307002
20
-5.5292956238435629
10
-5.8658803046390453
20
-5.5243694924404432
10
-5.8658803046390453
20
-5.5267644033009757
10
-5.8614961020541232
20
-5.5292956238435629
10
-5.7358803046390454
20
-5.5292956238435629
10
-5.7358803046390454
20
-5.5267644033009757
10
-5.7314961020541224
20
-5.5292956238435629
10
-5.681085570444071
20
-5.5292956238435629
10
-5.6558803046390453
20
-5.4856388228509791
10
-5.6558803046390453
20
-5.4805763817658057
10
-5.6536882033465838
20
-5.4818419920370989
10
-5.590880304639045
20
-5.3730555203590029
10
-5.590880304639045
20
-5.3679930792738286
10
-5.5886882033465843
20
-5.3692586895451226
10
-5.5311882033465842
20
-5.2696657681099115
10
-5.9808803046390446
20
-5.010035912376261
10
-5.9808803046390446
20
-5.3992956238435621
10
-5.8658803046390453
20
-5.399295623843563
10
-5.8658803046390453
20
-5.4142956238435627
10
-5.9306819449245429
20
-5.4142956238435627
10
-5.9308803046390457
20
-5.4141811008089995
10
-5.9308803046390457
20
-5.4142956238435627
10
-5.9958803046390452
20
-5.4142956238435618
10
-5.9958803046390452
20
-5.3595360974243977
10
-5.9957922851995207
20
-5.3593836432830875
10
-5.9958803046390452
20
-5.3593328252359838
10
-5.9958803046390452
20
-4.9840551502627282
10
-5.5106978222898171
20
-5.2641753870531449
10
-5.5408803046390451
20
-5.316452979980558
10
-5.5408803046390451
20
-5.3218050577386595
10
-5.5431978222898177
20
-5.3204670382991335
10
-5.6058803046390455
20
-5.4290362824725351
10
-5.6058803046390446
20
-5.4343883602306358
10
-5.6081978222898172
20
-5.4330503407911106
10
-5.670880304639045
20
-5.5416195849645113
10
-5.670880304639045
20
-5.5469716627226129
10
-5.6755153399405893
20
-5.5442956238435626
10
-5.8008803046390449
20
-5.5442956238435626
10
-5.8008803046390449
20
-5.5469716627226129
10
-5.8055153399405901
20
-5.5442956238435626
10
-5.9308803046390457
20
-5.5442956238435626
10
-5.9308803046390448
20
-5.546971662722612
10
-5.9355153399405891
20
-5.5442956238435626
10
-6.0608803046390447
20
-5.5442956238435626
10
-6.0608803046390447
20
-5.5469716627226138
10
-6.0655153399405899
20
-5.5442956238435634
10
-6.1258803046390451
20
-5.5442956238435634
10
-6.1258803046390451
20
-4.7588885452787739
10
-5.3331145197978405
20
-5.2165920845611691
10
-5.2756145197978404
20
-5.1169991631259588
10
-5.2886049008546072
20
-5.1094991631259585
10
-5.0286797662597928
20
-4.6592956238435645
10
-5.281104900854606
20
-4.2220824656179357
10
-5.3373965521005955
20
-4.2545824656179354
10
-5.3364127995621455
20
-4.2562863749966047
10
-5.3383803046390446
20
-4.255150435410826
10
-6.0383803046390447
20
-4.6592956238435637
10
-5.3936882033465832
20
-5.0315087820691913
10
-5.3851935574843877
20
-5.0167956238435627
10
-5.3857922851995204
20
-5.0157585970210539
10
-5.3839961020541223
20
-5.0147215701985441
10
-5.3361882033465839
20
-4.931915860633981
10
-5.3383803046390446
20
-4.9306502503626879
10
-5.3339961020541224
20
-4.9281190298201007
10
-5.2726102549924114
20
-4.8217956238435633
10
-5.2754543582840654
20
-4.8168694924404436
10
-5.2733803046390451
20
-4.8180669478707108
10
-5.2689961020541221
20
-4.8155357273281245
10
-5.2061882033465841
20
-4.7067492556500268
10
-5.2083803046390447
20
-4.7054836453787336
10
-5.2039961020541217
20
-4.7029524248361474
10
-5.178790836249096
20
-4.6592956238435637
10
-5.2039961020541226
20
-4.615638822850979
10
-5.2083803046390447
20
-4.6131076023083928
10
-5.2061882033465832
20
-4.6118419920370997
10
-5.2689961020541221
20
-4.5030555203590037
10
-5.2733803046390451
20
-4.5005242998164166
10
-5.2711882033465836
20
-4.4992586895451234
10
-5.3286882033465837
20
-4.3996657681099123
10
-5.778380304639045
20
-4.6592956238435628
10
-5.4412715058385608
20
-4.8539254795772138
10
-5.3837715058385607
20
-4.7543325581420035
10
-5.3707811247817938
20
-4.7618325581420038
10
-5.4031819449245431
20
-4.8179524248361458
10
-5.403380304639045
20
-4.8180669478707108
10
-5.4032811247817936
20
-4.8181242093879924
10
-5.4357811247817942
20
-4.87441586063398
10
-5.483204265759996
20
-4.8470360974243984
10
-5.4832922851995205
20
-4.8468836432830882
10
-5.483380304639045
20
-4.846934461330191
10
-5.8083803046390452
20
-4.6592956238435637
10
-5.3231978222898171
20
-4.3791753870531451
10
-5.293015339940589
20
-4.4314529799805591
10
-5.2883803046390438
20
-4.4341290188596103
10
-5.2906978222898173
20
-4.4354670382991346
10
-5.2280153399405895
20
-4.5440362824725362
10
-5.2233803046390443
20
-4.5467123213515865
10
-5.2256978222898169
20
-4.5480503407911117
10
-5.16301533994059
20
-4.6566195849645124
10
-5.1583803046390448
20
-4.6592956238435637
10
-5.1630153399405891
20
-4.661971662722614
10
-5.2256978222898169
20
-4.7705409068960147
10
-5.2233803046390443
20
-4.7718789263355408
10
-5.2280153399405895
20
-4.7745549652145911
10
-5.2906978222898173
20
-4.8831242093879927
10
-5.2883803046390456
20
-4.884462228827517
10
-5.293015339940589
20
-4.8871382677065673
10
-5.3556978222898168
20
-4.995707511879969
10
-5.3533803046390442
20
-4.997045531319495
10
-5.3580153399405894
20
-4.9997215701985454
10
-5.3881978222898175
20
-5.0519991631259575
0
LWPOLYLINE
5
101
100
AcDbEntity
8
0
100
AcDbPolyline
90
3
70
1
43
0.0
10
-5.9308803046390457
20
-5.2469527949324206
10
-5.9308803046390457
20
-5.2467495227440075
10
-5.9307922851995203
20
-5.2468003407911104
0
LWPOLYLINE
5
102
100
AcDbEntity
8
0
100
AcDbPolyline
90
3
70
1
43
0.0
10
-6.1258803046390451
20
-5.5844994302199389
10
-6.1257922851995206
20
-5.5845502482670417
10
-6.1258803046390451
20
-5.584702702408352
0
LWPOLYLINE
5
103
100
AcDbEntity
8
0
100
AcDbPolyline
90
3
70
1
43
0.0
10
-5.9158803046390451
20
-5.3492956238435632
10
-5.9158803046390451
20
-5.3477858198521924
10
-5.913265247416521
20
-5.3492956238435632
0
LWPOLYLINE
5
104
100
AcDbEntity
8
0
100
AcDbPolyline
90
3
70
1
43
0.0
10
-6.6471878332503085
20
-5.2359574193559002
10
-6.6458803046390447
20
-5.2352025173602152
10
-6.6458803046390447
20
-5.2382221253429568
0
LWPOLYLINE
5
105
100
AcDbEntity
8
0
100
AcDbPolyline
90
3
70
1
43
0.0
10
-6.9558803046390452
20
-5.1716939877493564
10
-6.9558803046390452
20
-5.171795623843563
10
-6.9560563435180933
20
-5.171795623843563
0
LWPOLYLINE
5
106
100
AcDbEntity
8
0
100
AcDbPolyline
90
3
70
1
43
0.0
10
-6.5660563435180936
20
-5.171795623843563
10
-6.5658803046390455
20
-5.1716939877493564
10
-6.5658803046390455
20
-5.171795623843563
0
LWPOLYLINE
5
107
100
AcDbEntity
8
0
100
AcDbPolyline
90
3
70
1
43
0.0
10
-6.9146878332503077
20
-4.5459574193558998
10
-6.9133803046390456
20
-4.5467123213515857
10
-6.9159953618615706
20
-4.5482221253429564
0
LWPOLYLINE
5
108
100
AcDbEntity
8
0
100
AcDbPolyline
90
3
70
1
43
0.0
10
-7.0133803046390453
20
-4.2464901813729803
10
-7.0134683240785707
20
-4.246540999420084
10
-7.0135563435180934
20
-4.2463885452787737
0
LWPOLYLINE
5
109
100
AcDbEntity
8
0
100
AcDbPolyline
90
3
70
1
43
0.0
10
-6.8185563435180931
20
-4.5841384527547042
10
-6.818380304639045
20
-4.5842400888489117
10
-6.8184683240785704
20
-4.5842909068960145
0
LWPOLYLINE
5
110
100
AcDbEntity
8
0
100
AcDbPolyline
90
3
70
1
43
0.0
10
-6.4358803046390447
20
-4.0716384527547049
10
-6.4358803046390447
20
-4.0718417249431189
10
-6.4359683240785701
20
-4.0717909068960152
0
LWPOLYLINE
5
111
100
AcDbEntity
8
0
100
AcDbPolyline
90
3
70
1
43
0.0
10
-6.2408803046390444
20
-3.7340918174671871
10
-6.2409683240785698
20
-3.7340409994200834
10
-6.2408803046390453
20
-3.7338885452787745
0
LWPOLYLINE
5
112
100
AcDbEntity
8
0
100
AcDbPolyline
90
3
70
1
43
0.0
10
-6.4508803046390444
20
-3.9692956238435624
10
-6.4508803046390444
20
-3.9708054278349336
10
-6.4534953618615694
20
-3.9692956238435633
0
LWPOLYLINE
5
113
100
AcDbEntity
8
0
100
AcDbPolyline
90
3
70
1
43
0.0
10
-5.5482042657599964
20
-4.7344527949324213
10
-5.5483803046390454
20
-4.7343511588382148
10
-5.54829228519952
20
-4.7343003407911111
0
LWPOLYLINE
5
114
100
AcDbEntity
8
0
100
AcDbPolyline
90
3
70
1
43
0.0
10
-5.3533803046390451
20
-5.0721010663141453
10
-5.3532922851995197
20
-5.0720502482670424
10
-5.353204265759997
20
-5.0722027024083518
0
LWPOLYLINE
5
115
100
AcDbEntity
8
0
100
AcDbPolyline
90
3
70
1
43
0.0
10
-5.4520727760277818
20
-4.7726338283312257
10
-5.4533803046390439
20
-4.7718789263355408
10
-5.4507652474165207
20
-4.77036912234417
0
LWPOLYLINE
5
116
100
AcDbEntity
8
0
100
AcDbPolyline
90
3
70
1
43
0.0
10
-5.8007042657599968
20
-4.1467956238435635
10
-5.8008803046390449
20
-4.14689725993777
10
-5.8008803046390449
20
-4.1467956238435635
0
LWPOLYLINE
5
117
100
AcDbEntity
8
0
100
AcDbPolyline
90
3
70
1
43
0.0
10
-5.4108803046390443
20
-4.14689725993777
10
-5.4108803046390443
20
-4.1467956238435635
10
-5.4107042657599962
20
-4.1467956238435635
0
LWPOLYLINE
5
118
100
AcDbEntity
8
0
100
AcDbPolyline
90
3
70
1
43
0.0
10
-5.7195727760277819
20
-4.0826338283312253
10
-5.7208803046390448
20
-4.0833887303269103
10
-5.7208803046390448
20
-4.0803691223441696
0
LWPOLYLINE
5
119
100
AcDbEntity
8
0
100
AcDbPolyline
90
522
70
1
43
0.0
10
-5.0864147931787569
20
-4.6592956238435628
10
-5.3644061710438287
20
-5.1407908143719467
10
-5.5895727760277829
20
-5.0107908143719468
10
-5.590880304639045
20
-5.0130555203590026
10
-5.590880304639045
20
-5.010035912376261
10
-5.7995839364455088
20
-4.8895408143719461
10
-5.8008803046390449
20
-4.8917861899484665
10
-5.8008803046390449
20
-4.888792355846439
10
-6.1758803046390449
20
-4.6722860049003305
10
-6.1758803046390449
20
-5.3477858198521915
10
-6.1732652474165208
20
-5.3492956238435632
10
-6.1758803046390449
20
-5.3492956238435632
10
-6.1758803046390449
20
-5.5942956238435624
10
-6.1108803046390454
20
-5.5942956238435624
10
-6.1108803046390454
20
-5.5931596842577838
10
-6.1089127995621455
20
-5.5942956238435624
10
-5.9808803046390446
20
-5.5942956238435624
10
-5.9808803046390446
20
-5.5931596842577829
10
-5.9789127995621456
20
-5.5942956238435624
10
-5.8508803046390447
20
-5.5942956238435624
10
-5.8508803046390447
20
-5.5931596842577829
10
-5.8489127995621448
20
-5.5942956238435624
10
-5.7561411054387221
20
-5.5942956238435624
10
-5.7543340289695788
20
-5.5911656755858425
10
-5.7489127995621452
20
-5.5942956238435624
10
-5.7208803046390448
20
-5.5942956238435624
10
-5.7208803046390448
20
-5.5931596842577838
10
-5.7189127995621458
20
-5.5942956238435624
10
-5.6435578029467459
20
-5.5942956238435624
10
-5.6058803046390446
20
-5.5290362824725348
10
-5.6058803046390455
20
-5.5267644033009757
10
-5.6048965521005956
20
-5.5273323730938655
10
-5.5408803046390451
20
-5.4164529799805576
10
-5.5408803046390451
20
-5.4141811008089995
10
-5.5398965521005952
20
-5.4147490706018884
10
-5.4758803046390456
20
-5.3038696774885814
10
-5.4758803046390456
20
-5.3015977983170224
10
-5.4748965521005957
20
-5.3021657681099112
10
-5.442396552100595
20
-5.2458741168639236
10
-5.6545727760277824
20
-5.123374116863924
10
-5.6558803046390453
20
-5.1256388228509797
10
-5.6558803046390453
20
-5.1226192148682381
10
-5.8645839364455083
20
-5.0021241168639232
10
-5.8658803046390453
20
-5.0043694924404436
10
-5.8658803046390453
20
-5.0013756583384161
10
-6.0458803046390441
20
-4.8974526098842839
10
-6.0458803046390441
20
-5.047563679873587
10
-6.0421672389374859
20
-5.0497074193559
10
-6.0458803046390441
20
-5.0561386378028415
10
-6.0458803046390441
20
-5.3477858198521915
10
-6.04326524741652
20
-5.3492956238435632
10
-6.0458803046390441
20
-5.3492956238435632
10
-6.0458803046390441
20
-5.4642956238435625
10
-5.7208803046390448
20
-5.4642956238435625
10
-5.7208803046390448
20
-5.4603691223441695
10
-5.7174798545925727
20
-5.462332373093866
10
-5.6199798545925725
20
-5.2934574193559003
10
-5.7195727760277828
20
-5.2359574193559011
10
-5.7208803046390448
20
-5.2382221253429568
10
-5.7208803046390448
20
-5.2352025173602152
10
-5.9158803046390451
20
-5.1226192148682381
10
-5.9158803046390451
20
-5.1976747498628892
10
-5.9308803046390457
20
-5.1890144958250453
10
-5.9308803046390457
20
-5.0966384527547053
10
-5.5994894735358063
20
-5.2879670382991337
10
-5.6058803046390446
20
-5.2990362824725352
10
-5.6058803046390446
20
-5.3015977983170224
10
-5.6069894735358057
20
-5.3009574193559006
10
-5.670880304639045
20
-5.4116195849645123
10
-5.670880304639045
20
-5.4141811008089995
10
-5.6719894735358061
20
-5.4135407218478777
10
-5.7099530839035522
20
-5.4792956238435622
10
-5.7858803046390452
20
-5.4792956238435622
10
-5.7858803046390452
20
-5.4805763817658057
10
-5.7880986424325673
20
-5.4792956238435622
10
-5.9158803046390451
20
-5.4792956238435622
10
-5.9158803046390451
20
-5.4805763817658066
10
-5.9180986424325681
20
-5.4792956238435622
10
-6.0458803046390441
20
-5.4792956238435622
10
-6.0458803046390441
20
-5.4805763817658057
10
-6.0480986424325671
20
-5.4792956238435622
10
-6.0608803046390447
20
-5.4792956238435622
10
-6.0608803046390447
20
-4.8714718477707502
10
-5.4781978222898173
20
-5.2078837358071564
10
-5.4758803046390456
20
-5.2038696774885818
10
-5.4758803046390456
20
-5.2092217552466824
10
-5.4219061710438288
20
-5.240383735807157
10
-5.634897548908901
20
-5.609295623843563
10
-6.1908803046390446
20
-5.609295623843563
10
-6.1908803046390446
20
-5.3492956238435632
10
-6.1934953618615705
20
-5.3492956238435632
10
-6.1908803046390446
20
-5.3477858198521915
10
-6.1908803046390446
20
-5.1067956238435626
10
-6.1934730410261176
20
-5.1067956238435626
10
-6.1908803046390446
20
-5.1052987067925493
10
-6.1908803046390455
20
-4.6722860049003296
10
-6.7758803046390454
20
-5.010035912376261
10
-6.7758803046390454
20
-5.0130555203590026
10
-6.7771878332503075
20
-5.010790814371946
10
-6.989364057177494
20
-5.1332908143719465
10
-6.9568640571774951
20
-5.189582465617935
10
-6.9558803046390452
20
-5.1890144958250453
10
-6.9558803046390452
20
-5.1912863749966043
10
-6.8918640571774938
20
-5.3021657681099112
10
-6.8908803046390457
20
-5.3015977983170215
10
-6.8908803046390457
20
-5.3038696774885814
10
-6.8268640571774943
20
-5.4147490706018884
10
-6.8258803046390453
20
-5.4141811008089995
10
-6.8258803046390453
20
-5.4164529799805594
10
-6.7794944575773339
20
-5.4967956238435631
10
-6.7758803046390454
20
-5.4967956238435631
10
-6.7758803046390454
20
-5.5030555203590019
10
-6.7618640571774948
20
-5.5273323730938655
10
-6.7608803046390449
20
-5.5267644033009757
10
-6.7608803046390449
20
-5.5290362824725356
10
-6.7232028063313454
20
-5.5942956238435624
10
-6.6478478097159446
20
-5.5942956238435624
10
-6.6458803046390447
20
-5.5931596842577838
10
-6.6458803046390447
20
-5.5942956238435624
10
-6.5178478097159438
20
-5.5942956238435624
10
-6.5158803046390457
20
-5.5931596842577838
10
-6.5158803046390457
20
-5.5942956238435624
10
-6.3878478097159448
20
-5.5942956238435624
10
-6.3858803046390449
20
-5.5931596842577829
10
-6.3858803046390449
20
-5.5942956238435624
10
-6.3208803046390454
20
-5.5942956238435624
10
-6.3208803046390454
20
-5.3492956238435632
10
-6.3234953618615695
20
-5.3492956238435632
10
-6.3208803046390454
20
-5.3477858198521915
10
-6.3208803046390454
20
-5.1067956238435626
10
-6.3234730410261166
20
-5.1067956238435626
10
-6.3208803046390454
20
-5.1052987067925493
10
-6.3208803046390454
20
-4.8974526098842839
10
-6.4508803046390444
20
-4.972508144878935
10
-6.4508803046390444
20
-4.9767956238435627
10
-6.4583064360421609
20
-4.9767956238435627
10
-6.7108803046390459
20
-5.1226192148682381
10
-6.7108803046390459
20
-5.1256388228509797
10
-6.7121878332503062
20
-5.123374116863924
10
-6.8117807546855174
20
-5.1808741168639232
10
-6.6492807546855177
20
-5.462332373093866
10
-6.6458803046390447
20
-5.4603691223441686
10
-6.6458803046390447
20
-5.4642956238435625
10
-6.4508803046390444
20
-5.4642956238435625
10
-6.4508803046390444
20
-5.3492956238435632
10
-6.4534953618615694
20
-5.3492956238435632
10
-6.4508803046390444
20
-5.3477858198521924
10
-6.4508803046390444
20
-5.1226192148682381
10
-6.5158803046390457
20
-5.1601469823655641
10
-6.5158803046390457
20
-5.1428264742898753
10
-6.4358803046390447
20
-5.0966384527547053
10
-6.4358803046390447
20
-5.4792956238435622
10
-6.4486619668455232
20
-5.4792956238435622
10
-6.4508803046390444
20
-5.4805763817658057
10
-6.4508803046390444
20
-5.4792956238435622
10
-6.5786619668455231
20
-5.4792956238435622
10
-6.5808803046390452
20
-5.4805763817658057
10
-6.5808803046390452
20
-5.4792956238435622
10
-6.6568075253745373
20
-5.4792956238435622
10
-6.6947711357422834
20
-5.4135407218478768
10
-6.6958803046390454
20
-5.4141811008089986
10
-6.6958803046390454
20
-5.4116195849645115
10
-6.7597711357422847
20
-5.3009574193559006
10
-6.7608803046390449
20
-5.3015977983170224
10
-6.7608803046390449
20
-5.2990362824725343
10
-6.8247711357422824
20
-5.1883741168639235
10
-6.8258803046390453
20
-5.1890144958250453
10
-6.8258803046390453
20
-5.1864529799805581
10
-6.8322711357422845
20
-5.1753837358071557
10
-6.3058803046390457
20
-4.8714718477707502
10
-6.3058803046390457
20
-5.5442956238435626
10
-6.3012452693375014
20
-5.5442956238435626
10
-6.3058803046390457
20
-5.5469716627226129
10
-6.3058803046390457
20
-5.609295623843563
10
-6.7318630603691902
20
-5.609295623843563
10
-7.009854438234262
20
-5.127800433315179
10
-6.7846878332503078
20
-4.99780043331518
10
-6.7859953618615707
20
-4.9955357273281225
10
-6.7833803046390448
20
-4.9970455313194933
10
-6.5746766728325809
20
-4.8765504333151792
10
-6.5759730410261179
20
-4.8743050577386597
10
-6.5733803046390449
20
-4.8758019747896721
10
-6.1983803046390449
20
-4.6592956238435628
10
-6.783380304639044
20
-4.3215457163676314
10
-6.7859953618615698
20
-4.3230555203590031
10
-6.7846878332503078
20
-4.3207908143719465
10
-6.9968640571774943
20
-4.198290814371946
10
-7.0293640571774949
20
-4.2545824656179345
10
-7.028380304639045
20
-4.2551504354108243
10
-7.0303478097159449
20
-4.2562863749966047
10
-7.0943640571774944
20
-4.3671657681099125
10
-7.0933803046390445
20
-4.3677337379028014
10
-7.0953478097159453
20
-4.3688696774885818
10
-7.1593640571774957
20
-4.4797490706018888
10
-7.158380304639044
20
-4.4803170403947794
10
-7.1603478097159448
20
-4.4814529799805589
10
-7.2067336567776561
20
-4.5617956238435626
10
-7.2049265803085119
20
-4.5649255721012825
10
-7.2103478097159446
20
-4.5680555203590023
10
-7.2243640571774952
20
-4.592332373093865
10
-7.2233803046390452
20
-4.5929003428867565
10
-7.2253478097159443
20
-4.594036282472536
10
-7.2630253080236447
20
-4.6592956238435619
10
-7.2253478097159443
20
-4.7245549652145904
10
-7.2233803046390452
20
-4.725690904800369
10
-7.2243640571774952
20
-4.7262588745932588
10
-7.1603478097159439
20
-4.8371382677065666
10
-7.1583803046390457
20
-4.8382742072923461
10
-7.1593640571774957
20
-4.8388421770852368
10
-7.0953478097159444
20
-4.9497215701985438
10
-7.0933803046390462
20
-4.9508575097843233
10
-7.0943640571774944
20
-4.951425479577213
10
-7.0618640571774955
20
-5.0077171308232025
10
-6.8496878332503082
20
-4.885217130823202
10
-6.8509953618615693
20
-4.8829524248361462
10
-6.8483803046390452
20
-4.884462228827517
10
-6.6396766728325813
20
-4.7639671308232021
10
-6.6409730410261174
20
-4.7617217552466817
10
-6.6383803046390444
20
-4.763218672297695
10
-6.4583803046390447
20
-4.6592956238435628
10
-6.5883803046390454
20
-4.5842400888489117
10
-6.5920933703406037
20
-4.5863838283312255
10
-6.5958064360421629
20
-4.5799526098842849
10
-6.8483803046390452
20
-4.4341290188596094
10
-6.8509953618615693
20
-4.4356388228509793
10
-6.8496878332503082
20
-4.4333741168639236
10
-6.9492807546855175
20
-4.3758741168639235
10
-7.1117807546855181
20
-4.6573323730938663
10
-7.1083803046390459
20
-4.6592956238435628
10
-7.1117807546855172
20
-4.6612588745932593
10
-7.0142807546855188
20
-4.830133828331225
10
-6.9146878332503077
20
-4.7726338283312248
10
-6.9159953618615706
20
-4.7703691223441691
10
-6.9133803046390456
20
-4.7718789263355399
10
-6.7183803046390453
20
-4.6592956238435628
10
-6.7833803046390448
20
-4.6217678563462377
10
-6.7683803046390452
20
-4.6131076023083919
10
-6.688380304639046
20
-4.6592956238435628
10
-7.0197711357422845
20
-4.8506242093879912
10
-7.0261619668455237
20
-4.8395549652145906
10
-7.028380304639045
20
-4.838274207292347
10
-7.0272711357422848
20
-4.8376338283312252
10
-7.0911619668455232
20
-4.7269716627226126
10
-7.0933803046390462
20
-4.7256909048003699
10
-7.0922711357422843
20
-4.7250505258392472
10
-7.1302347461100304
20
-4.6592956238435628
10
-7.0922711357422843
20
-4.5935407218478765
10
-7.0933803046390445
20
-4.5929003428867556
10
-7.0911619668455232
20
-4.5916195849645121
10
-7.0272711357422848
20
-4.4809574193559003
10
-7.028380304639045
20
-4.4803170403947785
10
-7.0261619668455229
20
-4.4790362824725349
10
-6.9622711357422844
20
-4.3683741168639241
10
-6.9633803046390437
20
-4.3677337379028023
10
-6.9611619668455225
20
-4.3664529799805587
10
-6.954771135742285
20
-4.3553837358071563
10
-6.4283803046390444
20
-4.6592956238435628
10
-7.0110627869882727
20
-4.9957075118799681
10
-7.008745269337501
20
-4.9997215701985436
10
-7.0133803046390453
20
-4.9970455313194933
10
-7.0673544382342612
20
-5.0282075118799687
10
-7.2803458160993335
20
-4.6592956238435628
10
-7.00235443823426
20
-4.1778004333151797
10
-6.7771878332503075
20
-4.3078004333151796
10
-6.7758803046390437
20
-4.3055357273281221
10
-6.7758803046390437
20
-4.3085553353108645
10
-6.5671766728325807
20
-4.4290504333151794
10
-6.5658803046390455
20
-4.42680505773866
10
-6.5658803046390455
20
-4.4297988918406874
10
-6.1908803046390446
20
-4.6463052427867959
10
-6.1908803046390446
20
-3.9708054278349341
10
-6.1934953618615696
20
-3.9692956238435637
10
-6.1908803046390446
20
-3.9692956238435637
10
-6.1908803046390446
20
-3.7242956238435627
10
-6.2558803046390441
20
-3.7242956238435627
10
-6.2558803046390441
20
-3.7254315634293427
10
-6.257847809715944
20
-3.7242956238435627
10
-6.3858803046390449
20
-3.7242956238435636
10
-6.3858803046390449
20
-3.7254315634293436
10
-6.3878478097159448
20
-3.7242956238435627
10
-6.5158803046390457
20
-3.7242956238435627
10
-6.5158803046390457
20
-3.7254315634293436
10
-6.5178478097159456
20
-3.7242956238435636
10
-6.6106195038393674
20
-3.7242956238435627
10
-6.6124265803085107
20
-3.7274255721012839
10
-6.6178478097159443
20
-3.7242956238435636
10
-6.6458803046390447
20
-3.7242956238435627
10
-6.6458803046390447
20
-3.7254315634293427
10
-6.6478478097159446
20
-3.7242956238435627
10
-6.7232028063313436
20
-3.7242956238435627
10
-6.7608803046390449
20
-3.7895549652145912
10
-6.760880304639044
20
-3.7918268443861498
10
-6.7618640571774948
20
-3.7912588745932605
10
-6.8258803046390453
20
-3.9021382677065675
10
-6.8258803046390453
20
-3.9044101468781265
10
-6.8268640571774943
20
-3.9038421770852367
10
-6.8908803046390448
20
-4.014721570198545
10
-6.8908803046390448
20
-4.0169934493701041
10
-6.8918640571774938
20
-4.0164254795772143
10
-6.9243640571774945
20
-4.0727171308232029
10
-6.7121878332503062
20
-4.1952171308232025
10
-6.7108803046390459
20
-4.1929524248361458
10
-6.7108803046390459
20
-4.1959720328188883
10
-6.5021766728325812
20
-4.3164671308232032
10
-6.500880304639046
20
-4.3142217552466819
10
-6.500880304639046
20
-4.3172155893487094
10
-6.3208803046390454
20
-4.4211386378028417
10
-6.3208803046390454
20
-4.2710275678135394
10
-6.3245933703406036
20
-4.2688838283312256
10
-6.3208803046390454
20
-4.262452609884285
10
-6.3208803046390454
20
-3.9708054278349341
10
-6.3234953618615695
20
-3.9692956238435633
10
-6.3208803046390454
20
-3.9692956238435637
10
-6.3208803046390454
20
-3.8542956238435631
10
-6.6458803046390447
20
-3.8542956238435631
10
-6.6458803046390447
20
-3.8582221253429565
10
-6.6492807546855177
20
-3.85625887459326
10
-6.746780754685517
20
-4.0251338283312261
10
-6.6471878332503067
20
-4.0826338283312253
10
-6.6458803046390447
20
-4.0803691223441696
10
-6.6458803046390447
20
-4.0833887303269103
10
-6.4508803046390444
20
-4.1959720328188883
10
-6.4508803046390444
20
-4.1209164978242363
10
-6.4358803046390447
20
-4.1295767518620803
10
-6.4358803046390447
20
-4.2219527949324211
10
-6.767271135742285
20
-4.0306242093879918
10
-6.7608803046390449
20
-4.0195549652145912
10
-6.7608803046390449
20
-4.0169934493701041
10
-6.7597711357422847
20
-4.0176338283312258
10
-6.6958803046390454
20
-3.9069716627226132
10
-6.6958803046390454
20
-3.9044101468781269
10
-6.6947711357422834
20
-3.9050505258392487
10
-6.6568075253745373
20
-3.8392956238435634
10
-6.5808803046390434
20
-3.8392956238435634
10
-6.5808803046390434
20
-3.8380148659213207
10
-6.5786619668455231
20
-3.8392956238435634
10
-6.4508803046390444
20
-3.8392956238435634
10
-6.4508803046390444
20
-3.8380148659213198
10
-6.4486619668455223
20
-3.8392956238435634
10
-6.3208803046390454
20
-3.8392956238435638
10
-6.3208803046390454
20
-3.8380148659213207
10
-6.3186619668455233
20
-3.8392956238435638
10
-6.3058803046390457
20
-3.8392956238435634
10
-6.3058803046390457
20
-4.4471193999163763
10
-6.8885627869882722
20
-4.1107075118799692
10
-6.8908803046390448
20
-4.1147215701985447
10
-6.8908803046390448
20
-4.109369492440444
10
-6.9448544382342616
20
-4.0782075118799694
10
-6.7318630603691885
20
-3.7092956238435626
10
-6.1758803046390449
20
-3.7092956238435635
10
-6.1758803046390449
20
-3.9692956238435633
10
-6.1732652474165191
20
-3.9692956238435633
10
-6.1758803046390449
20
-3.9708054278349341
10
-6.1758803046390449
20
-4.2117956238435639
10
-6.1732875682519728
20
-4.2117956238435639
10
-6.1758803046390449
20
-4.2132925408945772
10
-6.175880304639044
20
-4.6463052427867968
10
-5.590880304639045
20
-4.3085553353108654
10
-5.590880304639045
20
-4.3055357273281238
10
-5.5895727760277829
20
-4.3078004333151805
10
-5.3773965521005946
20
-4.18530043331518
10
-5.4098965521005944
20
-4.1290087820691914
10
-5.4108803046390443
20
-4.1295767518620812
10
-5.4108803046390443
20
-4.1273048726905222
10
-5.4748965521005948
20
-4.0164254795772143
10
-5.4758803046390447
20
-4.0169934493701041
10
-5.4758803046390447
20
-4.0147215701985441
10
-5.5398965521005952
20
-3.9038421770852372
10
-5.5408803046390451
20
-3.9044101468781278
10
-5.5408803046390451
20
-3.902138267706567
10
-5.5872661517007565
20
-3.8217956238435642
10
-5.590880304639045
20
-3.8217956238435642
10
-5.590880304639045
20
-3.8155357273281236
10
-5.6048965521005947
20
-3.7912588745932605
10
-5.6058803046390446
20
-3.7918268443861498
10
-5.6058803046390446
20
-3.7895549652145903
10
-5.6435578029467441
20
-3.7242956238435641
10
-5.7189127995621458
20
-3.7242956238435641
10
-5.7208803046390448
20
-3.7254315634293436
10
-5.7208803046390448
20
-3.7242956238435641
10
-5.8489127995621457
20
-3.7242956238435641
10
-5.8508803046390447
20
-3.7254315634293436
10
-5.8508803046390447
20
-3.7242956238435641
10
-5.9789127995621456
20
-3.7242956238435641
10
-5.9808803046390446
20
-3.7254315634293436
10
-5.9808803046390446
20
-3.7242956238435641
10
-6.0458803046390441
20
-3.7242956238435636
10
-6.0458803046390441
20
-3.9692956238435633
10
-6.04326524741652
20
-3.9692956238435633
10
-6.0458803046390441
20
-3.9708054278349341
10
-6.0458803046390441
20
-4.2117956238435639
10
-6.0432875682519729
20
-4.2117956238435639
10
-6.0458803046390441
20
-4.2132925408945772
10
-6.0458803046390441
20
-4.4211386378028417
10
-5.9158803046390442
20
-4.3460831028081905
10
-5.9158803046390442
20
-4.3417956238435638
10
-5.9084541732359277
20
-4.3417956238435638
10
-5.6558803046390453
20
-4.1959720328188883
10
-5.6558803046390453
20
-4.1929524248361458
10
-5.6545727760277824
20
-4.1952171308232025
10
-5.5549798545925722
20
-4.1377171308232032
10
-5.7174798545925727
20
-3.85625887459326
10
-5.7208803046390448
20
-3.8582221253429565
10
-5.7208803046390448
20
-3.8542956238435639
10
-5.9158803046390442
20
-3.8542956238435639
10
-5.9158803046390442
20
-3.9692956238435633
10
-5.913265247416521
20
-3.9692956238435633
10
-5.9158803046390442
20
-3.9708054278349341
10
-5.9158803046390442
20
-4.1959720328188883
10
-5.8508803046390447
20
-4.1584442653215623
10
-5.8508803046390447
20
-4.1757647733972512
10
-5.9308803046390448
20
-4.2219527949324211
10
-5.9308803046390448
20
-3.8392956238435634
10
-5.9180986424325663
20
-3.8392956238435634
10
-5.9158803046390442
20
-3.8380148659213198
10
-5.9158803046390442
20
-3.8392956238435634
10
-5.7880986424325664
20
-3.8392956238435634
10
-5.7858803046390443
20
-3.8380148659213198
10
-5.7858803046390443
20
-3.8392956238435634
10
-5.7099530839035522
20
-3.8392956238435634
10
-5.6719894735358052
20
-3.9050505258392496
10
-5.670880304639045
20
-3.9044101468781278
10
-5.670880304639045
20
-3.9069716627226145
10
-5.6069894735358057
20
-4.0176338283312258
10
-5.6058803046390446
20
-4.0169934493701041
10
-5.6058803046390446
20
-4.0195549652145912
10
-5.5419894735358062
20
-4.130217130823203
10
-5.5408803046390451
20
-4.1295767518620812
10
-5.5408803046390451
20
-4.1321382677065683
10
-5.5344894735358059
20
-4.1432075118799698
10
-6.0608803046390447
20
-4.4471193999163763
10
-6.0608803046390447
20
-3.7742956238435639
10
-6.065515339940589
20
-3.7742956238435639
10
-6.0608803046390447
20
-3.7716195849645135
10
-6.0608803046390447
20
-3.7092956238435635
10
-5.634897548908901
20
-3.7092956238435639
10
-5.3569061710438284
20
-4.1907908143719474
10
-5.5820727760277826
20
-4.3207908143719465
10
-5.5807652474165197
20
-4.323055520359004
10
-5.5833803046390447
20
-4.3215457163676332
10
-5.7920839364455095
20
-4.4420408143719463
10
-5.7907875682519725
20
-4.4442861899484667
10
-5.7933803046390446
20
-4.4427892728974534
10
-6.1683803046390446
20
-4.6592956238435637
10
-5.5833803046390456
20
-4.997045531319495
10
-5.5807652474165206
20
-4.9955357273281233
10
-5.5820727760277826
20
-4.99780043331518
10
-5.3698965521005952
20
-5.1203004333151796
10
-5.3373965521005955
20
-5.0640087820691919
10
-5.3383803046390446
20
-5.0634408122763013
10
-5.3364127995621455
20
-5.0623048726905218
10
-5.272396552100596
20
-4.9514254795772139
10
-5.2733803046390451
20
-4.950857509784325
10
-5.2714127995621451
20
-4.9497215701985438
10
-5.2073965521005947
20
-4.8388421770852377
10
-5.2083803046390456
20
-4.838274207292347
10
-5.2064127995621448
20
-4.8371382677065666
10
-5.1600269525004334
20
-4.7567956238435638
10
-5.1618340289695785
20
-4.753665675585844
10
-5.1564127995621449
20
-4.7505357273281232
10
-5.1423965521005952
20
-4.7262588745932606
10
-5.1433803046390443
20
-4.7256909048003699
10
-5.1414127995621453
20
-4.7245549652145904
10
-5.1037353012544457
20
-4.6592956238435645
10
-5.1414127995621461
20
-4.594036282472536
10
-5.1433803046390452
20
-4.5929003428867565
10
-5.1423965521005952
20
-4.5923323730938668
10
-5.2064127995621456
20
-4.4814529799805589
10
-5.2083803046390447
20
-4.4803170403947803
10
-5.2073965521005947
20
-4.4797490706018896
10
-5.271412799562146
20
-4.3688696774885818
10
-5.2733803046390442
20
-4.3677337379028032
10
-5.2723965521005951
20
-4.3671657681099134
10
-5.3048965521005949
20
-4.3108741168639231
10
-5.5170727760277822
20
-4.4333741168639236
10
-5.5157652474165202
20
-4.4356388228509793
10
-5.5183803046390443
20
-4.4341290188596094
10
-5.7270839364455091
20
-4.5546241168639234
10
-5.725787568251973
20
-4.5568694924404447
10
-5.7283803046390442
20
-4.5553725753894305
10
-5.9083803046390448
20
-4.6592956238435628
10
-5.778380304639045
20
-4.7343511588382148
10
-5.7746672389374867
20
-4.7322074193559009
10
-5.7709541732359275
20
-4.7386386378028416
10
-5.5183803046390452
20
-4.884462228827517
10
-5.5157652474165202
20
-4.8829524248361462
10
-5.5170727760277822
20
-4.885217130823202
10
-5.4174798545925729
20
-4.9427171308232021
10
-5.2549798545925714
20
-4.6612588745932602
10
-5.2583803046390436
20
-4.6592956238435637
10
-5.2549798545925723
20
-4.6573323730938672
10
-5.3524798545925716
20
-4.4884574193559015
10
-5.4520727760277818
20
-4.5459574193559007
10
-5.4507652474165207
20
-4.5482221253429564
10
-5.4533803046390439
20
-4.5467123213515865
10
-5.6483803046390451
20
-4.6592956238435637
10
-5.5833803046390447
20
-4.6968233913408888
10
-5.5983803046390443
20
-4.7054836453787336
10
-5.6783803046390444
20
-4.6592956238435637
10
-5.3469894735358059
20
-4.4679670382991352
10
-5.3405986424325658
20
-4.4790362824725358
10
-5.3383803046390446
20
-4.4803170403947794
10
-5.3394894735358056
20
-4.4809574193559012
10
-5.2755986424325663
20
-4.5916195849645129
10
-5.2733803046390451
20
-4.5929003428867565
10
-5.2744894735358061
20
-4.5935407218478783
10
-5.23652586316806
20
-4.6592956238435637
10
-5.2744894735358061
20
-4.725050525839249
10
-5.2733803046390451
20
-4.7256909048003708
10
-5.2755986424325663
20
-4.7269716627226144
10
-5.3394894735358056
20
-4.8376338283312252
10
-5.3383803046390446
20
-4.838274207292347
10
-5.3405986424325675
20
-4.8395549652145906
10
-5.404489473535806
20
-4.9502171308232015
10
-5.403380304639045
20
-4.9508575097843233
10
-5.405598642432567
20
-4.9521382677065668
10
-5.4119894735358054
20
-4.9632075118799692
10
-5.9383803046390451
20
-4.6592956238435628
10
-5.3556978222898168
20
-4.3228837358071575
10
-5.3580153399405894
20
-4.3188696774885829
10
-5.3533803046390451
20
-4.3215457163676332
10
-5.2994061710438292
20
-4.2903837358071568
0
LWPOLYLINE
5
120
100
AcDbEntity
8
0
100
AcDbPolyline
90
384
70
1
43
0.0
10
-6.0683803046390441
20
-4.6592956238435637
10
-5.2756145197978395
20
-4.2015920845611694
10
-5.3331145197978396
20
-4.1019991631259582
10
-5.3461049008546064
20
-4.1094991631259585
10
-5.606030035449419
20
-3.6592956238435637
10
-6.1108803046390445
20
-3.6592956238435637
10
-6.1108803046390445
20
-3.7242956238435636
10
-6.1089127995621455
20
-3.7242956238435636
10
-6.1108803046390445
20
-3.7254315634293427
10
-6.1108803046390445
20
-4.5337219402948197
10
-5.4661882033465838
20
-4.1615087820691912
10
-5.4746828492087802
20
-4.1467956238435635
10
-5.4758803046390447
20
-4.1467956238435635
10
-5.4758803046390447
20
-4.1447215701985449
10
-5.5236882033465839
20
-4.0619158606339809
10
-5.5258803046390446
20
-4.063181470905274
10
-5.5258803046390446
20
-4.0581190298201015
10
-5.5872661517007565
20
-3.9517956238435641
10
-5.5929543582840653
20
-3.9517956238435641
10
-5.590880304639045
20
-3.9505981684132969
10
-5.590880304639045
20
-3.9455357273281235
10
-5.6536882033465838
20
-3.8367492556500276
10
-5.6558803046390453
20
-3.8380148659213198
10
-5.6558803046390453
20
-3.8329524248361464
10
-5.681085570444071
20
-3.7892956238435636
10
-5.7314961020541224
20
-3.7892956238435636
10
-5.7358803046390454
20
-3.7918268443861498
10
-5.7358803046390454
20
-3.7892956238435636
10
-5.8614961020541223
20
-3.7892956238435636
10
-5.8658803046390444
20
-3.7918268443861507
10
-5.8658803046390444
20
-3.7892956238435636
10
-5.9808803046390446
20
-3.7892956238435636
10
-5.9808803046390446
20
-4.3085553353108654
10
-5.6437715058385614
20
-4.1139254795772144
10
-5.7012715058385606
20
-4.0143325581420042
10
-5.6882811247817937
20
-4.0068325581420039
10
-5.6558803046390453
20
-4.0629524248361459
10
-5.6558803046390445
20
-4.063181470905274
10
-5.655781124781794
20
-4.0631242093879925
10
-5.6232811247817942
20
-4.119415860633981
10
-5.670704265759996
20
-4.1467956238435635
10
-5.670880304639045
20
-4.1467956238435635
10
-5.670880304639045
20
-4.14689725993777
10
-5.9958803046390452
20
-4.3345360974243983
10
-5.9958803046390452
20
-3.7742956238435639
10
-5.93551533994059
20
-3.7742956238435639
10
-5.9308803046390439
20
-3.7716195849645135
10
-5.9308803046390448
20
-3.7742956238435639
10
-5.8055153399405892
20
-3.7742956238435639
10
-5.8008803046390449
20
-3.7716195849645135
10
-5.8008803046390449
20
-3.7742956238435639
10
-5.6755153399405902
20
-3.7742956238435639
10
-5.670880304639045
20
-3.7716195849645135
10
-5.670880304639045
20
-3.7769716627226138
10
-5.6081978222898172
20
-3.8855409068960158
10
-5.6058803046390446
20
-3.8842028874564907
10
-5.6058803046390446
20
-3.8895549652145909
10
-5.5431978222898168
20
-3.9981242093879925
10
-5.5408803046390451
20
-3.9967861899484678
10
-5.5408803046390451
20
-4.0021382677065676
10
-5.4781978222898173
20
-4.1107075118799692
10
-5.4758803046390438
20
-4.1093694924404449
10
-5.4758803046390447
20
-4.1147215701985447
10
-5.4456978222898167
20
-4.1669991631259578
10
-6.1258803046390451
20
-4.5597027024083525
10
-6.1258803046390451
20
-3.6442956238435631
10
-6.2408803046390444
20
-3.6442956238435631
10
-6.2408803046390444
20
-3.6592956238435632
10
-6.7607305738286696
20
-3.6592956238435632
10
-7.0131557084234837
20
-4.0965087820691908
10
-6.9568640571774951
20
-4.1290087820691905
10
-6.9558803046390443
20
-4.1273048726905222
10
-6.9558803046390452
20
-4.1295767518620803
10
-6.2558803046390441
20
-4.5337219402948188
10
-6.2558803046390441
20
-3.7892956238435636
10
-6.2728695963634369
20
-3.7892956238435636
10
-6.2734683240785696
20
-3.7903326506660733
10
-6.2752645072239668
20
-3.7892956238435636
10
-6.3708803046390452
20
-3.7892956238435636
10
-6.3708803046390452
20
-3.7918268443861498
10
-6.3752645072239664
20
-3.7892956238435636
10
-6.4980362013473902
20
-3.7892956238435636
10
-6.500880304639046
20
-3.7942217552466833
10
-6.500880304639046
20
-3.7918268443861498
10
-6.5052645072239663
20
-3.7892956238435636
10
-6.630880304639045
20
-3.7892956238435636
10
-6.630880304639045
20
-3.7918268443861498
10
-6.6352645072239671
20
-3.7892956238435636
10
-6.6856750388340185
20
-3.7892956238435636
10
-6.7108803046390459
20
-3.8329524248361473
10
-6.7108803046390459
20
-3.8380148659213198
10
-6.7130724059315057
20
-3.8367492556500267
10
-6.7758803046390437
20
-3.9455357273281235
10
-6.7758803046390437
20
-3.9505981684132978
10
-6.7780724059315061
20
-3.9493325581420038
10
-6.8355724059315062
20
-4.048925479577214
10
-6.3858803046390449
20
-4.3085553353108654
10
-6.3858803046390449
20
-3.9192956238435643
10
-6.500880304639046
20
-3.9192956238435634
10
-6.500880304639046
20
-3.9042956238435629
10
-6.4360786643535466
20
-3.9042956238435629
10
-6.4358803046390447
20
-3.9044101468781265
10
-6.4358803046390447
20
-3.9042956238435629
10
-6.3708803046390452
20
-3.9042956238435642
10
-6.3708803046390452
20
-3.9590551502627287
10
-6.3709683240785688
20
-3.9592076044040385
10
-6.3708803046390452
20
-3.9592584224511422
10
-6.3708803046390452
20
-4.3345360974243983
10
-6.8560627869882733
20
-4.0544158606339806
10
-6.8258803046390453
20
-4.0021382677065684
10
-6.8258803046390453
20
-3.996786189948466
10
-6.8235627869882718
20
-3.9981242093879925
10
-6.760880304639044
20
-3.8895549652145904
10
-6.7608803046390449
20
-3.8842028874564898
10
-6.7585627869882732
20
-3.8855409068960149
10
-6.6958803046390454
20
-3.7769716627226138
10
-6.6958803046390454
20
-3.7716195849645135
10
-6.6912452693375002
20
-3.7742956238435639
10
-6.5658803046390455
20
-3.7742956238435639
10
-6.5658803046390455
20
-3.7716195849645135
10
-6.5612452693375003
20
-3.7742956238435639
10
-6.4358803046390447
20
-3.7742956238435639
10
-6.4358803046390447
20
-3.7716195849645135
10
-6.4312452693375004
20
-3.7742956238435639
10
-6.3058803046390457
20
-3.7742956238435639
10
-6.3058803046390457
20
-3.7716195849645127
10
-6.3012452693375005
20
-3.7742956238435639
10
-6.2408803046390444
20
-3.7742956238435639
10
-6.2408803046390444
20
-4.5597027024083525
10
-7.0336460894802491
20
-4.1019991631259574
10
-7.0911460894802492
20
-4.2015920845611685
10
-7.0781557084234832
20
-4.2090920845611679
10
-7.3380808430182967
20
-4.6592956238435619
10
-7.0856557084234826
20
-5.0965087820691908
10
-7.0293640571774949
20
-5.064008782069191
10
-7.0303478097159449
20
-5.0623048726905209
10
-7.028380304639045
20
-5.0634408122763004
10
-6.3283803046390457
20
-4.6592956238435628
10
-6.9730724059315063
20
-4.2870824656179352
10
-6.9815670517937019
20
-4.3017956238435628
10
-6.9809683240785683
20
-4.3028326506660726
10
-6.9827645072239681
20
-4.3038696774885823
10
-7.0305724059315065
20
-4.3866753870531454
10
-7.028380304639045
20
-4.3879409973244385
10
-7.0327645072239671
20
-4.3904722178670248
10
-7.0941503542856781
20
-4.4967956238435622
10
-7.0913062509940241
20
-4.5017217552466819
10
-7.0933803046390462
20
-4.5005242998164157
10
-7.0977645072239683
20
-4.5030555203590019
10
-7.1605724059315063
20
-4.6118419920370997
10
-7.1583803046390457
20
-4.6131076023083928
10
-7.1627645072239678
20
-4.615638822850979
10
-7.1879697730289935
20
-4.6592956238435628
10
-7.1627645072239661
20
-4.7029524248361465
10
-7.1583803046390457
20
-4.7054836453787328
10
-7.1605724059315063
20
-4.7067492556500268
10
-7.0977645072239683
20
-4.8155357273281227
10
-7.0933803046390462
20
-4.818066947870709
10
-7.095572405931506
20
-4.819332558142003
10
-7.0380724059315058
20
-4.9189254795772142
10
-6.5883803046390454
20
-4.6592956238435628
10
-6.9254891034395287
20
-4.4646657681099127
10
-6.9829891034395297
20
-4.5642586895451229
10
-6.9959794844962957
20
-4.5567586895451218
10
-6.9635786643535473
20
-4.5006388228509797
10
-6.9633803046390454
20
-4.5005242998164148
10
-6.9634794844962959
20
-4.5004670382991332
10
-6.9309794844962953
20
-4.4441753870531446
10
-6.8835563435180944
20
-4.471555150262728
10
-6.883468324078569
20
-4.4717076044040374
10
-6.8833803046390454
20
-4.4716567863569336
10
-6.5583803046390452
20
-4.6592956238435628
10
-7.0435627869882733
20
-4.9394158606339795
10
-7.0737452693375005
20
-4.8871382677065673
10
-7.0783803046390457
20
-4.8844622288275161
10
-7.0760627869882722
20
-4.8831242093879919
10
-7.1387452693375
20
-4.7745549652145893
10
-7.1433803046390452
20
-4.7718789263355399
10
-7.1410627869882735
20
-4.7705409068960147
10
-7.2037452693374995
20
-4.6619716627226131
10
-7.2083803046390447
20
-4.6592956238435628
10
-7.2037452693375013
20
-4.6566195849645124
10
-7.1410627869882735
20
-4.5480503407911117
10
-7.1433803046390452
20
-4.5467123213515857
10
-7.1387452693375
20
-4.5440362824725344
10
-7.0760627869882722
20
-4.4354670382991337
10
-7.0783803046390448
20
-4.4341290188596094
10
-7.0737452693375005
20
-4.4314529799805591
10
-7.0110627869882727
20
-4.3228837358071575
10
-7.0133803046390453
20
-4.3215457163676314
10
-7.008745269337501
20
-4.3188696774885811
10
-6.9785627869882729
20
-4.266592084561168
10
-6.2983803046390454
20
-4.6592956238435628
10
-7.09114608948025
20
-5.116999163125957
10
-7.0336460894802491
20
-5.2165920845611673
10
-7.0206557084234831
20
-5.2090920845611679
10
-6.7607305738286705
20
-5.6592956238435619
10
-6.255880304639045
20
-5.6592956238435619
10
-6.255880304639045
20
-5.5942956238435624
10
-6.257847809715944
20
-5.5942956238435624
10
-6.255880304639045
20
-5.5931596842577838
10
-6.255880304639045
20
-4.7848693073923068
10
-6.9005724059315057
20
-5.1570824656179353
10
-6.8920777600693102
20
-5.171795623843563
10
-6.8908803046390457
20
-5.171795623843563
10
-6.8908803046390457
20
-5.1738696774885806
10
-6.8430724059315065
20
-5.2566753870531455
10
-6.840880304639045
20
-5.2554097767818524
10
-6.840880304639045
20
-5.2604722178670249
10
-6.7794944575773339
20
-5.3667956238435623
10
-6.7738062509940251
20
-5.3667956238435623
10
-6.7758803046390454
20
-5.3679930792738295
10
-6.7758803046390454
20
-5.373055520359002
10
-6.7130724059315057
20
-5.4818419920370989
10
-6.7108803046390459
20
-5.4805763817658057
10
-6.7108803046390459
20
-5.4856388228509791
10
-6.6856750388340185
20
-5.5292956238435629
10
-6.6352645072239671
20
-5.5292956238435629
10
-6.630880304639045
20
-5.5267644033009757
10
-6.630880304639045
20
-5.5292956238435629
10
-6.5052645072239681
20
-5.5292956238435629
10
-6.500880304639046
20
-5.5267644033009757
10
-6.500880304639046
20
-5.5292956238435629
10
-6.3858803046390449
20
-5.5292956238435629
10
-6.3858803046390449
20
-5.010035912376261
10
-6.7229891034395282
20
-5.204665768109912
10
-6.6654891034395298
20
-5.3042586895451223
10
-6.6784794844962958
20
-5.3117586895451216
10
-6.7108803046390459
20
-5.2556388228509796
10
-6.7108803046390459
20
-5.2554097767818524
10
-6.7109794844962956
20
-5.255467038299134
10
-6.7434794844962953
20
-5.1991753870531454
10
-6.6960563435180944
20
-5.171795623843563
10
-6.6958803046390454
20
-5.171795623843563
10
-6.6958803046390454
20
-5.1716939877493564
10
-6.3708803046390452
20
-4.9840551502627273
10
-6.3708803046390452
20
-5.5442956238435626
10
-6.4312452693375004
20
-5.5442956238435626
10
-6.4358803046390456
20
-5.5469716627226138
10
-6.4358803046390447
20
-5.5442956238435626
10
-6.5612452693375003
20
-5.5442956238435626
10
-6.5658803046390455
20
-5.5469716627226129
10
-6.5658803046390455
20
-5.5442956238435626
10
-6.6912452693374993
20
-5.5442956238435617
10
-6.6958803046390454
20
-5.5469716627226129
10
-6.6958803046390454
20
-5.5416195849645131
10
-6.7585627869882732
20
-5.4330503407911106
10
-6.7608803046390449
20
-5.4343883602306358
10
-6.7608803046390449
20
-5.4290362824725351
10
-6.8235627869882727
20
-5.3204670382991344
10
-6.8258803046390453
20
-5.3218050577386586
10
-6.8258803046390453
20
-5.3164529799805589
10
-6.8885627869882722
20
-5.2078837358071564
10
-6.8908803046390457
20
-5.2092217552466815
10
-6.8908803046390457
20
-5.2038696774885809
10
-6.9210627869882728
20
-5.1515920845611678
10
-6.2408803046390453
20
-4.758888545278773
10
-6.2408803046390453
20
-5.6742956238435625
10
-6.1258803046390451
20
-5.6742956238435625
10
-6.1258803046390451
20
-5.6592956238435619
10
-5.6060300354494208
20
-5.6592956238435628
10
-5.3536049008546067
20
-5.2220824656179348
10
-5.4098965521005953
20
-5.189582465617935
10
-5.4108803046390452
20
-5.1912863749966043
10
-5.4108803046390443
20
-5.1890144958250453
10
-6.1108803046390454
20
-4.7848693073923068
10
-6.1108803046390454
20
-5.5292956238435629
10
-6.0938910129146526
20
-5.5292956238435629
10
-6.0932922851995208
20
-5.528258597021054
10
-6.0914961020541227
20
-5.5292956238435629
10
-5.9958803046390452
20
-5.5292956238435629
10
-5.9958803046390452
20
-5.5267644033009757
10
-5.991496102054124
20
-5.5292956238435629
10
-5.8687244079307002
20
-5.5292956238435629
10
-5.8658803046390453
20
-5.5243694924404432
10
-5.8658803046390453
20
-5.5267644033009757
10
-5.8614961020541232
20
-5.5292956238435629
10
-5.7358803046390454
20
-5.5292956238435629
10
-5.7358803046390454
20
-5.5267644033009757
10
-5.7314961020541224
20
-5.5292956238435629
10
-5.681085570444071
20
-5.5292956238435629
10
-5.6558803046390453
20
-5.4856388228509791
10
-5.6558803046390453
20
-5.4805763817658057
10
-5.6536882033465838
20
-5.4818419920370989
10
-5.590880304639045
20
-5.3730555203590029
10
-5.590880304639045
20
-5.3679930792738286
10
-5.5886882033465843
20
-5.3692586895451226
10
-5.5311882033465842
20
-5.2696657681099115
10
-5.9808803046390446
20
-5.010035912376261
10
-5.9808803046390446
20
-5.3992956238435621
10
-5.8658803046390453
20
-5.399295623843563
10
-5.8658803046390453
20
-5.4142956238435627
10
-5.9306819449245429
20
-5.4142956238435627
10
-5.9308803046390457
20
-5.4141811008089995
10
-5.9308803046390457
20
-5.4142956238435627
10
-5.9958803046390452
20
-5.4142956238435618
10
-5.9958803046390452
20
-5.3595360974243977
10
-5.9957922851995207
20
-5.3593836432830875
10
-5.9958803046390452
20
-5.3593328252359838
10
-5.9958803046390452
20
-4.9840551502627282
10
-5.5106978222898171
20
-5.2641753870531449
10
-5.5408803046390451
20
-5.316452979980558
10
-5.5408803046390451
20
-5.3218050577386595
10
-5.5431978222898177
20
-5.3204670382991335
10
-5.6058803046390455
20
-5.4290362824725351
10
-5.6058803046390446
20
-5.4343883602306358
10
-5.6081978222898172
20
-5.4330503407911106
10
-5.670880304639045
20
-5.5416195849645113
10
-5.670880304639045
20
-5.5469716627226129
10
-5.6755153399405893
20
-5.5442956238435626
10
-5.8008803046390449
20
-5.5442956238435626
10
-5.8008803046390449
20
-5.5469716627226129
10
-5.8055153399405901
20
-5.5442956238435626
10
-5.9308803046390457
20
-5.5442956238435626
10
-5.9308803046390448
20
-5.546971662722612
10
-5.9355153399405891
20
-5.5442956238435626
10
-6.0608803046390447
20
-5.5442956238435626
10
-6.0608803046390447
20
-5.5469716627226138
10
-6.0655153399405899
20
-5.5442956238435634
10
-6.1258803046390451
20
-5.5442956238435634
10
-6.1258803046390451
20
-4.7588885452787739
10
-5.3331145197978405
20
-5.2165920845611691
10
-5.2756145197978404
20
-5.1169991631259588
10
-5.2886049008546072
20
-5.1094991631259585
10
-5.0286797662597928
20
-4.6592956238435645
10
-5.281104900854606
20
-4.2220824656179357
10
-5.3373965521005955
20
-4.2545824656179354
10
-5.3364127995621455
20
-4.2562863749966047
10
-5.3383803046390446
20
-4.255150435410826
10
-6.0383803046390447
20
-4.6592956238435637
10
-5.3936882033465832
20
-5.0315087820691913
10
-5.3851935574843877
20
-5.0167956238435627
10
-5.3857922851995204
20
-5.0157585970210539
10
-5.3839961020541223
20
-5.0147215701985441
10
-5.3361882033465839
20
-4.931915860633981
10
-5.3383803046390446
20
-4.9306502503626879
10
-5.3339961020541224
20
-4.9281190298201007
10
-5.2726102549924114
20
-4.8217956238435633
10
-5.2754543582840654
20
-4.8168694924404436
10
-5.2733803046390451
20
-4.8180669478707108
10
-5.2689961020541221
20
-4.8155357273281245
10
-5.2061882033465841
20
-4.7067492556500268
10
-5.2083803046390447
20
-4.7054836453787336
10
-5.2039961020541217
20
-4.7029524248361474
10
-5.178790836249096
20
-4.6592956238435637
10
-5.2039961020541226
20
-4.615638822850979
10
-5.2083803046390447
20
-4.6131076023083928
10
-5.2061882033465832
20
-4.6118419920370997
10
-5.2689961020541221
20
-4.5030555203590037
10
-5.2733803046390451
20
-4.5005242998164166
10
-5.2711882033465836
20
-4.4992586895451234
10
-5.3286882033465837
20
-4.3996657681099123
10
-5.778380304639045
20
-4.6592956238435628
10
-5.4412715058385608
20
-4.8539254795772138
10
-5.3837715058385607
20
-4.7543325581420035
10
-5.3707811247817938
20
-4.7618325581420038
10
-5.4031819449245431
20
-4.8179524248361458
10
-5.403380304639045
20
-4.8180669478707108
10
-5.4032811247817936
20
-4.8181242093879924
10
-5.4357811247817942
20
-4.87441586063398
10
-5.483204265759996
20
-4.8470360974243984
10
-5.4832922851995205
20
-4.8468836432830882
10
-5.483380304639045
20
-4.846934461330191
10
-5.8083803046390452
20
-4.6592956238435637
10
-5.3231978222898171
20
-4.3791753870531451
10
-5.293015339940589
20
-4.4314529799805591
10
-5.2883803046390438
20
-4.4341290188596103
10
-5.2906978222898173
20
-4.4354670382991346
10
-5.2280153399405895
20
-4.5440362824725362
10
-5.2233803046390443
20
-4.5467123213515865
10
-5.2256978222898169
20
-4.5480503407911117
10
-5.16301533994059
20
-4.6566195849645124
10
-5.1583803046390448
20
-4.6592956238435637
10
-5.1630153399405891
20
-4.661971662722614
10
-5.2256978222898169
20
-4.7705409068960147
10
-5.2233803046390443
20
-4.7718789263355408
10
-5.2280153399405895
20
-4.7745549652145911
10
-5.2906978222898173
20
-4.8831242093879927
10
-5.2883803046390456
20
-4.884462228827517
10
-5.293015339940589
20
-4.8871382677065673
10
-5.3556978222898168
20
-4.995707511879969
10
-5.3533803046390442
20
-4.997045531319495
10
-5.3580153399405894
20
-4.9997215701985454
10
-5.3881978222898175
20
-5.0519991631259575
0
LWPOLYLINE
5
121
100
AcDbEntity
8
0
100
AcDbPolyline
90
3
70
1
43
0.0
10
-5.9308803046390457
20
-5.2469527949324206
10
-5.9308803046390457
20
-5.2467495227440075
10
-5.9307922851995203
20
-5.2468003407911104
0
LWPOLYLINE
5
122
100
AcDbEntity
8
0
100
AcDbPolyline
90
3
70
1
43
0.0
10
-6.1258803046390451
20
-5.5844994302199389
10
-6.1257922851995206
20
-5.5845502482670417
10
-6.1258803046390451
20
-5.584702702408352
0
LWPOLYLINE
5
123
100
AcDbEntity
8
0
100
AcDbPolyline
90
3
70
1
43
0.0
10
-5.9158803046390451
20
-5.3492956238435632
10
-5.9158803046390451
20
-5.3477858198521924
10
-5.913265247416521
20
-5.3492956238435632
0
LWPOLYLINE
5
124
100
AcDbEntity
8
0
100
AcDbPolyline
90
3
70
1
43
0.0
10
-6.6471878332503085
20
-5.2359574193559002
10
-6.6458803046390447
20
-5.2352025173602152
10
-6.6458803046390447
20
-5.2382221253429568
0
LWPOLYLINE
5
125
100
AcDbEntity
8
0
100
AcDbPolyline
90
3
70
1
43
0.0
10
-6.9558803046390452
20
-5.1716939877493564
10
-6.9558803046390452
20
-5.171795623843563
10
-6.9560563435180933
20
-5.171795623843563
0
LWPOLYLINE
5
126
100
AcDbEntity
8
0
100
AcDbPolyline
90
3
70
1
43
0.0
10
-6.5660563435180936
20
-5.171795623843563
10
-6.5658803046390455
20
-5.1716939877493564
10
-6.5658803046390455
20
-5.171795623843563
0
LWPOLYLINE
5
127
100
AcDbEntity
8
0
100
AcDbPolyline
90
3
70
1
43
0.0
10
-6.9146878332503077
20
-4.5459574193558998
10
-6.9133803046390456
20
-4.5467123213515857
10
-6.9159953618615706
20
-4.5482221253429564
0
LWPOLYLINE
5
128
100
AcDbEntity
8
0
100
AcDbPolyline
90
3
70
1
43
0.0
10
-7.0133803046390453
20
-4.2464901813729803
10
-7.0134683240785707
20
-4.246540999420084
10
-7.0135563435180934
20
-4.2463885452787737
0
LWPOLYLINE
5
129
100
AcDbEntity
8
0
100
AcDbPolyline
90
3
70
1
43
0.0
10
-6.8185563435180931
20
-4.5841384527547042
10
-6.818380304639045
20
-4.5842400888489117
10
-6.8184683240785704
20
-4.5842909068960145
0
LWPOLYLINE
5
130
100
AcDbEntity
8
0
100
AcDbPolyline
90
3
70
1
43
0.0
10
-6.4358803046390447
20
-4.0716384527547049
10
-6.4358803046390447
20
-4.0718417249431189
10
-6.4359683240785701
20
-4.0717909068960152
0
LWPOLYLINE
5
131
100
AcDbEntity
8
0
100
AcDbPolyline
90
3
70
1
43
0.0
10
-6.2408803046390444
20
-3.7340918174671871
10
-6.2409683240785698
20
-3.7340409994200834
10
-6.2408803046390453
20
-3.7338885452787745
0
LWPOLYLINE
5
132
100
AcDbEntity
8
0
100
AcDbPolyline
90
3
70
1
43
0.0
10
-6.4508803046390444
20
-3.9692956238435624
10
-6.4508803046390444
20
-3.9708054278349336
10
-6.4534953618615694
20
-3.9692956238435633
0
LWPOLYLINE
5
133
100
AcDbEntity
8
0
100
AcDbPolyline
90
3
70
1
43
0.0
10
-5.5482042657599964
20
-4.7344527949324213
10
-5.5483803046390454
20
-4.7343511588382148
10
-5.54829228519952
20
-4.7343003407911111
0
LWPOLYLINE
5
134
100
AcDbEntity
8
0
100
AcDbPolyline
90
3
70
1
43
0.0
10
-5.3533803046390451
20
-5.0721010663141453
10
-5.3532922851995197
20
-5.0720502482670424
10
-5.353204265759997
20
-5.0722027024083518
0
LWPOLYLINE
5
135
100
AcDbEntity
8
0
100
AcDbPolyline
90
3
70
1
43
0.0
10
-5.4520727760277818
20
-4.7726338283312257
10
-5.4533803046390439
20
-4.7718789263355408
10
-5.4507652474165207
20
-4.77036912234417
0
LWPOLYLINE
5
136
100
AcDbEntity
8
0
100
AcDbPolyline
90
3
70
1
43
0.0
10
-5.8007042657599968
20
-4.1467956238435635
10
-5.8008803046390449
20
-4.14689725993777
10
-5.8008803046390449
20
-4.1467956238435635
0
LWPOLYLINE
5
137
100
AcDbEntity
8
0
100
AcDbPolyline
90
3
70
1
43
0.0
10
-5.4108803046390443
20
-4.14689725993777
10
-5.4108803046390443
20
-4.1467956238435635
10
-5.4107042657599962
20
-4.1467956238435635
0
LWPOLYLINE
5
138
100
AcDbEntity
8
0
100
AcDbPolyline
90
3
70
1
43
0.0
10
-5.7195727760277819
20
-4.0826338283312253
10
-5.7208803046390448
20
-4.0833887303269103
10
-5.7208803046390448
20
-4.0803691223441696
0
LWPOLYLINE
5
139
100
AcDbEntity
8
0
100
AcDbPolyline
90
522
70
1
43
0.0
10
-5.0864147931787569
20
-4.6592956238435628
10
-5.3644061710438287
20
-5.1407908143719467
10
-5.5895727760277829
20
-5.0107908143719468
10
-5.590880304639045
20
-5.0130555203590026
10
-5.590880304639045
20
-5.010035912376261
10
-5.7995839364455088
20
-4.8895408143719461
10
-5.8008803046390449
20
-4.8917861899484665
10
-5.8008803046390449
20
-4.888792355846439
10
-6.1758803046390449
20
-4.6722860049003305
10
-6.1758803046390449
20
-5.3477858198521915
10
-6.1732652474165208
20
-5.3492956238435632
10
-6.1758803046390449
20
-5.3492956238435632
10
-6.1758803046390449
20
-5.5942956238435624
10
-6.1108803046390454
20
-5.5942956238435624
10
-6.1108803046390454
20
-5.5931596842577838
10
-6.1089127995621455
20
-5.5942956238435624
10
-5.9808803046390446
20
-5.5942956238435624
10
-5.9808803046390446
20
-5.5931596842577829
10
-5.9789127995621456
20
-5.5942956238435624
10
-5.8508803046390447
20
-5.5942956238435624
10
-5.8508803046390447
20
-5.5931596842577829
10
-5.8489127995621448
20
-5.5942956238435624
10
-5.7561411054387221
20
-5.5942956238435624
10
-5.7543340289695788
20
-5.5911656755858425
10
-5.7489127995621452
20
-5.5942956238435624
10
-5.7208803046390448
20
-5.5942956238435624
10
-5.7208803046390448
20
-5.5931596842577838
10
-5.7189127995621458
20
-5.5942956238435624
10
-5.6435578029467459
20
-5.5942956238435624
10
-5.6058803046390446
20
-5.5290362824725348
10
-5.6058803046390455
20
-5.5267644033009757
10
-5.6048965521005956
20
-5.5273323730938655
10
-5.5408803046390451
20
-5.4164529799805576
10
-5.5408803046390451
20
-5.4141811008089995
10
-5.5398965521005952
20
-5.4147490706018884
10
-5.4758803046390456
20
-5.3038696774885814
10
-5.4758803046390456
20
-5.3015977983170224
10
-5.4748965521005957
20
-5.3021657681099112
10
-5.442396552100595
20
-5.2458741168639236
10
-5.6545727760277824
20
-5.123374116863924
10
-5.6558803046390453
20
-5.1256388228509797
10
-5.6558803046390453
20
-5.1226192148682381
10
-5.8645839364455083
20
-5.0021241168639232
10
-5.8658803046390453
20
-5.0043694924404436
10
-5.8658803046390453
20
-5.0013756583384161
10
-6.0458803046390441
20
-4.8974526098842839
10
-6.0458803046390441
20
-5.047563679873587
10
-6.0421672389374859
20
-5.0497074193559
10
-6.0458803046390441
20
-5.0561386378028415
10
-6.0458803046390441
20
-5.3477858198521915
10
-6.04326524741652
20
-5.3492956238435632
10
-6.0458803046390441
20
-5.3492956238435632
10
-6.0458803046390441
20
-5.4642956238435625
10
-5.7208803046390448
20
-5.4642956238435625
10
-5.7208803046390448
20
-5.4603691223441695
10
-5.7174798545925727
20
-5.462332373093866
10
-5.6199798545925725
20
-5.2934574193559003
10
-5.7195727760277828
20
-5.2359574193559011
10
-5.7208803046390448
20
-5.2382221253429568
10
-5.7208803046390448
20
-5.2352025173602152
10
-5.9158803046390451
20
-5.1226192148682381
10
-5.9158803046390451
20
-5.1976747498628892
10
-5.9308803046390457
20
-5.1890144958250453
10
-5.9308803046390457
20
-5.0966384527547053
10
-5.5994894735358063
20
-5.2879670382991337
10
-5.6058803046390446
20
-5.2990362824725352
10
-5.6058803046390446
20
-5.3015977983170224
10
-5.6069894735358057
20
-5.3009574193559006
10
-5.670880304639045
20
-5.4116195849645123
10
-5.670880304639045
20
-5.4141811008089995
10
-5.6719894735358061
20
-5.4135407218478777
10
-5.7099530839035522
20
-5.4792956238435622
10
-5.7858803046390452
20
-5.4792956238435622
10
-5.7858803046390452
20
-5.4805763817658057
10
-5.7880986424325673
20
-5.4792956238435622
10
-5.9158803046390451
20
-5.4792956238435622
10
-5.9158803046390451
20
-5.4805763817658066
10
-5.9180986424325681
20
-5.4792956238435622
10
-6.0458803046390441
20
-5.4792956238435622
10
-6.0458803046390441
20
-5.4805763817658057
10
-6.0480986424325671
20
-5.4792956238435622
10
-6.0608803046390447
20
-5.4792956238435622
10
-6.0608803046390447
20
-4.8714718477707502
10
-5.4781978222898173
20
-5.2078837358071564
10
-5.4758803046390456
20
-5.2038696774885818
10
-5.4758803046390456
20
-5.2092217552466824
10
-5.4219061710438288
20
-5.240383735807157
10
-5.634897548908901
20
-5.609295623843563
10
-6.1908803046390446
20
-5.609295623843563
10
-6.1908803046390446
20
-5.3492956238435632
10
-6.1934953618615705
20
-5.3492956238435632
10
-6.1908803046390446
20
-5.3477858198521915
10
-6.1908803046390446
20
-5.1067956238435626
10
-6.1934730410261176
20
-5.1067956238435626
10
-6.1908803046390446
20
-5.1052987067925493
10
-6.1908803046390455
20
-4.6722860049003296
10
-6.7758803046390454
20
-5.010035912376261
10
-6.7758803046390454
20
-5.0130555203590026
10
-6.7771878332503075
20
-5.010790814371946
10
-6.989364057177494
20
-5.1332908143719465
10
-6.9568640571774951
20
-5.189582465617935
10
-6.9558803046390452
20
-5.1890144958250453
10
-6.9558803046390452
20
-5.1912863749966043
10
-6.8918640571774938
20
-5.3021657681099112
10
-6.8908803046390457
20
-5.3015977983170215
10
-6.8908803046390457
20
-5.3038696774885814
10
-6.8268640571774943
20
-5.4147490706018884
10
-6.8258803046390453
20
-5.4141811008089995
10
-6.8258803046390453
20
-5.4164529799805594
10
-6.7794944575773339
20
-5.4967956238435631
10
-6.7758803046390454
20
-5.4967956238435631
10
-6.7758803046390454
20
-5.5030555203590019
10
-6.7618640571774948
20
-5.5273323730938655
10
-6.7608803046390449
20
-5.5267644033009757
10
-6.7608803046390449
20
-5.5290362824725356
10
-6.7232028063313454
20
-5.5942956238435624
10
-6.6478478097159446
20
-5.5942956238435624
10
-6.6458803046390447
20
-5.5931596842577838
10
-6.6458803046390447
20
-5.5942956238435624
10
-6.5178478097159438
20
-5.5942956238435624
10
-6.5158803046390457
20
-5.5931596842577838
10
-6.5158803046390457
20
-5.5942956238435624
10
-6.3878478097159448
20
-5.5942956238435624
10
-6.3858803046390449
20
-5.5931596842577829
10
-6.3858803046390449
20
-5.5942956238435624
10
-6.3208803046390454
20
-5.5942956238435624
10
-6.3208803046390454
20
-5.3492956238435632
10
-6.3234953618615695
20
-5.3492956238435632
10
-6.3208803046390454
20
-5.3477858198521915
10
-6.3208803046390454
20
-5.1067956238435626
10
-6.3234730410261166
20
-5.1067956238435626
10
-6.3208803046390454
20
-5.1052987067925493
10
-6.3208803046390454
20
-4.8974526098842839
10
-6.4508803046390444
20
-4.972508144878935
10
-6.4508803046390444
20
-4.9767956238435627
10
-6.4583064360421609
20
-4.9767956238435627
10
-6.7108803046390459
20
-5.1226192148682381
10
-6.7108803046390459
20
-5.1256388228509797
10
-6.7121878332503062
20
-5.123374116863924
10
-6.8117807546855174
20
-5.1808741168639232
10
-6.6492807546855177
20
-5.462332373093866
10
-6.6458803046390447
20
-5.4603691223441686
10
-6.6458803046390447
20
-5.4642956238435625
10
-6.4508803046390444
20
-5.4642956238435625
10
-6.4508803046390444
20
-5.3492956238435632
10
-6.4534953618615694
20
-5.3492956238435632
10
-6.4508803046390444
20
-5.3477858198521924
10
-6.4508803046390444
20
-5.1226192148682381
10
-6.5158803046390457
20
-5.1601469823655641
10
-6.5158803046390457
20
-5.1428264742898753
10
-6.4358803046390447
20
-5.0966384527547053
10
-6.4358803046390447
20
-5.4792956238435622
10
-6.4486619668455232
20
-5.4792956238435622
10
-6.4508803046390444
20
-5.4805763817658057
10
-6.4508803046390444
20
-5.4792956238435622
10
-6.5786619668455231
20
-5.4792956238435622
10
-6.5808803046390452
20
-5.4805763817658057
10
-6.5808803046390452
20
-5.4792956238435622
10
-6.6568075253745373
20
-5.4792956238435622
10
-6.6947711357422834
20
-5.4135407218478768
10
-6.6958803046390454
20
-5.4141811008089986
10
-6.6958803046390454
20
-5.4116195849645115
10
-6.7597711357422847
20
-5.3009574193559006
10
-6.7608803046390449
20
-5.3015977983170224
10
-6.7608803046390449
20
-5.2990362824725343
10
-6.8247711357422824
20
-5.1883741168639235
10
-6.8258803046390453
20
-5.1890144958250453
10
-6.8258803046390453
20
-5.1864529799805581
10
-6.8322711357422845
20
-5.1753837358071557
10
-6.3058803046390457
20
-4.8714718477707502
10
-6.3058803046390457
20
-5.5442956238435626
10
-6.3012452693375014
20
-5.5442956238435626
10
-6.3058803046390457
20
-5.5469716627226129
10
-6.3058803046390457
20
-5.609295623843563
10
-6.7318630603691902
20
-5.609295623843563
10
-7.009854438234262
20
-5.127800433315179
10
-6.7846878332503078
20
-4.99780043331518
10
-6.7859953618615707
20
-4.9955357273281225
10
-6.7833803046390448
20
-4.9970455313194933
10
-6.5746766728325809
20
-4.8765504333151792
10
-6.5759730410261179
20
-4.8743050577386597
10
-6.5733803046390449
20
-4.8758019747896721
10
-6.1983803046390449
20
-4.6592956238435628
10
-6.783380304639044
20
-4.3215457163676314
10
-6.7859953618615698
20
-4.3230555203590031
10
-6.7846878332503078
20
-4.3207908143719465
10
-6.9968640571774943
20
-4.198290814371946
10
-7.0293640571774949
20
-4.2545824656179345
10
-7.028380304639045
20
-4.2551504354108243
10
-7.0303478097159449
20
-4.2562863749966047
10
-7.0943640571774944
20
-4.3671657681099125
10
-7.0933803046390445
20
-4.3677337379028014
10
-7.0953478097159453
20
-4.3688696774885818
10
-7.1593640571774957
20
-4.4797490706018888
10
-7.158380304639044
20
-4.4803170403947794
10
-7.1603478097159448
20
-4.4814529799805589
10
-7.2067336567776561
20
-4.5617956238435626
10
-7.2049265803085119
20
-4.5649255721012825
10
-7.2103478097159446
20
-4.5680555203590023
10
-7.2243640571774952
20
-4.592332373093865
10
-7.2233803046390452
20
-4.5929003428867565
10
-7.2253478097159443
20
-4.594036282472536
10
-7.2630253080236447
20
-4.6592956238435619
10
-7.2253478097159443
20
-4.7245549652145904
10
-7.2233803046390452
20
-4.725690904800369
10
-7.2243640571774952
20
-4.7262588745932588
10
-7.1603478097159439
20
-4.8371382677065666
10
-7.1583803046390457
20
-4.8382742072923461
10
-7.1593640571774957
20
-4.8388421770852368
10
-7.0953478097159444
20
-4.9497215701985438
10
-7.0933803046390462
20
-4.9508575097843233
10
-7.0943640571774944
20
-4.951425479577213
10
-7.0618640571774955
20
-5.0077171308232025
10
-6.8496878332503082
20
-4.885217130823202
10
-6.8509953618615693
20
-4.8829524248361462
10
-6.8483803046390452
20
-4.884462228827517
10
-6.6396766728325813
20
-4.7639671308232021
10
-6.6409730410261174
20
-4.7617217552466817
10
-6.6383803046390444
20
-4.763218672297695
10
-6.4583803046390447
20
-4.6592956238435628
10
-6.5883803046390454
20
-4.5842400888489117
10
-6.5920933703406037
20
-4.5863838283312255
10
-6.5958064360421629
20
-4.5799526098842849
10
-6.8483803046390452
20
-4.4341290188596094
10
-6.8509953618615693
20
-4.4356388228509793
10
-6.8496878332503082
20
-4.4333741168639236
10
-6.9492807546855175
20
-4.3758741168639235
10
-7.1117807546855181
20
-4.6573323730938663
10
-7.1083803046390459
20
-4.6592956238435628
10
-7.1117807546855172
20
-4.6612588745932593
10
-7.0142807546855188
20
-4.830133828331225
10
-6.9146878332503077
20
-4.7726338283312248
10
-6.9159953618615706
20
-4.7703691223441691
10
-6.9133803046390456
20
-4.7718789263355399
10
-6.7183803046390453
20
-4.6592956238435628
10
-6.7833803046390448
20
-4.6217678563462377
10
-6.7683803046390452
20
-4.6131076023083919
10
-6.688380304639046
20
-4.6592956238435628
10
-7.0197711357422845
20
-4.8506242093879912
10
-7.0261619668455237
20
-4.8395549652145906
10
-7.028380304639045
20
-4.838274207292347
10
-7.0272711357422848
20
-4.8376338283312252
10
-7.0911619668455232
20
-4.7269716627226126
10
-7.0933803046390462
20
-4.7256909048003699
10
-7.0922711357422843
20
-4.7250505258392472
10
-7.1302347461100304
20
-4.6592956238435628
10
-7.0922711357422843
20
-4.5935407218478765
10
-7.0933803046390445
20
-4.5929003428867556
10
-7.0911619668455232
20
-4.5916195849645121
10
-7.0272711357422848
20
-4.4809574193559003
10
-7.028380304639045
20
-4.4803170403947785
10
-7.0261619668455229
20
-4.4790362824725349
10
-6.9622711357422844
20
-4.3683741168639241
10
-6.9633803046390437
20
-4.3677337379028023
10
-6.9611619668455225
20
-4.3664529799805587
10
-6.954771135742285
20
-4.3553837358071563
10
-6.4283803046390444
20
-4.6592956238435628
10
-7.0110627869882727
20
-4.9957075118799681
10
-7.008745269337501
20
-4.9997215701985436
10
-7.0133803046390453
20
-4.9970455313194933
10
-7.0673544382342612
20
-5.0282075118799687
10
-7.2803458160993335
20
-4.6592956238435628
10
-7.00235443823426
20
-4.1778004333151797
10
-6.7771878332503075
20
-4.3078004333151796
10
-6.7758803046390437
20
-4.3055357273281221
10
-6.7758803046390437
20
-4.3085553353108645
10
-6.5671766728325807
20
-4.4290504333151794
10
-6.5658803046390455
20
-4.42680505773866
10
-6.5658803046390455
20
-4.4297988918406874
10
-6.1908803046390446
20
-4.6463052427867959
10
-6.1908803046390446
20
-3.9708054278349341
10
-6.1934953618615696
20
-3.9692956238435637
10
-6.1908803046390446
20
-3.9692956238435637
10
-6.1908803046390446
20
-3.7242956238435627
10
-6.2558803046390441
20
-3.7242956238435627
10
-6.2558803046390441
20
-3.7254315634293427
10
-6.257847809715944
20
-3.7242956238435627
10
-6.3858803046390449
20
-3.7242956238435636
10
-6.3858803046390449
20
-3.7254315634293436
10
-6.3878478097159448
20
-3.7242956238435627
10
-6.5158803046390457
20
-3.7242956238435627
10
-6.5158803046390457
20
-3.7254315634293436
10
-6.5178478097159456
20
-3.7242956238435636
10
-6.6106195038393674
20
-3.7242956238435627
10
-6.6124265803085107
20
-3.7274255721012839
10
-6.6178478097159443
20
-3.7242956238435636
10
-6.6458803046390447
20
-3.7242956238435627
10
-6.6458803046390447
20
-3.7254315634293427
10
-6.6478478097159446
20
-3.7242956238435627
10
-6.7232028063313436
20
-3.7242956238435627
10
-6.7608803046390449
20
-3.7895549652145912
10
-6.760880304639044
20
-3.7918268443861498
10
-6.7618640571774948
20
-3.7912588745932605
10
-6.8258803046390453
20
-3.9021382677065675
10
-6.8258803046390453
20
-3.9044101468781265
10
-6.8268640571774943
20
-3.9038421770852367
10
-6.8908803046390448
20
-4.014721570198545
10
-6.8908803046390448
20
-4.0169934493701041
10
-6.8918640571774938
20
-4.0164254795772143
10
-6.9243640571774945
20
-4.0727171308232029
10
-6.7121878332503062
20
-4.1952171308232025
10
-6.7108803046390459
20
-4.1929524248361458
10
-6.7108803046390459
20
-4.1959720328188883
10
-6.5021766728325812
20
-4.3164671308232032
10
-6.500880304639046
20
-4.3142217552466819
10
-6.500880304639046
20
-4.3172155893487094
10
-6.3208803046390454
20
-4.4211386378028417
10
-6.3208803046390454
20
-4.2710275678135394
10
-6.3245933703406036
20
-4.2688838283312256
10
-6.3208803046390454
20
-4.262452609884285
10
-6.3208803046390454
20
-3.9708054278349341
10
-6.3234953618615695
20
-3.9692956238435633
10
-6.3208803046390454
20
-3.9692956238435637
10
-6.3208803046390454
20
-3.8542956238435631
10
-6.6458803046390447
20
-3.8542956238435631
10
-6.6458803046390447
20
-3.8582221253429565
10
-6.6492807546855177
20
-3.85625887459326
10
-6.746780754685517
20
-4.0251338283312261
10
-6.6471878332503067
20
-4.0826338283312253
10
-6.6458803046390447
20
-4.0803691223441696
10
-6.6458803046390447
20
-4.0833887303269103
10
-6.4508803046390444
20
-4.1959720328188883
10
-6.4508803046390444
20
-4.1209164978242363
10
-6.4358803046390447
20
-4.1295767518620803
10
-6.4358803046390447
20
-4.2219527949324211
10
-6.767271135742285
20
-4.0306242093879918
10
-6.7608803046390449
20
-4.0195549652145912
10
-6.7608803046390449
20
-4.0169934493701041
10
-6.7597711357422847
20
-4.0176338283312258
10
-6.6958803046390454
20
-3.9069716627226132
10
-6.6958803046390454
20
-3.9044101468781269
10
-6.6947711357422834
20
-3.9050505258392487
10
-6.6568075253745373
20
-3.8392956238435634
10
-6.5808803046390434
20
-3.8392956238435634
10
-6.5808803046390434
20
-3.8380148659213207
10
-6.5786619668455231
20
-3.8392956238435634
10
-6.4508803046390444
20
-3.8392956238435634
10
-6.4508803046390444
20
-3.8380148659213198
10
-6.4486619668455223
20
-3.8392956238435634
10
-6.3208803046390454
20
-3.8392956238435638
10
-6.3208803046390454
20
-3.8380148659213207
10
-6.3186619668455233
20
-3.8392956238435638
10
-6.3058803046390457
20
-3.8392956238435634
10
-6.3058803046390457
20
-4.4471193999163763
10
-6.8885627869882722
20
-4.1107075118799692
10
-6.8908803046390448
20
-4.1147215701985447
10
-6.8908803046390448
20
-4.109369492440444
10
-6.9448544382342616
20
-4.0782075118799694
10
-6.7318630603691885
20
-3.7092956238435626
10
-6.1758803046390449
20
-3.7092956238435635
10
-6.1758803046390449
20
-3.9692956238435633
10
-6.1732652474165191
20
-3.9692956238435633
10
-6.1758803046390449
20
-3.9708054278349341
10
-6.1758803046390449
20
-4.2117956238435639
10
-6.1732875682519728
20
-4.2117956238435639
10
-6.1758803046390449
20
-4.2132925408945772
10
-6.175880304639044
20
-4.6463052427867968
10
-5.590880304639045
20
-4.3085553353108654
10
-5.590880304639045
20
-4.3055357273281238
10
-5.5895727760277829
20
-4.3078004333151805
10
-5.3773965521005946
20
-4.18530043331518
10
-5.4098965521005944
20
-4.1290087820691914
10
-5.4108803046390443
20
-4.1295767518620812
10
-5.4108803046390443
20
-4.1273048726905222
10
-5.4748965521005948
20
-4.0164254795772143
10
-5.4758803046390447
20
-4.0169934493701041
10
-5.4758803046390447
20
-4.0147215701985441
10
-5.5398965521005952
20
-3.9038421770852372
10
-5.5408803046390451
20
-3.9044101468781278
10
-5.5408803046390451
20
-3.902138267706567
10
-5.5872661517007565
20
-3.8217956238435642
10
-5.590880304639045
20
-3.8217956238435642
10
-5.590880304639045
20
-3.8155357273281236
10
-5.6048965521005947
20
-3.7912588745932605
10
-5.6058803046390446
20
-3.7918268443861498
10
-5.6058803046390446
20
-3.7895549652145903
10
-5.6435578029467441
20
-3.7242956238435641
10
-5.7189127995621458
20
-3.7242956238435641
10
-5.7208803046390448
20
-3.7254315634293436
10
-5.7208803046390448
20
-3.7242956238435641
10
-5.8489127995621457
20
-3.7242956238435641
10
-5.8508803046390447
20
-3.7254315634293436
10
-5.8508803046390447
20
-3.7242956238435641
10
-5.9789127995621456
20
-3.7242956238435641
10
-5.9808803046390446
20
-3.7254315634293436
10
-5.9808803046390446
20
-3.7242956238435641
10
-6.0458803046390441
20
-3.7242956238435636
10
-6.0458803046390441
20
-3.9692956238435633
10
-6.04326524741652
20
-3.9692956238435633
10
-6.0458803046390441
20
-3.9708054278349341
10
-6.0458803046390441
20
-4.2117956238435639
10
-6.0432875682519729
20
-4.2117956238435639
10
-6.0458803046390441
20
-4.2132925408945772
10
-6.0458803046390441
20
-4.4211386378028417
10
-5.9158803046390442
20
-4.3460831028081905
10
-5.9158803046390442
20
-4.3417956238435638
10
-5.9084541732359277
20
-4.3417956238435638
10
-5.6558803046390453
20
-4.1959720328188883
10
-5.6558803046390453
20
-4.1929524248361458
10
-5.6545727760277824
20
-4.1952171308232025
10
-5.5549798545925722
20
-4.1377171308232032
10
-5.7174798545925727
20
-3.85625887459326
10
-5.7208803046390448
20
-3.8582221253429565
10
-5.7208803046390448
20
-3.8542956238435639
10
-5.9158803046390442
20
-3.8542956238435639
10
-5.9158803046390442
20
-3.9692956238435633
10
-5.913265247416521
20
-3.9692956238435633
10
-5.9158803046390442
20
-3.9708054278349341
10
-5.9158803046390442
20
-4.1959720328188883
10
-5.8508803046390447
20
-4.1584442653215623
10
-5.8508803046390447
20
-4.1757647733972512
10
-5.9308803046390448
20
-4.2219527949324211
10
-5.9308803046390448
20
-3.8392956238435634
10
-5.9180986424325663
20
-3.8392956238435634
10
-5.9158803046390442
20
-3.8380148659213198
10
-5.9158803046390442
20
-3.8392956238435634
10
-5.7880986424325664
20
-3.8392956238435634
10
-5.7858803046390443
20
-3.8380148659213198
10
-5.7858803046390443
20
-3.8392956238435634
10
-5.7099530839035522
20
-3.8392956238435634
10
-5.6719894735358052
20
-3.9050505258392496
10
-5.670880304639045
20
-3.9044101468781278
10
-5.670880304639045
20
-3.9069716627226145
10
-5.6069894735358057
20
-4.0176338283312258
10
-5.6058803046390446
20
-4.0169934493701041
10
-5.6058803046390446
20
-4.0195549652145912
10
-5.5419894735358062
20
-4.130217130823203
10
-5.5408803046390451
20
-4.1295767518620812
10
-5.5408803046390451
20
-4.1321382677065683
10
-5.5344894735358059
20
-4.1432075118799698
10
-6.0608803046390447
20
-4.4471193999163763
10
-6.0608803046390447
20
-3.7742956238435639
10
-6.065515339940589
20
-3.7742956238435639
10
-6.0608803046390447
20
-3.7716195849645135
10
-6.0608803046390447
20
-3.7092956238435635
10
-5.634897548908901
20
-3.7092956238435639
10
-5.3569061710438284
20
-4.1907908143719474
10
-5.5820727760277826
20
-4.3207908143719465
10
-5.5807652474165197
20
-4.323055520359004
10
-5.5833803046390447
20
-4.3215457163676332
10
-5.7920839364455095
20
-4.4420408143719463
10
-5.7907875682519725
20
-4.4442861899484667
10
-5.7933803046390446
20
-4.4427892728974534
10
-6.1683803046390446
20
-4.6592956238435637
10
-5.5833803046390456
20
-4.997045531319495
10
-5.5807652474165206
20
-4.9955357273281233
10
-5.5820727760277826
20
-4.99780043331518
10
-5.3698965521005952
20
-5.1203004333151796
10
-5.3373965521005955
20
-5.0640087820691919
10
-5.3383803046390446
20
-5.0634408122763013
10
-5.3364127995621455
20
-5.0623048726905218
10
-5.272396552100596
20
-4.9514254795772139
10
-5.2733803046390451
20
-4.950857509784325
10
-5.2714127995621451
20
-4.9497215701985438
10
-5.2073965521005947
20
-4.8388421770852377
10
-5.2083803046390456
20
-4.838274207292347
10
-5.2064127995621448
20
-4.8371382677065666
10
-5.1600269525004334
20
-4.7567956238435638
10
-5.1618340289695785
20
-4.753665675585844
10
-5.1564127995621449
20
-4.7505357273281232
10
-5.1423965521005952
20
-4.7262588745932606
10
-5.1433803046390443
20
-4.7256909048003699
10
-5.1414127995621453
20
-4.7245549652145904
10
-5.1037353012544457
20
-4.6592956238435645
10
-5.1414127995621461
20
-4.594036282472536
10
-5.1433803046390452
20
-4.5929003428867565
10
-5.1423965521005952
20
-4.5923323730938668
10
-5.2064127995621456
20
-4.4814529799805589
10
-5.2083803046390447
20
-4.4803170403947803
10
-5.2073965521005947
20
-4.4797490706018896
10
-5.271412799562146
20
-4.3688696774885818
10
-5.2733803046390442
20
-4.3677337379028032
10
-5.2723965521005951
20
-4.3671657681099134
10
-5.3048965521005949
20
-4.3108741168639231
10
-5.5170727760277822
20
-4.4333741168639236
10
-5.5157652474165202
20
-4.4356388228509793
10
-5.5183803046390443
20
-4.4341290188596094
10
-5.7270839364455091
20
-4.5546241168639234
10
-5.725787568251973
20
-4.5568694924404447
10
-5.7283803046390442
20
-4.5553725753894305
10
-5.9083803046390448
20
-4.6592956238435628
10
-5.778380304639045
20
-4.7343511588382148
10
-5.7746672389374867
20
-4.7322074193559009
10
-5.7709541732359275
20
-4.7386386378028416
10
-5.5183803046390452
20
-4.884462228827517
10
-5.5157652474165202
20
-4.8829524248361462
10
-5.5170727760277822
20
-4.885217130823202
10
-5.4174798545925729
20
-4.9427171308232021
10
-5.2549798545925714
20
-4.6612588745932602
10
-5.2583803046390436
20
-4.6592956238435637
10
-5.2549798545925723
20
-4.6573323730938672
10
-5.3524798545925716
20
-4.4884574193559015
10
-5.4520727760277818
20
-4.5459574193559007
10
-5.4507652474165207
20
-4.5482221253429564
10
-5.4533803046390439
20
-4.5467123213515865
10
-5.6483803046390451
20
-4.6592956238435637
10
-5.5833803046390447
20
-4.6968233913408888
10
-5.5983803046390443
20
-4.7054836453787336
10
-5.6783803046390444
20
-4.6592956238435637
10
-5.3469894735358059
20
-4.4679670382991352
10
-5.3405986424325658
20
-4.4790362824725358
10
-5.3383803046390446
20
-4.4803170403947794
10
-5.3394894735358056
20
-4.4809574193559012
10
-5.2755986424325663
20
-4.5916195849645129
10
-5.2733803046390451
20
-4.5929003428867565
10
-5.2744894735358061
20
-4.5935407218478783
10
-5.23652586316806
20
-4.6592956238435637
10
-5.2744894735358061
20
-4.725050525839249
10
-5.2733803046390451
20
-4.7256909048003708
10
-5.2755986424325663
20
-4.7269716627226144
10
-5.3394894735358056
20
-4.8376338283312252
10
-5.3383803046390446
20
-4.838274207292347
10
-5.3405986424325675
20
-4.8395549652145906
10
-5.404489473535806
20
-4.9502171308232015
10
-5.403380304639045
20
-4.9508575097843233
10
-5.405598642432567
20
-4.9521382677065668
10
-5.4119894735358054
20
-4.9632075118799692
10
-5.9383803046390451
20
-4.6592956238435628
10
-5.3556978222898168
20
-4.3228837358071575
10
-5.3580153399405894
20
-4.3188696774885829
10
-5.3533803046390451
20
-4.3215457163676332
10
-5.2994061710438292
20
-4.2903837358071568
0
ENDSEC
0
SECTION
2
OBJECTS
0
DICTIONARY
5
C
100
AcDbDictionary
3
ACAD_GROUP
350
D
3
ACAD_MLINESTYLE
350
17
0
DICTIONARY
5
D
100
AcDbDictionary
0
DICTIONARY
5
1A
330
C
100
AcDbDictionary
0
DICTIONARY
5
17
100
AcDbDictionary
0
ENDSEC
0
EOF
