0
SECTION
2
HEADER
9
$INSUNITS
70
1
9
$ACADVER
1
AC1014
9
$HANDSEED
5
FFFF
0
ENDSEC
0
SECTION
2
TABLES
0
TABLE
2
VPORT
5
8
100
AcDbSymbolTable
0
ENDTAB
0
TABLE
2
LTYPE
5
5
100
AcDbSymbolTable
0
LTYPE
5
14
100
AcDbSymbolTableRecord
100
AcDbLinetypeTableRecord
2
BYBLOCK
70
0
0
LTYPE
5
15
100
AcDbSymbolTableRecord
100
AcDbLinetypeTableRecord
2
BYLAYER
70
0
0
ENDTAB
0
TABLE
2
LAYER
5
2
100
AcDbSymbolTable
70
2
0
LAYER
5
50
100
AcDbSymbolTableRecord
100
AcDbLayerTableRecord
2
0
70
0
6
CONTINUOUS
0
ENDTAB
0
TABLE
2
STYLE
5
3
100
AcDbSymbolTable
70
1
0
STYLE
5
11
100
AcDbSymbolTableRecord
100
AcDbTextStyleTableRecord
2
STANDARD
70
0
0
ENDTAB
0
TABLE
2
VIEW
5
6
100
AcDbSymbolTable
70
0
0
ENDTAB
0
TABLE
2
UCS
5
7
100
AcDbSymbolTable
70
0
0
ENDTAB
0
TABLE
2
APPID
5
9
100
AcDbSymbolTable
70
2
0
APPID
5
12
100
AcDbSymbolTableRecord
100
AcDbRegAppTableRecord
2
ACAD
70
0
0
ENDTAB
0
TABLE
2
DIMSTYLE
5
A
100
AcDbSymbolTable
70
1
0
ENDTAB
0
TABLE
2
BLOCK_RECORD
5
1
100
AcDbSymbolTable
70
1
0
BLOCK_RECORD
5
1F
100
AcDbSymbolTableRecord
100
AcDbBlockTableRecord
2
*MODEL_SPACE
0
BLOCK_RECORD
5
1B
100
AcDbSymbolTableRecord
100
AcDbBlockTableRecord
2
*PAPER_SPACE
0
ENDTAB
0
ENDSEC
0
SECTION
2
BLOCKS
0
BLOCK
5
20
100
AcDbEntity
100
AcDbBlockBegin
2
*MODEL_SPACE
0
ENDBLK
5
21
100
AcDbEntity
100
AcDbBlockEnd
0
BLOCK
5
1C
100
AcDbEntity
100
AcDbBlockBegin
2
*PAPER_SPACE
0
ENDBLK
5
1D
100
AcDbEntity
100
AcDbBlockEnd
0
ENDSEC
0
SECTION
2
ENTITIES
0
LWPOLYLINE
5
100
100
AcDbEntity
8
0
100
AcDbPolyline
90
60
70
1
43
0.0
10
-2.9439731763493087
20
2.2916689093148515
10
-2.9439731763493096
20
2.7716689093148532
10
-2.5939731763493099
20
2.7716689093148532
10
-2.5939731763493099
20
2.4216689093148518
10
-2.8139731763493097
20
2.4216689093148518
10
-2.8139731763493097
20
2.6416689093148524
10
-2.7889731763493097
20
2.6416689093148524
10
-2.7889731763493097
20
2.4466689093148526
10
-2.6189731763493094
20
2.4466689093148526
10
-2.6189731763493094
20
2.7466689093148524
10
-2.9189731763493096
20
2.7466689093148524
10
-2.9189731763493096
20
2.3166689093148518
10
-2.4889731763493095
20
2.3166689093148518
10
-2.4889731763493095
20
2.7716689093148514
10
-2.46397317634931
20
2.7716689093148514
10
-2.46397317634931
20
2.8766689093148501
10
-2.94397317634931
20
2.8766689093148532
10
-2.94397317634931
20
3.2266689093148528
10
-2.5939731763493099
20
3.2266689093148528
10
-2.5939731763493099
20
3.0066689093148522
10
-2.8139731763493101
20
3.0066689093148522
10
-2.8139731763493101
20
3.0316689093148526
10
-2.6189731763493103
20
3.0316689093148526
10
-2.6189731763493103
20
3.2016689093148525
10
-2.9189731763493096
20
3.2016689093148525
10
-2.9189731763493096
20
2.9016689093148522
10
-2.4889731763493095
20
2.9016689093148509
10
-2.4889731763493095
20
3.3316689093148515
10
-2.9439731763493087
20
3.3316689093148515
10
-2.9439731763493087
20
3.3566689093148518
10
-3.04897317634931
20
3.3566689093148518
10
-3.04897317634931
20
2.8766689093148501
10
-3.3989731763493101
20
2.8766689093148501
10
-3.3989731763493101
20
3.2266689093148515
10
-3.1789731763493099
20
3.2266689093148515
10
-3.1789731763493099
20
3.0066689093148509
10
-3.2039731763493098
20
3.0066689093148509
10
-3.2039731763493098
20
3.2016689093148507
10
-3.3739731763493102
20
3.2016689093148507
10
-3.3739731763493102
20
2.9016689093148509
10
-3.0739731763493094
20
2.9016689093148509
10
-3.0739731763493094
20
3.3316689093148515
10
-3.50397317634931
20
3.3316689093148515
10
-3.50397317634931
20
2.8766689093148501
10
-3.52897317634931
20
2.8766689093148501
10
-3.52897317634931
20
2.7716689093148514
10
-3.0489731763493086
20
2.7716689093148501
10
-3.0489731763493086
20
2.4216689093148505
10
-3.3989731763493101
20
2.4216689093148505
10
-3.3989731763493101
20
2.6416689093148511
10
-3.1789731763493094
20
2.6416689093148511
10
-3.1789731763493094
20
2.6166689093148507
10
-3.3739731763493093
20
2.6166689093148507
10
-3.3739731763493093
20
2.4466689093148508
10
-3.0739731763493094
20
2.4466689093148508
10
-3.0739731763493094
20
2.7466689093148511
10
-3.50397317634931
20
2.7466689093148511
10
-3.50397317634931
20
2.3166689093148518
10
-3.04897317634931
20
2.3166689093148518
10
-3.04897317634931
20
2.2916689093148515
0
LWPOLYLINE
5
101
100
AcDbEntity
8
0
100
AcDbPolyline
90
52
70
1
43
0.0
10
-2.9839731763493091
20
2.3566689093148523
10
-3.4639731763493096
20
2.356668909314851
10
-3.4639731763493096
20
2.7066689093148506
10
-3.1139731763493099
20
2.7066689093148506
10
-3.1139731763493099
20
2.4866689093148513
10
-3.3339731763493097
20
2.4866689093148513
10
-3.3339731763493097
20
2.5116689093148508
10
-3.1389731763493094
20
2.5116689093148508
10
-3.1389731763493094
20
2.6816689093148516
10
-3.4389731763493092
20
2.6816689093148516
10
-3.4389731763493092
20
2.3816689093148513
10
-3.0089731763493095
20
2.3816689093148513
10
-3.0089731763493095
20
2.8116689093148506
10
-3.4639731763493096
20
2.8116689093148506
10
-3.4639731763493096
20
3.291668909314851
10
-3.1139731763493099
20
3.291668909314851
10
-3.1139731763493099
20
2.9416689093148514
10
-3.3339731763493097
20
2.9416689093148514
10
-3.3339731763493097
20
3.161668909314852
10
-3.3089731763493098
20
3.161668909314852
10
-3.3089731763493098
20
2.9666689093148517
10
-3.1389731763493094
20
2.9666689093148517
10
-3.1389731763493094
20
3.2666689093148507
10
-3.4389731763493097
20
3.2666689093148507
10
-3.4389731763493097
20
2.8366689093148514
10
-3.0089731763493095
20
2.8366689093148514
10
-3.0089731763493095
20
3.291668909314851
10
-2.52897317634931
20
3.2916689093148523
10
-2.52897317634931
20
2.9416689093148527
10
-2.8789731763493092
20
2.9416689093148527
10
-2.8789731763493092
20
3.161668909314852
10
-2.6589731763493099
20
3.161668909314852
10
-2.6589731763493099
20
3.1366689093148525
10
-2.8539731763493101
20
3.1366689093148525
10
-2.8539731763493101
20
2.9666689093148517
10
-2.5539731763493108
20
2.9666689093148517
10
-2.5539731763493108
20
3.266668909314852
10
-2.9839731763493091
20
3.266668909314852
10
-2.9839731763493091
20
2.8366689093148527
10
-2.52897317634931
20
2.8366689093148527
10
-2.52897317634931
20
2.3566689093148523
10
-2.8789731763493092
20
2.3566689093148523
10
-2.8789731763493092
20
2.7066689093148519
10
-2.6589731763493099
20
2.7066689093148519
10
-2.6589731763493099
20
2.4866689093148513
10
-2.6839731763493098
20
2.4866689093148513
10
-2.6839731763493098
20
2.6816689093148516
10
-2.8539731763493101
20
2.6816689093148516
10
-2.8539731763493101
20
2.3816689093148526
10
-2.5539731763493099
20
2.3816689093148526
10
-2.5539731763493099
20
2.8116689093148519
10
-2.9839731763493091
20
2.8116689093148519
0
LWPOLYLINE
5
102
100
AcDbEntity
8
0
100
AcDbPolyline
90
60
70
1
43
0.0
10
-2.9439731763493087
20
2.2916689093148515
10
-2.9439731763493096
20
2.7716689093148532
10
-2.5939731763493099
20
2.7716689093148532
10
-2.5939731763493099
20
2.4216689093148518
10
-2.8139731763493097
20
2.4216689093148518
10
-2.8139731763493097
20
2.6416689093148524
10
-2.7889731763493097
20
2.6416689093148524
10
-2.7889731763493097
20
2.4466689093148526
10
-2.6189731763493094
20
2.4466689093148526
10
-2.6189731763493094
20
2.7466689093148524
10
-2.9189731763493096
20
2.7466689093148524
10
-2.9189731763493096
20
2.3166689093148518
10
-2.4889731763493095
20
2.3166689093148518
10
-2.4889731763493095
20
2.7716689093148514
10
-2.46397317634931
20
2.7716689093148514
10
-2.46397317634931
20
2.8766689093148501
10
-2.94397317634931
20
2.8766689093148532
10
-2.94397317634931
20
3.2266689093148528
10
-2.5939731763493099
20
3.2266689093148528
10
-2.5939731763493099
20
3.0066689093148522
10
-2.8139731763493101
20
3.0066689093148522
10
-2.8139731763493101
20
3.0316689093148526
10
-2.6189731763493103
20
3.0316689093148526
10
-2.6189731763493103
20
3.2016689093148525
10
-2.9189731763493096
20
3.2016689093148525
10
-2.9189731763493096
20
2.9016689093148522
10
-2.4889731763493095
20
2.9016689093148509
10
-2.4889731763493095
20
3.3316689093148515
10
-2.9439731763493087
20
3.3316689093148515
10
-2.9439731763493087
20
3.3566689093148518
10
-3.04897317634931
20
3.3566689093148518
10
-3.04897317634931
20
2.8766689093148501
10
-3.3989731763493101
20
2.8766689093148501
10
-3.3989731763493101
20
3.2266689093148515
10
-3.1789731763493099
20
3.2266689093148515
10
-3.1789731763493099
20
3.0066689093148509
10
-3.2039731763493098
20
3.0066689093148509
10
-3.2039731763493098
20
3.2016689093148507
10
-3.3739731763493102
20
3.2016689093148507
10
-3.3739731763493102
20
2.9016689093148509
10
-3.0739731763493094
20
2.9016689093148509
10
-3.0739731763493094
20
3.3316689093148515
10
-3.50397317634931
20
3.3316689093148515
10
-3.50397317634931
20
2.8766689093148501
10
-3.52897317634931
20
2.8766689093148501
10
-3.52897317634931
20
2.7716689093148514
10
-3.0489731763493086
20
2.7716689093148501
10
-3.0489731763493086
20
2.4216689093148505
10
-3.3989731763493101
20
2.4216689093148505
10
-3.3989731763493101
20
2.6416689093148511
10
-3.1789731763493094
20
2.6416689093148511
10
-3.1789731763493094
20
2.6166689093148507
10
-3.3739731763493093
20
2.6166689093148507
10
-3.3739731763493093
20
2.4466689093148508
10
-3.0739731763493094
20
2.4466689093148508
10
-3.0739731763493094
20
2.7466689093148511
10
-3.50397317634931
20
2.7466689093148511
10
-3.50397317634931
20
2.3166689093148518
10
-3.04897317634931
20
2.3166689093148518
10
-3.04897317634931
20
2.2916689093148515
0
LWPOLYLINE
5
103
100
AcDbEntity
8
0
100
AcDbPolyline
90
52
70
1
43
0.0
10
-2.9839731763493091
20
2.3566689093148523
10
-3.4639731763493096
20
2.356668909314851
10
-3.4639731763493096
20
2.7066689093148506
10
-3.1139731763493099
20
2.7066689093148506
10
-3.1139731763493099
20
2.4866689093148513
10
-3.3339731763493097
20
2.4866689093148513
10
-3.3339731763493097
20
2.5116689093148508
10
-3.1389731763493094
20
2.5116689093148508
10
-3.1389731763493094
20
2.6816689093148516
10
-3.4389731763493092
20
2.6816689093148516
10
-3.4389731763493092
20
2.3816689093148513
10
-3.0089731763493095
20
2.3816689093148513
10
-3.0089731763493095
20
2.8116689093148506
10
-3.4639731763493096
20
2.8116689093148506
10
-3.4639731763493096
20
3.291668909314851
10
-3.1139731763493099
20
3.291668909314851
10
-3.1139731763493099
20
2.9416689093148514
10
-3.3339731763493097
20
2.9416689093148514
10
-3.3339731763493097
20
3.161668909314852
10
-3.3089731763493098
20
3.161668909314852
10
-3.3089731763493098
20
2.9666689093148517
10
-3.1389731763493094
20
2.9666689093148517
10
-3.1389731763493094
20
3.2666689093148507
10
-3.4389731763493097
20
3.2666689093148507
10
-3.4389731763493097
20
2.8366689093148514
10
-3.0089731763493095
20
2.8366689093148514
10
-3.0089731763493095
20
3.291668909314851
10
-2.52897317634931
20
3.2916689093148523
10
-2.52897317634931
20
2.9416689093148527
10
-2.8789731763493092
20
2.9416689093148527
10
-2.8789731763493092
20
3.161668909314852
10
-2.6589731763493099
20
3.161668909314852
10
-2.6589731763493099
20
3.1366689093148525
10
-2.8539731763493101
20
3.1366689093148525
10
-2.8539731763493101
20
2.9666689093148517
10
-2.5539731763493108
20
2.9666689093148517
10
-2.5539731763493108
20
3.266668909314852
10
-2.9839731763493091
20
3.266668909314852
10
-2.9839731763493091
20
2.8366689093148527
10
-2.52897317634931
20
2.8366689093148527
10
-2.52897317634931
20
2.3566689093148523
10
-2.8789731763493092
20
2.3566689093148523
10
-2.8789731763493092
20
2.7066689093148519
10
-2.6589731763493099
20
2.7066689093148519
10
-2.6589731763493099
20
2.4866689093148513
10
-2.6839731763493098
20
2.4866689093148513
10
-2.6839731763493098
20
2.6816689093148516
10
-2.8539731763493101
20
2.6816689093148516
10
-2.8539731763493101
20
2.3816689093148526
10
-2.5539731763493099
20
2.3816689093148526
10
-2.5539731763493099
20
2.8116689093148519
10
-2.9839731763493091
20
2.8116689093148519
0
ENDSEC
0
SECTION
2
OBJECTS
0
DICTIONARY
5
C
100
AcDbDictionary
3
ACAD_GROUP
350
D
3
ACAD_MLINESTYLE
350
17
0
DICTIONARY
5
D
100
AcDbDictionary
0
DICTIONARY
5
1A
330
C
100
AcDbDictionary
0
DICTIONARY
5
17
100
AcDbDictionary
0
ENDSEC
0
EOF
