0
SECTION
2
HEADER
9
$INSUNITS
70
1
9
$ACADVER
1
AC1014
9
$HANDSEED
5
FFFF
0
ENDSEC
0
SECTION
2
TABLES
0
TABLE
2
VPORT
5
8
100
AcDbSymbolTable
0
ENDTAB
0
TABLE
2
LTYPE
5
5
100
AcDbSymbolTable
0
LTYPE
5
14
100
AcDbSymbolTableRecord
100
AcDbLinetypeTableRecord
2
BYBLOCK
70
0
0
LTYPE
5
15
100
AcDbSymbolTableRecord
100
AcDbLinetypeTableRecord
2
BYLAYER
70
0
0
ENDTAB
0
TABLE
2
LAYER
5
2
100
AcDbSymbolTable
70
2
0
LAYER
5
50
100
AcDbSymbolTableRecord
100
AcDbLayerTableRecord
2
0
70
0
6
CONTINUOUS
0
ENDTAB
0
TABLE
2
STYLE
5
3
100
AcDbSymbolTable
70
1
0
STYLE
5
11
100
AcDbSymbolTableRecord
100
AcDbTextStyleTableRecord
2
STANDARD
70
0
0
ENDTAB
0
TABLE
2
VIEW
5
6
100
AcDbSymbolTable
70
0
0
ENDTAB
0
TABLE
2
UCS
5
7
100
AcDbSymbolTable
70
0
0
ENDTAB
0
TABLE
2
APPID
5
9
100
AcDbSymbolTable
70
2
0
APPID
5
12
100
AcDbSymbolTableRecord
100
AcDbRegAppTableRecord
2
ACAD
70
0
0
ENDTAB
0
TABLE
2
DIMSTYLE
5
A
100
AcDbSymbolTable
70
1
0
ENDTAB
0
TABLE
2
BLOCK_RECORD
5
1
100
AcDbSymbolTable
70
1
0
BLOCK_RECORD
5
1F
100
AcDbSymbolTableRecord
100
AcDbBlockTableRecord
2
*MODEL_SPACE
0
BLOCK_RECORD
5
1B
100
AcDbSymbolTableRecord
100
AcDbBlockTableRecord
2
*PAPER_SPACE
0
ENDTAB
0
ENDSEC
0
SECTION
2
BLOCKS
0
BLOCK
5
20
100
AcDbEntity
100
AcDbBlockBegin
2
*MODEL_SPACE
0
ENDBLK
5
21
100
AcDbEntity
100
AcDbBlockEnd
0
BLOCK
5
1C
100
AcDbEntity
100
AcDbBlockBegin
2
*PAPER_SPACE
0
ENDBLK
5
1D
100
AcDbEntity
100
AcDbBlockEnd
0
ENDSEC
0
SECTION
2
ENTITIES
0
LWPOLYLINE
5
100
100
AcDbEntity
8
0
100
AcDbPolyline
90
36
70
1
43
0.0
10
-0.48571704536796578
20
-6.3118505450632023
10
-0.48571704536796478
20
-5.9618505450632018
10
-0.86071704536796489
20
-5.9618505450632027
10
-0.86071704536796489
20
-5.9368505450632014
10
-1.085717045367965
20
-5.9368505450632014
10
-1.085717045367965
20
-6.3368505450632027
10
-1.2357170453679651
20
-6.3368505450632027
10
-1.2357170453679651
20
-6.3118505450632023
10
-1.1107170453679649
20
-6.3118505450632023
10
-1.1107170453679649
20
-5.9618505450632027
10
-1.4607170453679652
20
-5.9618505450632027
10
-1.4607170453679652
20
-6.3368505450632027
10
-1.4857170453679651
20
-6.3368505450632027
10
-1.4857170453679651
20
-6.5618505450632014
10
-1.0857170453679659
20
-6.5618505450632014
10
-1.0857170453679659
20
-6.7118505450632009
10
-1.1107170453679656
20
-6.7118505450632009
10
-1.1107170453679656
20
-6.5868505450632018
10
-1.4607170453679652
20
-6.5868505450632
10
-1.4607170453679652
20
-6.9368505450632014
10
-1.085717045367965
20
-6.9368505450632014
10
-1.085717045367965
20
-6.9618505450632018
10
-0.86071704536796567
20
-6.9618505450632
10
-0.86071704536796567
20
-6.5618505450632014
10
-0.71071704536796554
20
-6.5618505450632014
10
-0.71071704536796554
20
-6.5868505450632018
10
-0.83571704536796587
20
-6.5868505450632018
10
-0.83571704536796587
20
-6.9368505450632014
10
-0.48571704536796545
20
-6.9368505450632014
10
-0.48571704536796478
20
-6.5618505450632014
10
-0.46071704536796498
20
-6.5618505450632014
10
-0.46071704536796565
20
-6.3368505450632009
10
-0.86071704536796567
20
-6.3368505450632027
10
-0.86071704536796567
20
-6.1868505450632023
10
-0.83571704536796587
20
-6.1868505450632023
10
-0.83571704536796587
20
-6.3118505450632023
0
LWPOLYLINE
5
101
100
AcDbEntity
8
0
100
AcDbPolyline
90
28
70
1
43
0.0
10
-0.58571704536796598
20
-6.0618505450632032
10
-0.58571704536796632
20
-6.2118505450632018
10
-0.61071704536796545
20
-6.2118505450632018
10
-0.61071704536796501
20
-6.0868505450632018
10
-0.96071704536796543
20
-6.0868505450632018
10
-0.96071704536796543
20
-6.4368505450632014
10
-0.58571704536796598
20
-6.4368505450632014
10
-0.58571704536796598
20
-6.8368505450632009
10
-0.73571704536796534
20
-6.8368505450632009
10
-0.73571704536796534
20
-6.8118505450632014
10
-0.61071704536796578
20
-6.8118505450632014
10
-0.61071704536796578
20
-6.4618505450632018
10
-0.96071704536796543
20
-6.4618505450632018
10
-0.96071704536796543
20
-6.8368505450632009
10
-1.3607170453679647
20
-6.8368505450632009
10
-1.3607170453679647
20
-6.6868505450632023
10
-1.3357170453679656
20
-6.6868505450632023
10
-1.3357170453679656
20
-6.8118505450632005
10
-0.98571704536796589
20
-6.8118505450632005
10
-0.98571704536796523
20
-6.4618505450632018
10
-1.3607170453679647
20
-6.4618505450632018
10
-1.3607170453679647
20
-6.0618505450632032
10
-1.2107170453679654
20
-6.0618505450632032
10
-1.2107170453679654
20
-6.0868505450632018
10
-1.335717045367965
20
-6.0868505450632018
10
-1.335717045367965
20
-6.4368505450632014
10
-0.98571704536796523
20
-6.4368505450632014
10
-0.98571704536796523
20
-6.0618505450632032
0
LWPOLYLINE
5
102
100
AcDbEntity
8
0
100
AcDbPolyline
90
44
70
1
43
0.0
10
-2.5514731763493104
20
1.3217435050213477
10
-2.5514731763493104
20
0.87174350502134812
10
-2.8314731763493102
20
0.87174350502134812
10
-2.8314731763493106
20
1.1517435050213478
10
-2.7214731763493099
20
1.1517435050213478
10
-2.7214731763493099
20
1.1267435050213483
10
-2.8064731763493103
20
1.1267435050213481
10
-2.8064731763493103
20
0.89674350502134792
10
-2.5764731763493098
20
0.89674350502134792
10
-2.5764731763493098
20
1.2967435050213481
10
-2.9764731763493097
20
1.2967435050213481
10
-2.9764731763493102
20
0.87174350502134812
10
-3.4264731763493095
20
0.87174350502134812
10
-3.4264731763493095
20
1.1517435050213474
10
-3.1464731763493097
20
1.1517435050213476
10
-3.1464731763493097
20
1.041743505021347
10
-3.1714731763493087
20
1.041743505021347
10
-3.1714731763493091
20
1.1267435050213475
10
-3.4014731763493091
20
1.1267435050213481
10
-3.4014731763493091
20
0.89674350502134792
10
-3.0014731763493092
20
0.89674350502134714
10
-3.0014731763493092
20
1.2967435050213474
10
-3.4264731763493095
20
1.2967435050213474
10
-3.4264731763493095
20
1.7467435050213471
10
-3.1464731763493097
20
1.7467435050213471
10
-3.1464731763493097
20
1.4667435050213473
10
-3.25647317634931
20
1.4667435050213473
10
-3.25647317634931
20
1.4917435050213468
10
-3.1714731763493091
20
1.4917435050213468
10
-3.1714731763493091
20
1.7217435050213472
10
-3.4014731763493096
20
1.7217435050213472
10
-3.4014731763493096
20
1.3217435050213471
10
-3.0014731763493097
20
1.3217435050213471
10
-3.0014731763493097
20
1.7467435050213471
10
-2.5514731763493104
20
1.7467435050213471
10
-2.5514731763493104
20
1.4667435050213478
10
-2.8314731763493102
20
1.4667435050213475
10
-2.8314731763493102
20
1.5767435050213481
10
-2.8064731763493111
20
1.5767435050213481
10
-2.8064731763493103
20
1.4917435050213477
10
-2.5764731763493107
20
1.4917435050213468
10
-2.5764731763493107
20
1.7217435050213472
10
-2.9764731763493106
20
1.7217435050213479
10
-2.9764731763493106
20
1.3217435050213475
0
LWPOLYLINE
5
103
100
AcDbEntity
8
0
100
AcDbPolyline
90
52
70
1
43
0.0
10
-2.4914731763493103
20
1.2367435050213478
10
-2.4664731763493095
20
1.2367435050213478
10
-2.4664731763493095
20
1.3817435050213476
10
-2.9164731763493106
20
1.3817435050213476
10
-2.9164731763493106
20
1.6617435050213478
10
-2.6364731763493108
20
1.6617435050213472
10
-2.6364731763493108
20
1.5767435050213474
10
-2.6614731763493098
20
1.5767435050213474
10
-2.6614731763493098
20
1.6367435050213475
10
-2.8914731763493102
20
1.6367435050213481
10
-2.8914731763493102
20
1.4067435050213475
10
-2.4889731763493095
20
1.4067435050213477
10
-2.4889731763493095
20
1.806743505021347
10
-2.9164731763493097
20
1.806743505021347
10
-2.9164731763493097
20
1.8317435050213475
10
-3.0614731763493097
20
1.8317435050213475
10
-3.0614731763493097
20
1.3817435050213471
10
-3.3414731763493095
20
1.3817435050213471
10
-3.3414731763493095
20
1.6617435050213472
10
-3.25647317634931
20
1.6617435050213472
10
-3.25647317634931
20
1.6367435050213475
10
-3.31647317634931
20
1.6367435050213475
10
-3.31647317634931
20
1.4067435050213473
10
-3.0864731763493096
20
1.4067435050213473
10
-3.0864731763493101
20
1.8092435050213476
10
-3.4864731763493095
20
1.8092435050213476
10
-3.4864731763493095
20
1.3817435050213474
10
-3.5114731763493099
20
1.3817435050213474
10
-3.5114731763493099
20
1.2367435050213476
10
-3.0614731763493088
20
1.2367435050213476
10
-3.0614731763493088
20
0.9567435050213472
10
-3.3414731763493091
20
0.95674350502134786
10
-3.3414731763493091
20
1.0417435050213477
10
-3.31647317634931
20
1.0417435050213477
10
-3.31647317634931
20
0.98174350502134766
10
-3.0864731763493096
20
0.981743505021347
10
-3.0864731763493096
20
1.2117435050213476
10
-3.4889731763493099
20
1.2117435050213474
10
-3.4889731763493099
20
0.81174350502134807
10
-3.0614731763493102
20
0.81174350502134807
10
-3.0614731763493102
20
0.7867435050213476
10
-2.9164731763493101
20
0.7867435050213476
10
-2.9164731763493097
20
1.236743505021348
10
-2.6364731763493099
20
1.236743505021348
10
-2.6364731763493099
20
0.95674350502134786
10
-2.7214731763493099
20
0.95674350502134786
10
-2.7214731763493099
20
0.98174350502134766
10
-2.6614731763493098
20
0.98174350502134766
10
-2.6614731763493098
20
1.2117435050213479
10
-2.8914731763493102
20
1.2117435050213479
10
-2.8914731763493102
20
0.80924350502134756
10
-2.4914731763493103
20
0.80924350502134756
0
ENDSEC
0
SECTION
2
OBJECTS
0
DICTIONARY
5
C
100
AcDbDictionary
3
ACAD_GROUP
350
D
3
ACAD_MLINESTYLE
350
17
0
DICTIONARY
5
D
100
AcDbDictionary
0
DICTIONARY
5
1A
330
C
100
AcDbDictionary
0
DICTIONARY
5
17
100
AcDbDictionary
0
ENDSEC
0
EOF
